<svg width="219" height="55" fill="none" xmlns="http://www.w3.org/2000/svg"><path d="M48 48.28s30.428-8.99 58.516-3.509C130.758 49.501 171 43.214 171 43.214s-38.918 17.064-64.753 10.127C79.343 46.117 48 48.28 48 48.28z" fill="#3669D8"/><path d="M13.985 39.415c-7.553 0-11.329-2.435-11.329-7.304V19.33c0-5.146 3.776-7.719 11.33-7.719 2.572 0 5.034.263 7.386.789v2.988c-2.656-.664-5.09-.996-7.304-.996-1.079 0-2.02.069-2.822.207a9.612 9.612 0 00-2.324.623c-1.604.691-2.407 2.047-2.407 4.067v12.616c0 3.098 2.573 4.647 7.72 4.647 2.213 0 4.647-.332 7.303-.995v3.07c-2.352.526-4.87.789-7.553.789zM26.661 9.95h3.735V39h-3.735V9.95zm17.185 29.465c-2.573 0-4.385-.456-5.436-1.37-1.024-.94-1.536-2.406-1.536-4.398V18.914h3.735V33.44c0 .526.042.955.125 1.287.11.304.29.622.54.954.497.72 1.714 1.079 3.651 1.079 2.047 0 3.486-.194 4.316-.581.802-.387 1.203-1.093 1.203-2.116V18.914h3.735V39h-3.735v-2.449c-.36 1.91-2.559 2.864-6.598 2.864zm22.96 0c-2.131 0-4.427-.166-6.89-.498v-2.864c3.237.526 5.561.789 6.972.789 1.77 0 3.043-.166 3.818-.498.775-.36 1.162-1.01 1.162-1.95V32.36c0-.858-.29-1.466-.871-1.826-.581-.36-1.522-.54-2.822-.54h-2.283c-2.075 0-3.665-.428-4.772-1.286-1.08-.857-1.619-2.061-1.619-3.61V23.23c0-3.154 2.988-4.73 8.964-4.73.443 0 2.476.11 6.1.331v2.698c-2.462-.388-4.55-.581-6.266-.581-1.964 0-3.306.193-4.025.58-.72.388-1.08 1.038-1.08 1.951v1.702c0 1.355 1.232 2.033 3.694 2.033h2.324c4.233 0 6.35 1.577 6.35 4.731v1.743c0 2.075-.72 3.555-2.158 4.44-1.439.858-3.638 1.287-6.599 1.287zm22.342 0c-1.715 0-3.057-.18-4.025-.54-.968-.387-1.674-1.023-2.117-1.908-.415-.913-.622-2.186-.622-3.818V21.363h-4.482v-2.449h4.482V12.69h3.776v6.225h7.18v2.449h-7.18v11.993c0 .996.111 1.743.333 2.241.249.498.663.858 1.245 1.079.608.194 1.48.29 2.614.29.36 0 1.356-.11 2.988-.331v2.448a27.018 27.018 0 01-4.192.332zm16.739 0c-6.142 0-9.213-2.047-9.213-6.142v-7.926c0-2.435.692-4.178 2.075-5.23 1.411-1.078 3.68-1.618 6.806-1.618 2.96 0 5.091.512 6.391 1.536 1.328 1.023 1.992 2.794 1.992 5.312v4.44h-13.487v3.03c0 1.383.484 2.379 1.452 2.987.968.61 2.462.913 4.482.913 1.909 0 4.164-.331 6.764-.995v2.863c-2.545.553-4.966.83-7.262.83zm4.316-12.076v-3.154c0-1.218-.374-2.048-1.121-2.49-.719-.47-1.964-.706-3.735-.706-1.715 0-2.96.235-3.734.706-.775.442-1.162 1.272-1.162 2.49v3.154h9.752zm9.427-8.425h3.527v3.279c0-.637.277-1.231.83-1.785.554-.58 1.259-1.037 2.117-1.37.857-.359 1.701-.539 2.531-.539h1.826v3.196h-2.075c-1.771 0-3.057.235-3.859.705-.775.443-1.162 1.26-1.162 2.449V39h-3.735V18.914zm16.333 2.449h-4.606v-2.449h4.606v-3.237c0-2.296.498-3.887 1.494-4.772 1.024-.913 2.739-1.37 5.146-1.37 1.494 0 2.891.07 4.192.208v2.407a21.88 21.88 0 00-2.822-.208c-1.19 0-2.089.097-2.698.29-.581.195-.996.54-1.245 1.038-.221.47-.332 1.19-.332 2.158v3.486h7.097v2.449h-7.097V39h-3.735V21.363zM149.534 9.95h3.735V39h-3.735V9.95zm18.725 29.465c-1.771 0-3.099-.07-3.984-.207a8.813 8.813 0 01-2.656-.789 3.888 3.888 0 01-1.992-1.992c-.415-.94-.623-2.2-.623-3.776v-6.972c0-1.245.152-2.338.457-3.279.304-.94.705-1.674 1.203-2.2.415-.47 1.038-.83 1.868-1.078a12.192 12.192 0 012.614-.54 56.215 56.215 0 013.113-.083c1.438 0 2.517.042 3.237.125.747.055 1.535.194 2.365.415.858.249 1.522.622 1.992 1.12.47.498.871 1.218 1.203 2.158.305.969.457 2.09.457 3.362v6.972c0 2.351-.54 4.066-1.619 5.145-.442.443-1.079.789-1.909 1.038-.829.249-1.687.415-2.572.498a60.063 60.063 0 01-3.154.083zm0-2.448c1.162 0 2.005-.028 2.531-.084a4.455 4.455 0 001.536-.456 1.894 1.894 0 001.037-1.079c.221-.526.332-1.245.332-2.158v-8.134c0-1.245-.152-2.144-.456-2.697-.305-.581-.83-.955-1.577-1.12-.72-.194-1.854-.291-3.403-.291-1.55 0-2.698.097-3.445.29-.719.166-1.231.54-1.535 1.12-.305.554-.457 1.453-.457 2.698v8.134c0 .913.097 1.632.291 2.158.221.498.581.858 1.079 1.079a4.45 4.45 0 001.535.456c.526.056 1.37.084 2.532.084zm23.586 2.448c-1.771 0-3.098-.07-3.984-.207a8.83 8.83 0 01-2.656-.789 3.888 3.888 0 01-1.992-1.992c-.415-.94-.622-2.2-.622-3.776v-6.972c0-1.245.152-2.338.456-3.279.305-.94.706-1.674 1.204-2.2.415-.47 1.037-.83 1.867-1.078a12.2 12.2 0 012.615-.54 56.178 56.178 0 013.112-.083c1.439 0 2.518.042 3.237.125.747.055 1.536.194 2.366.415.857.249 1.521.622 1.992 1.12.47.498.871 1.218 1.203 2.158.304.969.457 2.09.457 3.362v6.972c0 2.351-.54 4.066-1.619 5.145-.443.443-1.079.789-1.909 1.038-.83.249-1.688.415-2.573.498a60.035 60.035 0 01-3.154.083zm0-2.448c1.162 0 2.006-.028 2.532-.084a4.457 4.457 0 001.535-.456 1.896 1.896 0 001.038-1.079c.221-.526.332-1.245.332-2.158v-8.134c0-1.245-.153-2.144-.457-2.697-.304-.581-.83-.955-1.577-1.12-.719-.194-1.854-.291-3.403-.291s-2.697.097-3.444.29c-.72.166-1.231.54-1.536 1.12-.304.554-.456 1.453-.456 2.698v8.134c0 .913.097 1.632.29 2.158a2.06 2.06 0 001.079 1.079c.498.249 1.01.401 1.536.456.525.056 1.369.084 2.531.084zm15.079-18.053h3.528v3.279c0-.637.276-1.231.83-1.785.553-.58 1.259-1.037 2.116-1.37.858-.359 1.702-.539 2.532-.539h1.826v3.196h-2.075c-1.771 0-3.057.235-3.86.705-.774.443-1.162 1.26-1.162 2.449V39h-3.735V18.914z" fill="#1F2023"/></svg>