<svg width="24" height="24" fill="none" xmlns="http://www.w3.org/2000/svg"><circle cx="12" cy="11.999" r="11" fill="#FBFBFB" stroke="#FBFBFB" stroke-width="2"/><path d="M12.01 10.287a1.712 1.712 0 001.711-1.728 1.715 1.715 0 00-1.72-1.72 1.718 1.718 0 00-1.726 1.741c.007.954.777 1.71 1.734 1.707z" fill="#ED812B"/><path d="M12 1.999c-5.523 0-10 4.477-10 10s4.477 10 10 10 10-4.477 10-10-4.477-10-10-10zm.014 3.041c1.948.005 3.511 1.599 3.502 3.568-.01 1.924-1.6 3.483-3.544 3.476-1.925-.006-3.503-1.602-3.492-3.53a3.528 3.528 0 013.534-3.514zm3.946 8.429a4.24 4.24 0 01-1.525.985c-.545.21-1.141.317-1.732.388.09.097.132.144.187.2.802.806 1.607 1.607 2.405 2.415.273.275.33.616.18.936-.164.35-.531.58-.89.555-.229-.015-.407-.128-.564-.288-.605-.608-1.221-1.206-1.814-1.826-.172-.18-.255-.146-.408.011-.608.627-1.226 1.243-1.848 1.856-.28.276-.611.325-.936.168-.344-.166-.563-.518-.546-.872.012-.239.13-.421.293-.585.794-.791 1.584-1.585 2.375-2.379.053-.053.102-.108.178-.19-1.079-.113-2.052-.379-2.885-1.03-.103-.08-.21-.159-.304-.25-.365-.35-.401-.751-.113-1.164.247-.353.661-.448 1.092-.245.083.04.163.089.239.141 1.552 1.067 3.684 1.096 5.242.048.155-.118.32-.215.511-.264a.8.8 0 01.918.366c.228.372.225.735-.056 1.024z" fill="#ED812B"/></svg>