<svg width="24" height="24" fill="none" xmlns="http://www.w3.org/2000/svg"><circle cx="12" cy="11.999" r="11" fill="#FBFBFB" stroke="#FBFBFB" stroke-width="2"/><path fill-rule="evenodd" clip-rule="evenodd" d="M12 21.999c5.523 0 10-4.477 10-10s-4.477-10-10-10-10 4.477-10 10 4.477 10 10 10zm-.797-7.73l.028-.095.062.08c.045.058.087.114.137.164.928.945 2.941.843 4.183-.697 1.079-1.34 1.164-3.236 1.046-4.005-.258-1.687-1.634-3.175-3.811-3.423-1.823-.206-3.82.475-4.894 2.158-.969 1.52-.759 3.315-.026 4.222.215.266.48.47.798.598.162.066.296.008.341-.152.038-.138.072-.276.106-.414l.058-.238c.033-.125-.032-.206-.125-.32l-.032-.041c-.863-1.083-.429-3.451 1.482-4.335 1.668-.772 4.295-.255 4.438 2.142.072 1.202-.307 2.898-1.283 3.605-1.057.767-2.294.02-2.029-1.03.097-.386.202-.733.298-1.049.221-.728.391-1.287.281-1.746-.255-1.065-1.719-.966-2.126.325-.188.597-.145 1.186.07 1.768l.02.158-.384 1.61c-.542 2.265-.605 2.528-.625 3.11a9.445 9.445 0 00.098 1.606c.007.052.014.108.078.122l.121-.078c.272-.35.519-.715.737-1.1.386-.685.482-1.067.77-2.217.053-.214.113-.455.183-.729z" fill="#CB2027"/></svg>