<svg width="24" height="24" fill="none" xmlns="http://www.w3.org/2000/svg"><circle cx="12" cy="11.999" r="11" fill="#FBFBFB" stroke="#FBFBFB" stroke-width="2"/><path fill-rule="evenodd" clip-rule="evenodd" d="M12 22c5.523 0 10-4.477 10-10 0-5.524-4.477-10-10-10S2 6.476 2 12c0 5.523 4.477 10 10 10z" fill="#08C"/><path fill-rule="evenodd" clip-rule="evenodd" d="M5.956 11.254c3.451-1.512 5.753-2.509 6.904-2.99 3.288-1.376 3.971-1.614 4.417-1.622.098-.002.317.022.458.138.12.098.153.23.169.322.016.093.035.304.02.47-.178 1.882-.95 6.45-1.342 8.558-.166.892-.492 1.191-.809 1.22-.687.064-1.21-.456-1.875-.895-1.042-.687-1.63-1.115-2.642-1.785-1.17-.774-.411-1.2.255-1.896.174-.182 3.203-2.952 3.262-3.204.007-.031.014-.148-.055-.21-.07-.062-.172-.041-.245-.024-.105.024-1.77 1.13-4.994 3.319-.473.326-.9.485-1.284.477-.423-.01-1.236-.24-1.84-.438-.742-.243-1.33-.37-1.28-.782.027-.215.32-.434.881-.658z" fill="#fff"/></svg>