<svg width="24" height="24" fill="none" xmlns="http://www.w3.org/2000/svg"><circle cx="12" cy="11.999" r="11" fill="#FBFBFB" stroke="#FBFBFB" stroke-width="2"/><path fill-rule="evenodd" clip-rule="evenodd" d="M12 21.999c5.523 0 10-4.477 10-10 0-5.524-4.477-10-10-10s-10 4.476-10 10c0 5.523 4.477 10 10 10zm4.422-13.112a4.508 4.508 0 001.103-.314h.045v.01c0 .027 0 .096-.058.172a4.315 4.315 0 01-.904.93c-.047.031-.1.067-.1.123 0 1.802-.46 3.6-1.773 4.905-1.672 1.661-4.18 2.113-6.406 1.498a6.127 6.127 0 01-1.24-.495 5.536 5.536 0 01-.385-.23l-.029-.066c.027-.014.048-.015.148 0a4.38 4.38 0 001.853-.237l.058-.02c.343-.12.973-.339 1.162-.627l.015-.014a1.058 1.058 0 00-.142-.021 1.466 1.466 0 01-.101-.012c-.605-.173-1.413-.477-1.787-1.497-.024-.06 0-.09.062-.079.498.039.677.012.85-.026a1.317 1.317 0 01-.288-.088c-.762-.29-1.319-1.033-1.42-1.837a1.33 1.33 0 01-.014-.258l.083-.045c.392.203.832.25.867.244a3.972 3.972 0 01-.276-.244c-.66-.626-.917-1.9-.388-2.692.043-.065.071-.065.124-.005 1.209 1.378 2.697 2.02 4.493 2.287l.045-.052a2.412 2.412 0 01.024-.94c.08-.323.234-.63.444-.888.203-.25.458-.459.743-.608a2.33 2.33 0 01.922-.26 2.213 2.213 0 011.606.545l.114.117.09.023c.46-.115.89-.277 1.308-.5l.058-.005.003.057c-.075.244-.207.47-.366.668-.105.13-.365.451-.543.481z" fill="#184CD1"/></svg>