<svg width="24" height="24" fill="none" xmlns="http://www.w3.org/2000/svg"><circle cx="12" cy="11.999" r="11" fill="#FBFBFB" stroke="#FBFBFB" stroke-width="2"/><path fill-rule="evenodd" clip-rule="evenodd" d="M22 11.999c0 5.523-4.477 10-10 10s-10-4.477-10-10 4.477-10 10-10 10 4.477 10 10zm-9.593 4.386h-.785s-1.732.104-3.257-1.484C6.702 13.17 5.233 9.733 5.233 9.733s-.084-.225.008-.334c.103-.123.385-.13.385-.13l1.876-.013s.177.03.303.123c.105.076.163.22.163.22s.303.767.705 1.46c.784 1.355 1.149 1.651 1.415 1.506.388-.212.272-1.915.272-1.915s.007-.618-.196-.893c-.156-.213-.452-.276-.582-.293-.106-.014.067-.26.292-.37.337-.165.934-.174 1.638-.167.55.006.707.04.922.092.498.12.482.505.449 1.336-.01.249-.022.537-.022.87 0 .075-.002.155-.004.237-.012.425-.025.913.255 1.094.143.093.495.014 1.374-1.48.417-.707.73-1.539.73-1.539s.068-.148.174-.212c.108-.064.255-.044.255-.044l1.974-.013s.593-.07.69.197c.1.281-.222.938-1.029 2.013-.766 1.02-1.138 1.396-1.103 1.728.025.243.267.462.73.893.973.902 1.232 1.375 1.293 1.488l.012.02c.435.721-.483.778-.483.778l-1.753.024s-.377.075-.873-.266c-.26-.178-.513-.468-.755-.745-.369-.424-.71-.815-1.001-.723-.49.155-.474 1.209-.474 1.209s.004.225-.108.344c-.12.13-.358.157-.358.157z" fill="#45668E"/></svg>