<svg width="24" height="24" fill="none" xmlns="http://www.w3.org/2000/svg"><circle cx="12" cy="12" r="11" fill="#FBFBFB" stroke="#FBFBFB" stroke-width="2"/><path d="M12 21.999c5.523 0 10-4.477 10-10s-4.477-10-10-10-10 4.477-10 10 4.477 10 10 10z" fill="#25D366"/><path d="M9.43 15.916c.082.04.202.121.202.121a4.788 4.788 0 002.45.679c2.646 0 4.8-2.153 4.8-4.799 0-2.646-2.154-4.8-4.8-4.8a4.805 4.805 0 00-4.799 4.8c0 .874.243 1.734.702 2.488 0 0 .083.12.124.204.232.465-.826 1.428-.479 1.79.304.317 1.34-.707 1.8-.483zM6.047 17.98c-.294-.45.859-3.205.859-3.205a5.9 5.9 0 01-.742-2.858A5.924 5.924 0 0112.082 6 5.925 5.925 0 0118 11.916a5.925 5.925 0 01-5.918 5.918 5.9 5.9 0 01-2.813-.718s-2.927 1.313-3.221.863z" fill="#fff"/><path fill-rule="evenodd" clip-rule="evenodd" d="M14.283 12.74c-.243-.146-.56-.308-.847-.191-.22.09-.36.434-.504.61-.073.09-.16.104-.272.06a3.842 3.842 0 01-1.916-1.641c-.077-.119-.063-.211.03-.321.138-.162.31-.347.348-.565.037-.219-.065-.474-.156-.669-.115-.249-.244-.603-.493-.744-.23-.13-.531-.057-.735.11-.352.286-.522.735-.517 1.18.002.127.017.254.047.375.07.294.206.569.36.83.114.197.24.387.375.57.441.6.992 1.122 1.628 1.513.319.194.66.366 1.016.482.398.132.753.269 1.182.187.45-.085.893-.363 1.072-.797a.695.695 0 00.05-.407c-.061-.28-.441-.447-.668-.582z" fill="#fff"/></svg>