<svg width="24" height="24" fill="none" xmlns="http://www.w3.org/2000/svg"><circle cx="12" cy="11.999" r="11" fill="#FBFBFB" stroke="#FBFBFB" stroke-width="2"/><path d="M10.99 13.55l2.753-1.362c.111-.06-.004-.22-.115-.283l-2.636-1.434c-.108-.062-.477.016-.477.14v2.797c0 .123.367.2.474.142z" fill="#C4302B"/><path fill-rule="evenodd" clip-rule="evenodd" d="M12 22c5.523 0 10-4.478 10-10.001s-4.477-10-10-10-10 4.477-10 10 4.477 10 10 10zm2.953-13.856a2.402 2.402 0 012.401 2.401v2.857a2.402 2.402 0 01-2.401 2.402h-6.14a2.402 2.402 0 01-2.402-2.402v-2.857a2.401 2.401 0 012.401-2.401h6.14z" fill="#C4302B"/></svg>