<svg width="24" height="24" fill="none" xmlns="http://www.w3.org/2000/svg"><circle cx="12" cy="11.999" r="11" fill="#FBFBFB" stroke="#FBFBFB" stroke-width="2"/><path fill-rule="evenodd" clip-rule="evenodd" d="M12 21.999c5.523 0 10-4.477 10-10s-4.477-10-10-10-10 4.477-10 10 4.477 10 10 10zm-.064-16c-2.473 0-4.187.009-5.07.866C6.009 7.748 6 9.539 6 11.935c2.657-.086 3.87-.15 4.843-1.093.943-.973 1.007-2.186 1.093-4.843zm5.198.866c.857.883.866 2.674.866 5.07-2.657-.086-3.87-.15-4.843-1.093-.943-.973-1.011-2.186-1.093-4.843 2.477 0 4.187.009 5.07.866zm-5.07 11.134c.086-2.657.15-3.87 1.093-4.843a3.35 3.35 0 01.073-.069c.961-.877 2.18-.94 4.77-1.024 0 2.396-.009 4.187-.866 5.07-.883.858-2.593.866-5.07.866zm-5.198-.866C6.009 16.25 6 14.46 6 12.063c2.657.086 3.87.15 4.843 1.093.943.973 1.007 2.186 1.093 4.843-2.477 0-4.187-.008-5.07-.866z" fill="#282C33"/></svg>