<svg version="1.0" xmlns="http://www.w3.org/2000/svg" width="136" height="136" viewBox="0 0 102 102"><path d="M36.3 16.2c-.6.7-1.8 3.7-2.8 6.5-1.1 2.9-2.2 5.3-2.5 5.3-.4 0-3.2-.9-6.2-1.9-3-1-6-1.6-6.7-1.2-1 .7-.8 9 .4 12.8.3.8-1.6 1.4-5.3 1.8-9.7 1.1-10 1.6-5.1 9.5 1.7 2.8 3 5.2 2.8 5.4-.2.1-2.8 1.7-5.6 3.5C2.4 59.7 0 61.8 0 62.5c0 .7 2.4 2.8 5.3 4.5 2.8 1.8 5.4 3.4 5.6 3.6.2.2-1.1 2.6-2.8 5.5-5.6 9-8.3 8.4 39 8.4 29.9 0 42 .4 43 1.2 3.2 2.6 6.7 2.6 9.3 0 2.5-2.5 2.6-3.3 1.2-7.4-.6-1.9-3.3-3.6-5.9-3.8-.4 0-3.2-4.2-6.2-9.3L83 55.8l4-6.6c2.2-3.6 4-6.9 4-7.3 0-1-2.2-1.6-8.8-2.4l-5.3-.7.7-6.5c.8-8.1 0-8.9-7.3-6.2-2.9 1.1-5.7 1.8-6.2 1.5-.5-.4-1.7-3-2.7-5.9-.9-2.8-2.2-5.5-2.8-5.9-.6-.4-3.1 1.2-5.6 3.7-2.5 2.5-5 4.5-5.5 4.5-.6 0-2.4-1.5-4-3.3-5-5.2-6.1-5.9-7.2-4.5zM47.9 29c.7 0 3-1.8 5.1-4l3.8-4.1 1.8 4.8c2.7 7.4 3.1 7.6 9.6 5.5l5.7-1.9-.6 6.3c-.7 7.1-.7 7 6.5 7.7 2.3.3 4.5.7 4.8.9.3.3-.5 2.2-1.8 4.3-2 3.6-2.2 3.7-3.1 1.7-.5-1.1-1.6-2.3-2.4-2.7-2.5-.9-10.4 3.6-16 9.1-5.8 5.8-8.5 12.4-7.7 19.7l.4 4.3-22 .1c-24.5 0-23 .5-17.9-6.9 1.1-1.4 1.9-3.1 1.9-3.6s-2.2-2.4-5-4.2c-2.7-1.8-4.8-3.6-4.5-4.1.3-.4 2.3-1.8 4.5-3 2.1-1.2 4.1-2.8 4.4-3.6.3-.7-.8-3.5-2.4-6.1-3.3-5.3-2.8-6 4.1-6.1 4.4-.1 5.9-1.6 5.3-5.2-.2-1.6-.6-4.2-.9-5.8l-.4-3 5.7 2c3.1 1.1 6.1 1.8 6.7 1.5.5-.2 1.9-2.9 2.9-6l1.9-5.7 4.2 4.1c2.2 2.2 4.7 4 5.4 4zm35.4 35.3c7.1 11.8 7.4 12.5 5.8 14.4-1.5 1.9-2.7 2-16.3 2-8.2 0-14.8 0-14.8-.1-.9-2.3-.9-8.3-.1-11.3 1.7-6.1 12.3-17 16.8-17.2.6-.1 4.5 5.5 8.6 12.2zM97.5 80c.4.6.1 1.7-.5 2.5-1.6 1.9-5.2.2-4.4-2 .7-1.7 4-2 4.9-.5z"/><path d="M73.7 64.1c-2.2 1.3-1.3 2.9 1.8 2.9 2.9 0 4.3-1.9 2.4-3.1-1.7-1.1-2-1.1-4.2.2z"/></svg>