<svg id="Слой_1" data-name="Слой 1" xmlns="http://www.w3.org/2000/svg" viewBox="0 0 30 30"><path d="M86.81-3.88h-26a2 2 0 00-2 2v26a2 2 0 002 2h26a2 2 0 002-2v-26a2 2 0 00-2-2zm-9.28 26.06s-.8.14-.81-.42v-3.77c0-.58-.42-1.42-.85-1.56a5.14 5.14 0 005.27-5.31A4.32 4.32 0 0080 7.79a3.59 3.59 0 00-.11-3 5 5 0 00-3.09 1.14 12.23 12.23 0 00-6 0 5 5 0 00-3.09-1.14 3.57 3.57 0 00-.1 3 4.33 4.33 0 00-1.19 3.33 5.14 5.14 0 005.27 5.31c-.43.14-.81 1-.84 1.56-2.12.78-3-.47-3.22-.85a2.56 2.56 0 00-1.34-1.24c-.8-.2-1.49.08-.87.43A3.9 3.9 0 0167 18.16a1.89 1.89 0 001.28 1.31 5.9 5.9 0 002.61.08v2.21c0 .56-.81.42-.81.42A11.36 11.36 0 0173.77 0h.07a11.36 11.36 0 013.69 22.14z" transform="translate(-58.81 3.88)"/></svg>