<svg id="Слой_1" data-name="Слой 1" xmlns="http://www.w3.org/2000/svg" viewBox="0 0 30 30"><path class="cls-1" d="M985.44 525.86h-26a2 2 0 00-2 2v26a2 2 0 002 2h26a2 2 0 002-2v-26a2 2 0 00-2-2zm-4 17.44c1.78 1.67 2.22 2.56 2.22 2.67.67 1.33-1 1.44-1 1.44h-3a2.23 2.23 0 01-1.55-.44c-1.12-.78-2.23-2.78-3-2.56s-.78 2.11-.78 2.11 0 .45-.22.56a1.09 1.09 0 01-.66.22h-1.34a7.72 7.72 0 01-5.67-2.55c-2.89-3-5.45-9-5.45-9s-.11-.45 0-.56a1.13 1.13 0 01.67-.22h3.22a.88.88 0 01.56.22.82.82 0 01.33.34s.56 1.33 1.23 2.55c1.33 2.34 2 2.9 2.44 2.67.67-.33.45-3.33.45-3.33a3.44 3.44 0 00-.34-1.56c-.22-.33-.77-.44-1-.56s.11-.44.56-.66a6.72 6.72 0 012.89-.34 14.53 14.53 0 011.56.12c1.11.22.77 1.33.77 3.89 0 .78-.11 1.89.45 2.33.22.11.89 0 2.45-2.56a13 13 0 001.22-2.66.82.82 0 01.33-.34 1.13 1.13 0 01.45-.11h3.44s1-.11 1.23.33-.34 1.67-1.78 3.45c-2.34 3.1-2.56 2.77-.67 4.55z" transform="translate(-957.44 -525.86)"/></svg>