<?xml version="1.0" encoding="utf-8"?>
<!-- Generator: Adobe Illustrator 25.4.1, SVG Export Plug-In . SVG Version: 6.00 Build 0)  -->
<svg version="1.1" id="Слой_1" xmlns="http://www.w3.org/2000/svg" xmlns:xlink="http://www.w3.org/1999/xlink" x="0px" y="0px"
	 viewBox="0 0 30 30" style="enable-background:new 0 0 30 30;" xml:space="preserve">
<style type="text/css">
	.st0{fill:none;}
</style>
<g>
	<path class="st0" d="M44.8,0.9c0,0.1,0.1,0.2,0.1,0.3v0.5c0,0.3,0.3,0.6,0.6,0.6h4.2c0.3,0,0.6-0.3,0.6-0.6V1.2
		c0-0.1,0-0.2,0.1-0.3C48.2,0.6,46.2,0.7,44.8,0.9z M60.6-9.2h-26c-1.1,0-2,0.9-2,2v26c0,1.1,0.9,2,2,2h26c1.1,0,2-0.9,2-2v-26
		C62.6-8.3,61.7-9.2,60.6-9.2z M59.1,3c0,0.9,0,1.8,0,1.8s-0.4,0.8-1.6,1c-1.2,0.2-1.4,0.2-2.5,0c-1-0.2-1.3-0.7-1.3-0.7V2.7
		l-0.2-0.1c0,0,0-1.1-0.5-1.3c-0.1,0-0.2,0-0.3-0.1l0,3.6c3.9,5.1,3.7,8.6,3.7,8.6H38.9c0,0-0.1-3.5,3.7-8.6l0-3.6
		c-0.1,0-0.2,0.1-0.2,0.1c-0.6,0.4-0.6,1.3-0.6,1.3s0.1,0.1-0.1,0.2c0,0.9,0,2,0,2s-0.4,0.8-1.6,1c-1.2,0.2-1.4,0.2-2.5,0
		c-1-0.2-1.3-0.7-1.3-0.7V3l-0.1,0c-0.3-0.2,0.4-2,1-2.8c0.5-0.7,1.8-1.1,2.6-1.3c0.7-0.2,4.8-0.8,7.7-0.8c3,0,7.3,0.6,8,0.8
		c0.8,0.2,2.1,0.6,2.6,1.3S59.3,2.8,59.1,3z"/>
</g>
</svg>
