<svg id="Слой_1" data-name="Слой 1" xmlns="http://www.w3.org/2000/svg" viewBox="0 0 30 30"><path class="cls-1" d="M1672.35 440.68h-26a2 2 0 00-2 2v26a2 2 0 002 2h26a2 2 0 002-2v-26a2 2 0 00-2-2zM1659.43 467a11.37 11.37 0 01-5.51-1.41l-6.07 1.57 1.67-5.9a11.27 11.27 0 01-1.52-5.68 11.43 11.43 0 1111.43 11.42zm5.59-8.83c-.61-.33-2.21-1.08-2.53-1.2a.38.38 0 00-.44.13s-.75.94-.9 1.11a.49.49 0 01-.64.17 7.88 7.88 0 01-3.89-3.38 1.12 1.12 0 01-.1-.29c0-.17.2-.29.67-.9s.19-.91.19-.91l-.61-1.54a5.81 5.81 0 00-.42-.87.86.86 0 00-.35-.18 1.68 1.68 0 00-1.4.3c-.47.51-2 2.06-.09 5.05 2.59 4.07 5.48 4.81 6.49 5.11a4.4 4.4 0 002.34.16 4 4 0 001.28-.78 1.68 1.68 0 00.4-.67 3.57 3.57 0 00.15-.92s.02-.29-.17-.37z" transform="translate(-1644.35 -440.68)"/></svg>