<svg width="52" height="53" fill="none" xmlns="http://www.w3.org/2000/svg"><path d="M19.5 24.783c8.975 0 16.25-3.274 16.25-7.312 0-4.039-7.275-7.313-16.25-7.313S3.25 13.432 3.25 17.471c0 4.038 7.275 7.312 16.25 7.312z" stroke="#FBFBFB" stroke-linecap="round" stroke-linejoin="round"/><path d="M3.25 17.47v8.126c0 4.042 7.272 7.312 16.25 7.312s16.25-3.27 16.25-7.312V17.47M13 24.174V32.3" stroke="#FBFBFB" stroke-linecap="round" stroke-linejoin="round"/><path d="M35.75 20.05c7.414.691 13 3.636 13 7.17 0 4.043-7.272 7.313-16.25 7.313-3.981 0-7.637-.65-10.46-1.706" stroke="#FBFBFB" stroke-linecap="round" stroke-linejoin="round"/><path d="M16.25 32.766v2.58c0 4.042 7.272 7.312 16.25 7.312s16.25-3.27 16.25-7.312V27.22M39 33.924v8.125M26 24.174V42.05" stroke="#FBFBFB" stroke-linecap="round" stroke-linejoin="round"/></svg>