<svg width="314" height="213" fill="none" xmlns="http://www.w3.org/2000/svg"><path d="M5.339 25.106C.459 34.194-.02 45.133 3.356 57.178c3.377 12.049 10.605 25.173 21.09 38.578 20.97 26.807 54.909 54.659 96.853 77.177 41.945 22.518 83.912 35.416 117.843 38.081 16.966 1.333 31.898.106 43.806-3.737 11.905-3.842 20.758-10.286 25.637-19.374 4.878-9.088 5.358-20.027 1.982-32.073-3.377-12.048-10.604-25.172-21.09-38.577-20.97-26.807-54.908-54.66-96.853-77.177C150.679 17.558 108.712 4.66 74.781 1.994 57.815.662 42.883 1.89 30.975 5.732 19.07 9.574 10.217 16.018 5.339 25.106z" stroke="url(#paint0_linear_1879_20938)"/><defs><linearGradient id="paint0_linear_1879_20938" x1="309.025" y1="188.139" x2="4.898" y2="24.869" gradientUnits="userSpaceOnUse"><stop stop-color="#22BAFB"/><stop offset=".234" stop-color="#64EEB4"/><stop offset=".547" stop-color="#FFF5DD"/><stop offset=".654" stop-color="#C8F3F9"/><stop offset="1" stop-color="#184CD1"/></linearGradient></defs></svg>