<svg version="1.0" xmlns="http://www.w3.org/2000/svg" width="2045.333" height="2045.333" viewBox="0 0 1534 1534"><path d="M763 2.1c-3 .4-10.2 1.6-16 2.4-17.8 2.8-38.3 7.3-55.3 12.1-23.6 6.7-25.9 7.3-40.7 10.3-11.7 2.4-14.1 3.2-18.1 6.2-2.5 2-8.2 5.5-12.5 7.9-11.8 6.4-16 9.5-25.5 18.5-5.9 5.7-9.9 8.7-13.2 9.8-2.6 1-6.6 2.4-9 3.2-2.3.8-9.9 5.7-16.7 10.9-22.6 16.9-37.8 31.1-80.6 75.3-21.6 22.3-24.9 26.1-27.9 32.5-1.9 4-3.5 8-3.5 8.8 0 4.7-3.6 11.5-9.7 18.2-4.1 4.5-7.8 10-9.8 14.3-1.8 3.8-5.8 10.1-8.9 14-3 3.8-6.5 9.5-7.7 12.5-1.2 3-6.1 14-11 24.5-4.8 10.4-9.7 22.6-10.9 27-2.9 10.2-4.2 14.4-7.4 22.8-3.6 9.4-5.3 20.4-7.1 45.7-.8 11.8-2 27.1-2.6 34-2.5 27.9 1.1 70.1 10.1 118.5 4.3 23 11.9 66.5 13.5 77 1.1 6.9 2.4 10.9 5.7 17.3 4.2 8.2 4.2 8.3 2.2 10.2-1.5 1.6-3.9 2.1-11.4 2.6-13.8 1-19 4.2-24.5 15.1-3.1 6.4-4.2 13.7-2.6 18.6.7 1.9 4.6 7.3 8.7 11.9 8.8 9.8 14.7 20.8 17 31.8 1.3 6.2 1.5 10.4.8 24.5-.5 9.3-.8 32.7-.7 52l.3 34.9 3 6.2c1.6 3.4 4 10.8 5.4 16.5 1.4 5.7 5.7 21.2 9.6 34.4 8.2 27.4 13 45.8 13 49.6 0 1.5-.9 3.7-1.9 5l-1.9 2.4 5.8 1.7c6 1.9 21.8 11.6 25.7 15.9 3.9 4.2 5.2 9.2 6.3 23.9 2 26.6 6.3 51 15 84.5 10.9 41.9 18.5 58.9 48.5 106.8 21.1 33.9 22.7 36.8 25.5 46.8 5.3 19.4 0 47-11.3 58.8-5.1 5.2-23 19.7-38.5 31-20.5 14.9-33.2 22.7-43.2 26.4-13.9 5.1-13.6 7.2 2.2 14.1 10 4.4 13.7 7.9 35.2 33.1 29 34 30.9 36 45.4 48.2 2.7 2.3 8.9 9.4 13.7 15.8 4.8 6.3 10.6 12.8 12.8 14.4 16.4 11.2 89.7 40.4 139.9 55.6 29.5 9 59.3 15.6 69.5 15.5 2.7-.1 2.6-.2-2.6-5.1-2.9-2.7-8.9-6.8-13.3-9-8.4-4.2-13.8-8.6-21.9-18-6.2-7.1-7.6-12.9-5.9-24.7 1.5-11.1 4.2-16 11-19.7 4.7-2.6 5.5-3.5 6.2-7 .5-2.2 1.9-5 3.1-6.3 3-3.3 10.8-7.1 19.2-9.4 3.8-1.1 9.9-3.5 13.4-5.5 6.3-3.5 6.5-3.5 34-6.4 15.2-1.6 36.8-3.6 48.1-4.5 11.3-.8 24.2-2.4 28.8-3.4 5.3-1.3 11.9-2 18.1-2 13 0 19.6-1.3 24.9-5 3.5-2.5 5-2.9 7.6-2.4 1.8.3 8.1-.1 14-1 9-1.4 12.7-2.5 22.6-7.1 9.4-4.4 13.9-5.8 21.7-7.1 21.4-3.4 22.8-3.8 38.8-13.4 29.4-17.4 35.5-21.4 41.9-27.2 8.2-7.4 25.7-27.1 36.8-41.3 4.7-6.1 11-13.6 14.1-16.7 4.9-4.9 5.9-6.7 8.1-14 3-9.7 6.4-15.4 13-21.8 6.9-6.6 6.2-10-2.4-11.9-6.5-1.5-8.1-3.9-7.3-11.2 1-9.7-3.2-11.9-9.7-4.9-3.2 3.4-4.3 4-7.9 4-8.7 0-12.5 3.4-16 14.1-1.8 5.7-7.3 11.3-14.1 14.3-5.1 2.3-6.1 3.1-5.8 4.9.2 1.8 1.8 2.7 7.9 4.7 4.2 1.4 8.7 3.3 10 4.3 2.4 1.7 2.4 1.7-2.2 1.1-3.5-.4-5.8-.1-9.8 1.6-7.1 3.1-10.1 6.9-10.1 12.9 0 2.6-.5 5.2-1.2 5.9-.7.7-4 1.2-7.8 1.2-8.6 0-10.4 1.6-10.4 9.8l-.1 5.7-12.5 6.2c-14.6 7.3-16.4 9-15.6 14.8.7 4.7.2 5.7-4.1 7.9-4.6 2.3-9.8 7.8-14.9 15.7-2.5 3.8-5.4 7.5-6.6 8.4-3.6 2.5-11.7 2-16-1-6-4.1-9.2-4.3-12.5-.8-1.5 1.6-3.6 4.3-4.5 6.1-2.2 4.1-5.5 5.5-22.8 9.8-7.4 1.8-16.1 4.2-19.2 5.4-9.8 3.4-24.4 2.4-33.8-2.5-1.9-1-5.3-3.3-7.5-5.2l-4-3.4-7.7.7c-6.6.6-8.3.4-12-1.5-2.4-1.1-5.4-3.5-6.7-5.2-3.4-4.6-7.8-6-15.9-5.3-3.8.4-7.6.3-8.4-.2-.9-.5-4.3-4.5-7.5-8.9-8.1-10.8-13.9-17.2-22-23.8-5.7-4.6-7.6-5.6-11.3-5.9-4.1-.3-4.6-.7-8.5-6.3-2.7-4-6.5-7.7-11.5-11.3-11.8-8.3-15.4-11.6-23.1-20.8-3.9-4.7-10.5-11-14.5-14-6.6-4.9-7.8-6.3-11-13-3-6.4-5.5-9.5-16.4-20.4-14.3-14.3-20-21.1-23.5-27.9-1.3-2.5-4.3-6.7-6.7-9.2-2.4-2.5-6.8-8.8-9.8-13.9-3-5.2-7.5-11.5-10-14l-4.4-4.5-.2-8c-.1-5.8-1-10.7-3.3-17.8-3-9.7-3.3-14.8-.7-16.5.6-.4 3.8-.7 7.1-.7 5.6 0 6-.2 8-3.2 2.4-3.9 3.1-4 5.5-1l1.8 2.2 3.1-2.9c1.7-1.7 3.1-3.8 3.1-4.9 0-1-2-5.6-4.5-10.1-4.9-9-5.2-10.9-3.1-16.1 1.1-2.7 2.1-3.5 4-3.5s2.7.8 3.7 3.7c1.8 5.7 2.7 6.3 7.9 6.2 5.9-.2 6.7.3 8 5.1 1.1 4.2-.1 8.2-3.4 10.9-3.2 2.7-.8 3.9 7.7 3.7 10.1-.1 11.6.7 30.2 16 9.5 7.8 15.5 11.9 22.1 15 6 2.9 12.1 6.9 17.5 11.5 18.7 15.8 37.9 22.3 74.9 25.4 10.2.8 23.3 2.2 29.1 3.1 8.6 1.3 11.7 1.4 16.2.4 11-2.2 26.1-15 25.5-21.4-.5-5.2-5.6-6.9-21.8-7.4-11.9-.4-14.5-.2-21.5 1.8-4.4 1.3-11 2.3-14.6 2.3-6 .1-7.5-.4-19.5-6.1-7.1-3.4-14.5-6.5-16.4-6.8-4.7-.9-8-3-8-5.4 0-1 1.8-4 4-6.5l4-4.6-.3-8c-.2-7.7-.1-8.2 2.6-10.5 2.3-2 3.9-2.4 9.2-2.4 3.5 0 9.9-.7 14.2-1.6 4.3-.8 14.1-1.9 21.8-2.3 9.9-.6 17.7-1.7 26.5-3.9 6.9-1.7 15.2-3.4 18.5-3.7 6.7-.8 9.5-2.6 9.5-6.1 0-1.3-.8-2.7-1.7-3.2-3.1-1.6-16-4.2-21-4.2-5.5 0-12.9-3.2-24-10.3-28.8-18.5-44.4-19.2-90.3-4.2-28.5 9.3-38.5 10-55.8 3.6-4.7-1.8-10.3-3.1-12.8-3.1-4.1 0-5.1.5-10 5.1-6.2 5.9-8.7 6.4-18.6 3.4-6.4-1.8-6.8-2.7-3.8-7.9 1.7-2.7 2-4.4 1.4-8.3-.8-6.2.7-9.8 7.4-18.2 5.8-7.2 6.4-9.6 2.7-11.3-3.1-1.4-4.8-.1-8.1 6.4-1.3 2.6-3.3 5.2-4.4 5.8-1.7.9-2.3.5-4.5-3-1.4-2.2-4-4.7-5.8-5.5-4.2-1.8-15.5-5.5-18.9-6.2-2.8-.5-2.8-.5-2.8 5 0 7.9-1.8 9.3-12 9.9l-4.5.3-.5 13.6c-.6 13-.7 13.9-4 20.5-3 5.8-3.9 7-6.3 7.2-3.5.4-8.7-3-15.5-10.2-6.5-6.9-8.4-10.8-13.7-28.5-2.4-8.1-7.5-23.5-11.3-34.2-3.8-10.7-7.5-21.2-8.2-23.4-2.8-8.8-16.1-33.5-21-38.8-6.1-6.7-7-9-7-17.8 0-8.2-1.5-11.6-9-20.4-2.8-3.3-6.8-9.2-8.9-13-2.2-3.9-5.4-9.7-7.2-13-3.2-5.6-3.4-6.5-3-13.5.3-4.1.4-13.1.4-20 0-10.9-.3-13.4-2.6-19.8-3.7-10.5-9.8-20.7-18.8-31.2-10.1-11.8-11.5-14.2-12.9-22-1.5-8.7-3.6-13-10.7-22.5-3.2-4.4-6.2-8.7-6.5-9.7-.7-1.8 1.2-3.8 5.4-5.6 1.5-.6 3.5-2.3 4.4-3.7 2.3-3.6 9.2-7.4 14.5-8.1 3-.4 8.4.2 16 1.7 9.5 1.9 14.6 2.3 30.4 2.4h19l9.5-5c5.2-2.7 16.1-8.2 24.1-12.1 17.8-8.7 18.9-9.9 18.9-19.9 0-9.1 1.1-10.4 7.6-8.7 5.7 1.5 10.6-.3 12.9-4.8 1.5-2.9 1.5-3.3 0-5-.9-1-3.1-2.1-4.8-2.4-1.8-.3-5.3-1.7-7.9-3.1-2.6-1.4-5.9-2.5-7.3-2.5-1.8 0-2.8-.7-3.5-2.5-1.3-3.4.4-7.9 2.8-7.2 9.5 3 14.2 3.9 23.4 4.4 22.8 1.2 35.4-4.8 44.1-21.2 4.7-8.9 7.2-9.5 23.4-6 4.4 1 6.3 4.3 6.3 11.2 0 5.4.4 6.8 2.5 8.8 1.5 1.5 3.6 2.5 5.4 2.5 1.6 0 3.6.3 4.5.6 2.8 1.1 1.9 5.9-1.9 10.4-4.9 5.9-4.6 7.5 2 10.5 11.6 5.1 13.8 7.8 15.4 19.5.9 6.4 1.6 8.3 6.1 14.7 15.5 22.2 18 44.8 8 71.3-2.5 6.7-2.8 8.7-2.7 18 .1 12.1-1.3 17.7-7.3 28-2.1 3.6-4.6 8.9-5.6 11.9-1.5 4.4-3.7 7.3-11.4 15.1-6.7 6.9-11.7 13.2-17 21.6-4.1 6.5-10 15.9-13.2 20.8-5.2 8-5.8 9.4-5.8 14.2 0 4.3.8 6.8 4.4 13.6 2.3 4.5 5 8.6 5.8 9.2 1 .6 3.2.1 7.1-1.7 4.2-1.9 6.6-2.4 9.6-2 3.4.5 4.1.3 4.1-1.1 0-1-1.4-3-3.2-4.6-3-2.8-3.1-3-2-6.9 1-3.3 1-4.6-.4-8-1.8-4.7-1.6-8 .8-9.5 2.4-1.4 6.6 1.7 9.8 7.5 2.1 3.7 2.5 5.7 2.4 12.4 0 8.6-1.9 13.9-6.4 18-3.1 2.8-4 4.8-5.1 11.6-1.3 7.8-.3 9.4 5.8 10.3 2.6.3 8.2 2.3 12.3 4.4l7.5 3.7 14.7-.3c11.6-.2 16.8.1 25.3 1.7 5.8 1.2 14.4 2.1 19.1 2.1 10.2 0 16.4-2.2 37.1-13.1 9.9-5.1 14.2-6.9 17.2-6.9 3.4 0 4.4-.5 7.1-4 4.2-5.3 5.1-5.7 16.9-7.5 16-2.4 25.1-6.8 25.1-12.1 0-3.5-2.2-4.6-7.7-3.8-5 .6-9.4-.8-13.4-4.2-.9-.8-6-3.8-11.5-6.7-9.9-5.3-9.9-5.3-14-12.9-5.8-10.7-10-15.5-22.2-25-5.9-4.6-12.3-9.9-14.3-11.8l-3.6-3.5-.6-14c-.3-7.7-1-15.3-1.7-16.9-1-2.6-.7-3.5 2.3-8.5 5.4-8.8 7.5-13.4 9.5-20.7 1.3-4.7 3.6-9.5 7.4-15 10.8-15.8 12.7-24.2 12.7-55.9-.1-19.4-.4-25.8-2-33.5-1-5.2-2.8-15.4-3.9-22.5-5.8-36-10-55.7-14.3-66.1-5.1-12.7-16.3-26.9-29.1-37-9.2-7.3-35.7-21.3-45.4-24-6.8-1.9-7.5-2.7-8.6-8.9-.4-2.2-2.3-6.8-4.2-10.3-1.9-3.4-3.4-6.4-3.4-6.5 0-.2 1.6-.1 3.5.1s4.2-.1 5-.8c2.4-2 1.8-6.8-1.1-9.7-2.1-2.1-3.2-2.4-6-2-3 .5-4.1.1-7.3-2.9-7.2-6.5-9.1-4.2-6.7 7.9.9 4.5 1.6 10.2 1.6 12.7 0 10-7.8 14.9-11.8 7.4-.8-1.6-.7-2.7.9-5 2.7-4.1 2.4-6.2-1.6-10-3.7-3.4-3.3-4.8 1.2-4.2 3.4.4 5.1-2.1 3.6-5.5-1.6-3.5-15.6-10.3-22.8-11.2-3.4-.5-8.7-.2-13.3.6-4.2.7-12.9 1.2-19.2 1-11.9-.2-13.5.1-37 6.9-8.9 2.6-15.9 2.4-27.1-.5-10.9-2.9-15.5-3.1-22.3-1-10.2 3.1-17.3 1.7-24.8-5-3.4-3.2-3.9-3.3-9.5-2.8-7.4.7-8.1-.1-8.7-9.8-.5-9.1-2.6-13.7-10.1-21.9-6.6-7.2-7.2-9.9-4.6-20.2 2.8-10.7 6.4-17.4 13.2-24 6.2-6 7.3-9 3.9-10.8-2.4-1.3-4.8-.2-10.3 4.6-4.5 4.1-7.2 4.6-5.6 1.1.7-1.6.7-4 .1-7.6-1.2-6.8-.1-11.9 4.4-19.2 1.8-3.1 3.4-6.6 3.4-7.8 0-1.2-1.9-4.2-4.2-6.7l-4.1-4.5 1.6-3.5c2.3-4.7 2.2-5.9-1.3-13.2-2.9-6.2-3.8-11.5-2.2-13.8 1.3-2 5-3.4 9-3.4 4.8 0 6-1.3 6.7-7 .3-2.4 2-6.7 3.7-9.4 1.9-3.2 3.3-6.9 3.6-9.9.5-5.1.2-4.9 8.7-6.2 5.5-.9 10.8-4.6 13-9.1 1-2.1 2-7 2.3-10.9.3-4 1.3-8.6 2.3-10.7 2.1-4.2 2.1-4.1-4-8.7l-2.5-1.8 2.7-3.2c2.5-3 2.6-3.4 1.3-5.9-.8-1.5-2.6-3.8-4-5.1-1.5-1.4-4-4.7-5.7-7.3-4.4-6.8-3.9-12.7 2.1-22.9 5.2-9.1 6.3-15.4 3.1-18.3-2.8-2.5-2.7-3.1.9-4.6 3.7-1.5 5-3.6 4.3-7.1-.2-1.4.5-5.3 1.6-8.7 1.9-5.5 2-6.6.8-9.5-.8-1.7-2.1-3.8-3-4.5-2.6-2.2-8-2.5-12.1-.8-5.4 2.3-6.3 1-2.3-3.3 1.9-2 3.8-5.2 4.2-7.1 1-5.1 4.9-11.3 9-14.4 5.7-4.4 9.6-5.6 17.7-5.3 6.7.2 8-.1 14.8-3.5 5.8-2.9 9.9-4.1 18-5.3 13.8-2 20.6-3.8 31-8.1 20.2-8.5 21.1-8.6 43.5-7.6 11 .5 20.7 1.2 21.6 1.6 1.1.5 2.4 0 3.6-1.3 3.1-3.3 7.2-4.3 15-3.6 5.7.5 9 .2 16-1.6 11.6-2.9 20.3-2.8 32.3.4 15.8 4.3 24 5.1 48.5 5.2 26.1 0 27.9-.3 47-7.5 9.5-3.5 17.5-5.7 29.6-7.9 27.6-5.1 41.6-11 56.8-24.1l8.3-7.2 20.1-3c17-2.5 22.3-2.9 33.5-2.5 11.4.4 13.4.2 14-1.1 1.2-3.1-10-11.1-21.8-15.6-4.1-1.6-18.1-7.5-31-13.1-12.9-5.6-27.8-11.9-33.2-13.9-19-7.1-50.9-14.8-85.4-20.6-17.8-3-17.9-3-56.4-2.9-21.2.1-41 .5-44 1zM662.9 577.9c3.2.9 6.4 5.2 5.5 7.4-1 2.7-4.9 4.3-17.4 7-13.7 3.1-27.8 4.7-41.7 4.8-9.8.1-10.5 0-18.3-3.6-4.4-2.1-8-4.1-8-4.5 0-2.2 22.2-8.3 36-9.9 16.5-1.9 39.1-2.6 43.9-1.2zm30.1 25.2c7.7 2.1 15.2 5.4 22.8 10.3 3.3 2 4.2 3.2 4 4.9-.5 3.7-4.5 4.2-19.1 2.8-7.2-.7-28.8-1.6-47.9-1.8-40.1-.6-42.3-1-32-6.2 8.7-4.4 19.9-7.9 32.7-10.1 18.1-3.2 26.9-3.2 39.5.1z"/><path d="M1035.8 476c-9 1.5-21.8 8.9-21.8 12.6 0 .6.9 2.3 2 3.7 1.1 1.4 2 3.2 2 4 0 1.9-4.2 3.5-4.8 1.8-.9-2.8-3.5-4.2-6.1-3.4-3.3 1-12.9.9-15.8-.1-1.8-.7-2.6-.2-4.3 2.5-3.5 5.8-2.1 7.1 5.4 5.3 2.8-.7 2.9-.6 2.2 2.2-1.9 7.6-1.8 8.2.2 9.3 2.9 1.6 4.3.8 10.7-6.5 3.1-3.6 5.9-6.3 6.2-6.1.2.3-.5 2.4-1.7 4.7-1.2 2.4-2.2 6.3-2.3 8.8 0 3.8.4 4.9 2.8 7 2.7 2.2 3.4 2.4 9.8 1.7 3.9-.3 14.3-.1 23.1.6 14.3 1.1 17 1 23.5-.4 7-1.6 7.6-1.6 15 .2 12.7 3.3 17.3 3.6 25 1.6 6.4-1.7 7.1-1.7 11-.2 5.4 2.2 7.5 2.1 12.8-.5 3.9-2 4.7-2.1 7.6-.9 9.4 3.9 12 3.9 21.4 0 3.9-1.6 4.5-1.1 5.2 4.4.5 3.6 1 4.2 3.2 4.5 3.6.4 5.9-2.2 5.9-6.7 0-6.7-1.8-9.9-7.9-14-16-10.8-27.2-13.7-42.5-11-7.2 1.3-15.4.2-17-2.3-.8-1.3-.6-2.6.8-5.5l1.8-3.8-3.9-3.3c-2.1-1.9-5.8-4.7-8.2-6.3l-4.5-2.9-15.5.6c-12 .5-17.6.2-24.5-1-9.6-1.7-9.9-1.7-16.8-.6zm-14.3 82.1c-27.2 3.6-32.6 4.8-41.7 9.6-4.8 2.6-8.8 5.1-8.8 5.7 0 .6 1.8 2.8 4 5 5.6 5.4 6.3 8.8 5.2 26.1-1 16-2.2 19.3-8.3 23.2-6.9 4.5-7.9 5.4-7.9 7.7 0 5.7 8.2 8.1 24.3 7.3 13.2-.6 20.9-2.7 25-6.8 2.7-2.8 2.9-3.4 2.3-7.9-.6-4.5-.4-5.1 1.9-6.6 3.6-2.3 7.7-.4 10.9 5 5.6 9.5 14.5 14.9 27.8 16.9 13 1.9 24-1.4 32.6-9.7 4.5-4.3 10.1-13.5 12.2-19.8.6-2.1 1.5-4 2-4.3.5-.3 6 2.2 12.2 5.6 21.5 11.9 23.3 12.8 31 14.8 10 2.7 11.2 2.6 13.7-.5 2.6-3.3 2.7-9 .4-14-2.1-4.3-9.4-8.3-25.3-13.9-23.5-8.1-46.1-10.9-89.3-10.8-34.7.1-36.4-.4-21.4-6.1 4.2-1.7 5.1-4.6 1.3-4.6-3.5 0-5-2.3-2.8-4.3 5.1-4.6 22.3-8 48.8-9.7 19.3-1.3 25.6-.7 46.4 4 17.5 3.9 21.7 4.5 23.5 3 1.9-1.6 1.9-4.4.1-6-2.1-1.7-19.2-5.6-32.7-7.5-13.4-1.9-76.1-2.9-87.4-1.4zM995 1079.9c-3.6 1.1-8.4 2.5-10.8 3.2-4 1.2-4.7 1.2-8.6-.9l-4.3-2.3-5.4 2.1c-3.1 1.3-8.4 2.3-12.4 2.5-3.8.2-7.3.4-7.7.4-1.4.2-2.9 4.2-2.3 6.1.9 2.9 3.8 3.3 10.7 1.3 5.7-1.6 10.4-1.7 48.1-1.4 42.9.3 44.7.2 44.7-3.5 0-.8-.9-2.3-2-3.4-1.7-1.7-3.3-2-11.4-2-5.8 0-11-.6-13.7-1.5-7.2-2.6-17.4-2.8-24.9-.6z"/></svg>