<svg width="323" height="138" fill="none" xmlns="http://www.w3.org/2000/svg"><path d="M321.225 39.925c1.58 8.154-1.188 16.813-7.783 25.544-6.596 8.732-16.957 17.446-30.345 25.637-26.772 16.378-65.464 30.552-109.729 38.597-44.264 8.045-85.631 8.422-116.714 2.559-15.545-2.932-28.464-7.414-37.881-13.236-9.417-5.821-15.239-12.919-16.82-21.073C.373 89.8 3.141 81.14 9.736 72.41c6.596-8.732 16.957-17.446 30.345-25.637C66.853 30.394 105.546 16.22 149.81 8.175c44.264-8.046 85.631-8.422 116.714-2.56 15.545 2.933 28.464 7.415 37.881 13.237 9.417 5.821 15.239 12.919 16.82 21.073z" stroke="url(#paint0_linear_1544_12609)" stroke-width="2"/><defs><linearGradient id="paint0_linear_1544_12609" x1=".97" y1="98.132" x2="321.482" y2="36" gradientUnits="userSpaceOnUse"><stop stop-color="#22BAFB"/><stop offset=".234" stop-color="#64EEB4"/><stop offset=".547" stop-color="#FFF5DD"/><stop offset=".654" stop-color="#C8F3F9"/><stop offset="1" stop-color="#184CD1"/></linearGradient></defs></svg>