<svg width="411" height="278" fill="none" xmlns="http://www.w3.org/2000/svg"><path d="M404.558 31.93c6.422 11.962 7.048 26.352 2.613 42.175-4.436 15.826-13.927 33.055-27.685 50.644-27.516 35.177-72.042 71.715-127.063 101.253-55.022 29.538-110.078 46.46-154.601 49.958-22.263 1.749-41.867.139-57.509-4.908-15.638-5.047-27.287-13.519-33.709-25.482-6.422-11.963-7.047-26.353-2.612-42.176 4.435-15.826 13.926-33.055 27.685-50.644 27.516-35.177 72.042-71.715 127.063-101.253 55.021-29.538 110.078-46.46 154.601-49.958 22.262-1.749 41.866-.14 57.508 4.909 15.639 5.046 27.287 13.518 33.709 25.481z" stroke="url(#paint0_linear_2309_12596)"/><defs><linearGradient id="paint0_linear_2309_12596" x1="6.164" y1="245.806" x2="404.999" y2="31.693" gradientUnits="userSpaceOnUse"><stop stop-color="#22BAFB"/><stop offset=".234" stop-color="#64EEB4"/><stop offset=".547" stop-color="#FFF5DD"/><stop offset=".654" stop-color="#C8F3F9"/><stop offset="1" stop-color="#184CD1"/></linearGradient></defs></svg>