<svg width="365" height="397" fill="none" xmlns="http://www.w3.org/2000/svg"><path fill="#35405C" d="M0 .337h365v396.326H0z"/><path d="M95.536 237v-81.989h12.095V237H95.536zm58.335 1.047c-6.435 0-12.328-.814-17.677-2.443-5.35-1.705-9.886-4.07-13.607-7.094l3.838-9.536c3.876 2.946 8.024 5.156 12.443 6.629 4.42 1.473 9.42 2.21 15.003 2.21 6.59 0 11.436-1.163 14.537-3.489 3.179-2.404 4.768-5.505 4.768-9.304 0-3.101-1.124-5.543-3.373-7.327-2.248-1.86-6.008-3.333-11.28-4.419l-12.444-2.558c-7.366-1.551-12.87-4.11-16.514-7.676-3.567-3.566-5.35-8.373-5.35-14.421 0-4.884 1.279-9.187 3.838-12.909 2.636-3.721 6.28-6.59 10.932-8.606 4.652-2.093 10.001-3.14 16.049-3.14 5.582 0 10.738.853 15.467 2.559 4.807 1.628 8.877 4.032 12.211 7.21l-3.954 9.188c-6.59-5.815-14.537-8.722-23.841-8.722-5.737 0-10.311 1.279-13.723 3.837-3.333 2.559-5 5.97-5 10.234 0 3.257 1.046 5.854 3.14 7.792 2.093 1.938 5.582 3.412 10.466 4.419l12.328 2.559c7.753 1.628 13.529 4.148 17.328 7.559 3.799 3.334 5.698 7.87 5.698 13.607 0 4.807-1.279 8.994-3.837 12.56-2.559 3.566-6.164 6.357-10.816 8.373-4.652 1.939-10.195 2.908-16.63 2.908zm80.601 0c-7.83 0-14.614-1.706-20.352-5.117-5.737-3.489-10.195-8.374-13.374-14.654-3.101-6.357-4.652-13.8-4.652-22.329 0-8.606 1.551-16.048 4.652-22.328 3.179-6.28 7.637-11.126 13.374-14.538 5.738-3.411 12.522-5.117 20.352-5.117 7.753 0 14.498 1.706 20.236 5.117 5.815 3.412 10.273 8.258 13.374 14.538 3.179 6.28 4.768 13.684 4.768 22.212 0 8.606-1.589 16.088-4.768 22.445-3.101 6.28-7.559 11.165-13.374 14.654-5.738 3.411-12.483 5.117-20.236 5.117zm0-10.467c8.141 0 14.46-2.752 18.957-8.257 4.574-5.582 6.861-13.374 6.861-23.376 0-10.001-2.248-17.754-6.745-23.259-4.497-5.505-10.855-8.257-19.073-8.257-8.141 0-14.498 2.752-19.072 8.257-4.497 5.505-6.746 13.258-6.746 23.259 0 10.002 2.249 17.794 6.746 23.376 4.574 5.505 10.931 8.257 19.072 8.257z" fill="#1C2337"/><path d="M25.75 21.75L31 27l5.25-5.25M31 13v14m11 0v7a1 1 0 01-1 1H21a1 1 0 01-1-1v-7" stroke="#1C2337" stroke-width="2" stroke-linecap="round" stroke-linejoin="round"/></svg>