<svg width="365" height="397" fill="none" xmlns="http://www.w3.org/2000/svg"><path fill="#35405C" d="M0 .337h365v396.326H0z"/><path d="M104.866 238.047c-6.435 0-12.328-.814-17.677-2.443-5.35-1.705-9.885-4.07-13.607-7.094l3.838-9.536c3.876 2.946 8.024 5.156 12.444 6.629 4.419 1.473 9.42 2.21 15.002 2.21 6.59 0 11.436-1.163 14.537-3.489 3.179-2.404 4.768-5.505 4.768-9.304 0-3.101-1.124-5.543-3.372-7.327-2.249-1.86-6.009-3.333-11.281-4.419l-12.444-2.558c-7.365-1.551-12.87-4.11-16.514-7.676-3.566-3.566-5.35-8.373-5.35-14.421 0-4.884 1.28-9.187 3.838-12.909 2.636-3.721 6.28-6.59 10.932-8.606 4.652-2.093 10.001-3.14 16.049-3.14 5.582 0 10.738.853 15.467 2.559 4.807 1.628 8.878 4.032 12.211 7.21l-3.954 9.188c-6.59-5.815-14.537-8.722-23.84-8.722-5.738 0-10.312 1.279-13.723 3.837-3.334 2.559-5.001 5.97-5.001 10.234 0 3.257 1.047 5.854 3.14 7.792 2.093 1.938 5.582 3.412 10.467 4.419l12.327 2.559c7.753 1.628 13.529 4.148 17.328 7.559 3.799 3.334 5.699 7.87 5.699 13.607 0 4.807-1.28 8.994-3.838 12.56-2.559 3.566-6.164 6.357-10.816 8.373-4.652 1.939-10.195 2.908-16.63 2.908zm83.393 0c-8.916 0-16.437-1.667-22.562-5.001-6.125-3.411-10.777-8.257-13.955-14.537-3.102-6.28-4.652-13.762-4.652-22.445 0-8.606 1.589-16.049 4.768-22.329 3.179-6.358 7.792-11.242 13.839-14.654 6.047-3.411 13.297-5.117 21.747-5.117 5.815 0 11.204.853 16.166 2.559 4.962 1.706 9.11 4.148 12.443 7.327l-4.303 9.42c-3.721-3.102-7.52-5.311-11.397-6.629-3.876-1.396-8.179-2.094-12.909-2.094-9.071 0-15.971 2.753-20.7 8.257-4.73 5.428-7.094 13.181-7.094 23.26 0 10.311 2.403 18.142 7.21 23.492 4.884 5.349 12.172 8.024 21.864 8.024 5.892 0 11.746-.969 17.56-2.907v-21.98h-20.002v-9.072h30.12v38.611c-3.489 1.706-7.83 3.101-13.025 4.187-5.117 1.085-10.156 1.628-15.118 1.628zm74.016 0c-6.435 0-12.328-.814-17.677-2.443-5.35-1.705-9.885-4.07-13.607-7.094l3.838-9.536c3.876 2.946 8.024 5.156 12.444 6.629 4.419 1.473 9.42 2.21 15.002 2.21 6.59 0 11.436-1.163 14.537-3.489 3.179-2.404 4.768-5.505 4.768-9.304 0-3.101-1.124-5.543-3.373-7.327-2.248-1.86-6.008-3.333-11.28-4.419l-12.444-2.558c-7.365-1.551-12.87-4.11-16.514-7.676-3.567-3.566-5.35-8.373-5.35-14.421 0-4.884 1.279-9.187 3.838-12.909 2.636-3.721 6.28-6.59 10.932-8.606 4.652-2.093 10.001-3.14 16.049-3.14 5.582 0 10.738.853 15.467 2.559 4.807 1.628 8.877 4.032 12.211 7.21l-3.954 9.188c-6.59-5.815-14.537-8.722-23.841-8.722-5.737 0-10.311 1.279-13.723 3.837-3.333 2.559-5 5.97-5 10.234 0 3.257 1.046 5.854 3.14 7.792 2.093 1.938 5.582 3.412 10.466 4.419l12.328 2.559c7.753 1.628 13.529 4.148 17.328 7.559 3.799 3.334 5.698 7.87 5.698 13.607 0 4.807-1.279 8.994-3.837 12.56-2.559 3.566-6.164 6.357-10.816 8.373-4.652 1.939-10.195 2.908-16.63 2.908z" fill="#1C2337"/><path d="M25.75 21.75L31 27l5.25-5.25M31 13v14m11 0v7a1 1 0 01-1 1H21a1 1 0 01-1-1v-7" stroke="#1C2337" stroke-width="2" stroke-linecap="round" stroke-linejoin="round"/></svg>