<svg id="Слой_1" data-name="Слой 1" xmlns="http://www.w3.org/2000/svg" viewBox="0 0 30 30"><path d="M86.81-3.88h-26a2 2 0 00-2 2v26a2 2 0 002 2h26a2 2 0 002-2v-26a2 2 0 00-2-2zm-4 17.44c1.78 1.67 2.19 2.56 2.19 2.67.66 1.33-1 1.45-1 1.45h-3a2.21 2.21 0 01-1.55-.45c-1.11-.78-2.23-2.78-3-2.56s-.78 2.12-.78 2.12 0 .44-.22.55a1.13 1.13 0 01-.67.22h-1.31A7.67 7.67 0 0167.8 15c-2.89-3-5.44-9-5.44-9s-.12-.44 0-.55a1.05 1.05 0 01.64-.23h3.23a.84.84 0 01.55.23.81.81 0 01.34.33s.55 1.33 1.22 2.56c1.33 2.33 2 2.89 2.45 2.67.66-.34.44-3.34.44-3.34a3.53 3.53 0 00-.33-1.56c-.23-.33-.78-.44-1-.55s.11-.45.55-.67a6.9 6.9 0 012.89-.33 15.53 15.53 0 011.56.11c1.11.22.78 1.33.78 3.89 0 .78-.11 1.89.44 2.33.22.12.89 0 2.45-2.55a12.57 12.57 0 001.22-2.67.82.82 0 01.33-.33 1.08 1.08 0 01.45-.12H84s1-.11 1.22.34-.29 1.67-1.74 3.44c-2.33 3.12-2.56 2.78-.67 4.56z" transform="translate(-58.81 3.88)"/></svg>