<svg xmlns="http://www.w3.org/2000/svg" viewBox="0 0 31 31"><defs><style>.cls-2{fill:#fff}</style></defs><rect x=".5" y=".5" width="30" height="30" rx="2" stroke-miterlimit="10" fill="#373841" stroke="#fff" id="Слой_3" data-name="Слой 3"/><g id="Слой_2" data-name="Слой 2"><path class="cls-2" d="M1042.77 153.16h-20.46s-.17-4.12 4.36-10.08V138h2a.71.71 0 01.71.72v.53a.72.72 0 00.72.72h5a.71.71 0 00.71-.72v-.53a.72.72 0 01.72-.72h2v5.1c4.53 6 4.37 10.08 4.37 10.08h-20.6" transform="translate(-1017.07 -127.91)"/><path class="cls-2" d="M1025.59 142.94a2.35 2.35 0 01-1.82 1.13 7.17 7.17 0 01-3 0 2.26 2.26 0 01-1.56-.83v-2.73a8.19 8.19 0 006.37 0zm20.41 0a2.37 2.37 0 01-1.82 1.13 7.22 7.22 0 01-3 0 2.22 2.22 0 01-1.55-.83v-2.73a8.19 8.19 0 006.37 0z" transform="translate(-1017.07 -127.91)"/><path class="cls-2" d="M1032.4 135.06a53.34 53.34 0 019.44.9 5.85 5.85 0 013 1.58c.61.84 1.45 3 1.13 3.23s-1 1-3.62.87-3.05-1.29-3.05-1.29a1.7 1.7 0 00-.61-1.48v-1.17h-3.17v.38a24.84 24.84 0 00-6 0v-.38h-3.16v1.17a1.7 1.7 0 00-.61 1.48s-.47 1.19-3.06 1.29-3.29-.65-3.62-.87.53-2.39 1.14-3.23a5.81 5.81 0 013-1.58 54 54 0 019.19-.9z" transform="translate(-1017.07 -127.91)"/></g></svg>