<svg id="Слой_1" data-name="Слой 1" xmlns="http://www.w3.org/2000/svg" viewBox="0 0 30 30"><path class="cls-1" d="M44.79.92a.5.5 0 01.08.27v.46a.61.61 0 00.61.61h4.22a.61.61 0 00.61-.61v-.46A.62.62 0 0150.4.9a23.56 23.56 0 00-5.61.02zM60.62-9.19h-26a2 2 0 00-2 2v26a2 2 0 002 2h26a2 2 0 002-2v-26a2 2 0 00-2-2zM59.06 3v1.85a2 2 0 01-1.55 1 5.93 5.93 0 01-2.55 0 1.93 1.93 0 01-1.33-.7V2.74l-.21-.14s0-1.14-.53-1.26l-.26-.06v3.64c3.85 5.08 3.72 8.6 3.72 8.6H38.87s-.13-3.52 3.73-8.6V1.29l-.21.05a1.64 1.64 0 00-.62 1.25.23.23 0 01-.06.25v2a2 2 0 01-1.55 1 5.93 5.93 0 01-2.55 0 1.93 1.93 0 01-1.33-.7V3h-.07c-.27-.19.45-2 1-2.76a5 5 0 012.58-1.34 45.88 45.88 0 017.74-.76 46.17 46.17 0 018 .76A5.09 5.09 0 0158.1.2c.51.73 1.24 2.57.96 2.8z" transform="translate(-32.62 9.19)"/></svg>