<svg id="Слой_2" data-name="Слой 2" xmlns="http://www.w3.org/2000/svg" viewBox="0 0 270.99 264.74"><defs><style>.cls-1{stroke:#fff;stroke-miterlimit:10}</style></defs><path class="cls-1" d="M135.17 252.37l.02-239.75-75.11 74.17H.5v89.83l59.58.25 75.09 75.5z"/><path class="cls-1" d="M685 440.5v-30s27.74-24.77 0-54v-33c28.69 7.84 68.35 79.51 0 118.44" transform="translate(-519.65 -250.87)"/><path class="cls-1" d="M684.82 483.33s62.64-18.64 72.58-80.33S737 302 685 282v-30.5s67.32 14.83 93.5 77c17.19 42.84 14.82 80.83-3.5 117s-55 61.83-90.16 69.5c.16-11.76-.02-31.67-.02-31.67z" transform="translate(-519.65 -250.87)"/></svg>