<svg id="Слой_2" data-name="Слой 2" xmlns="http://www.w3.org/2000/svg" viewBox="0 0 270.91 270.92"><defs><style>.cls-1{stroke:#fff;stroke-miterlimit:10}</style></defs><path class="cls-1" d="M192.67 181.67h70l-70-70.17 18.83-19L462 343l-18.5 19-31-30.5S394.33 350 357.33 359v-31.67s10.88-1.41 34.05-17.58l-64-63.75v101.25l-75.08-75.5-59.58-.25z" transform="translate(-191.96 -91.79)"/><path class="cls-1" d="M135.4 15.71l-.03 62-30.33-31 30.36-31z"/><path class="cls-1" d="M357.5 95.5V126s102 31.5 67.5 140.5l22.5 23s31-55.5 3.5-117-82.5-73.5-93.5-77zm0 72v33L394 237s9.5-45.5-36.5-69.5z" transform="translate(-191.96 -91.79)"/></svg>