<svg width="429" height="182" fill="none" xmlns="http://www.w3.org/2000/svg"><path d="M427.141 52.227c2.123 10.953-1.603 22.546-10.397 34.187-8.793 11.642-22.591 23.241-40.395 34.133-35.602 21.78-87.036 40.618-145.859 51.31-58.824 10.691-113.812 11.195-155.147 3.398-20.671-3.899-37.874-9.863-50.43-17.625-12.554-7.761-20.368-17.256-22.491-28.209-2.124-10.953 1.603-22.546 10.396-34.187 8.794-11.642 22.592-23.24 40.396-34.133 35.602-21.78 87.035-40.618 145.859-51.31C257.897-.9 312.884-1.404 354.22 6.393c20.671 3.899 37.874 9.863 50.429 17.625 12.554 7.761 20.369 17.257 22.492 28.21z" stroke="url(#paint0_linear_1544_9014)" stroke-width="2"/><defs><linearGradient id="paint0_linear_1544_9014" x1="1.438" y1="129.6" x2="427.16" y2="47.072" gradientUnits="userSpaceOnUse"><stop stop-color="#22BAFB"/><stop offset=".234" stop-color="#64EEB4"/><stop offset=".547" stop-color="#FFF5DD"/><stop offset=".654" stop-color="#C8F3F9"/><stop offset="1" stop-color="#184CD1"/></linearGradient></defs></svg>