<svg width="64" height="64" fill="none" xmlns="http://www.w3.org/2000/svg"><path d="M9.179 43.25l6.05-34.275a1.975 1.975 0 012.3-1.625l13.8 2.425a2.025 2.025 0 011.625 2.325l-6.075 34.475A9.025 9.025 0 0116.604 53.9c-4.975-.8-8.3-5.675-7.425-10.65z" stroke="#FBFBFB" stroke-width="2" stroke-linecap="round" stroke-linejoin="round"/><path d="M29.578 31.2l18.225-6.625a2.001 2.001 0 012.575 1.2l4.8 13.15a2 2 0 01-1.2 2.55l-32.9 11.975" stroke="#FBFBFB" stroke-width="2" stroke-linecap="round" stroke-linejoin="round"/><path d="M55 40.625V52a2 2 0 01-2 2H18" stroke="#FBFBFB" stroke-width="2" stroke-linecap="round" stroke-linejoin="round"/><path d="M18 48a3 3 0 100-6 3 3 0 000 6z" fill="#FBFBFB"/></svg>