<svg width="64" height="64" fill="none" xmlns="http://www.w3.org/2000/svg"><path d="M44 20h10.65a1.975 1.975 0 011.85 1.25L60 30M4 36h40" stroke="#FBFBFB" stroke-width="2" stroke-linecap="round" stroke-linejoin="round"/><path d="M47 54a6 6 0 100-12 6 6 0 000 12zm-30 0a6 6 0 100-12 6 6 0 000 12z" stroke="#FBFBFB" stroke-width="2" stroke-miterlimit="10"/><path d="M41 48H23m-12 0H6a2 2 0 01-2-2V18a2 2 0 012-2h38v26.8M44 30h16v16a2 2 0 01-2 2h-5" stroke="#FBFBFB" stroke-width="2" stroke-linecap="round" stroke-linejoin="round"/></svg>