<svg width="69" height="52" fill="none" xmlns="http://www.w3.org/2000/svg"><path d="M19.139 28.354c5.872 0 10.633-4.76 10.633-10.633 0-5.872-4.76-10.633-10.633-10.633-5.873 0-10.633 4.76-10.633 10.633 0 5.873 4.76 10.633 10.633 10.633z" stroke="#1F2023" stroke-width="2" stroke-miterlimit="10"/><path d="M3.934 35.443a19.849 19.849 0 0130.41 0m18.588-30.04a8.96 8.96 0 01-.873 16.935l.883 12.007a3.371 3.371 0 01-6.743 0l.883-12.007a8.96 8.96 0 01-.873-16.935l-.01 8.319 3.372 2.24 3.37-2.24-.01-8.32z" stroke="#1F2023" stroke-width="2" stroke-linecap="round" stroke-linejoin="round"/><path d="M0 51.367h52" stroke="url(#paint0_linear_35_13094)"/><defs><linearGradient id="paint0_linear_35_13094" x1="0" y1="51.867" x2="52" y2="51.867" gradientUnits="userSpaceOnUse"><stop stop-color="#22BAFB"/><stop offset=".234" stop-color="#64EEB4"/><stop offset=".547" stop-color="#FFF5DD"/><stop offset=".654" stop-color="#C8F3F9"/><stop offset="1" stop-color="#184CD1"/></linearGradient></defs></svg>