<svg width="52" height="52" fill="none" xmlns="http://www.w3.org/2000/svg"><path d="M22.684 15.595a5.67 5.67 0 015.67-5.671h11.342a1.417 1.417 0 011.418 1.418v22.683a1.418 1.418 0 01-1.418 1.418H28.355a5.67 5.67 0 00-5.671 5.67" stroke="#1F2023" stroke-width="2" stroke-linecap="round" stroke-linejoin="round"/><path d="M4.254 34.025a1.418 1.418 0 001.418 1.418h11.341a5.67 5.67 0 015.671 5.67V15.596a5.67 5.67 0 00-5.67-5.671H5.671a1.418 1.418 0 00-1.418 1.418v22.683z" stroke="#1F2023" stroke-width="2" stroke-linecap="round" stroke-linejoin="round"/><path d="M0 51.367h52" stroke="url(#paint0_linear_36_13167)"/><defs><linearGradient id="paint0_linear_36_13167" x1="0" y1="51.867" x2="52" y2="51.867" gradientUnits="userSpaceOnUse"><stop stop-color="#22BAFB"/><stop offset=".234" stop-color="#64EEB4"/><stop offset=".547" stop-color="#FFF5DD"/><stop offset=".654" stop-color="#C8F3F9"/><stop offset="1" stop-color="#184CD1"/></linearGradient></defs></svg>