<svg width="52" height="53" fill="none" xmlns="http://www.w3.org/2000/svg"><path d="M31.19 14.544h7.549a1.4 1.4 0 011.311.886l2.481 6.203M2.836 25.886H31.19" stroke="#FBFBFB" stroke-width="2" stroke-linecap="round" stroke-linejoin="round"/><path d="M33.316 38.645a4.253 4.253 0 100-8.506 4.253 4.253 0 000 8.506zm-21.266 0a4.253 4.253 0 100-8.506 4.253 4.253 0 000 8.506z" stroke="#FBFBFB" stroke-width="2" stroke-miterlimit="10"/><path d="M29.064 34.393h-12.76m-8.506-.001H4.254a1.418 1.418 0 01-1.418-1.417V13.127a1.418 1.418 0 011.418-1.418H31.19v18.997m0-9.073h11.34v11.342a1.418 1.418 0 01-1.417 1.417h-3.545" stroke="#FBFBFB" stroke-width="2" stroke-linecap="round" stroke-linejoin="round"/><path d="M0 51.734h52" stroke="url(#paint0_linear_36_13231)"/><defs><linearGradient id="paint0_linear_36_13231" x1="0" y1="52.234" x2="52" y2="52.234" gradientUnits="userSpaceOnUse"><stop stop-color="#22BAFB"/><stop offset=".234" stop-color="#64EEB4"/><stop offset=".547" stop-color="#FFF5DD"/><stop offset=".654" stop-color="#C8F3F9"/><stop offset="1" stop-color="#184CD1"/></linearGradient></defs></svg>