<svg width="52" height="52" fill="none" xmlns="http://www.w3.org/2000/svg"><path d="M39.695 31.42V13.947a1.435 1.435 0 00-.726-1.24L23.374 3.933a1.382 1.382 0 00-1.383 0L6.396 12.706a1.435 1.435 0 00-.726 1.24V31.42a1.436 1.436 0 00.726 1.24l15.595 8.773a1.382 1.382 0 001.383 0l15.595-8.772a1.435 1.435 0 00.726-1.24v0z" stroke="#1F2023" stroke-width="2" stroke-linecap="round" stroke-linejoin="round"/><path d="M39.5 13.22l-16.658 9.464-16.977-9.463m16.978 9.463l-.16 18.926" stroke="#1F2023" stroke-width="2" stroke-linecap="round" stroke-linejoin="round"/><path d="M0 51.367h52" stroke="url(#paint0_linear_35_13021)"/><defs><linearGradient id="paint0_linear_35_13021" x1="0" y1="51.867" x2="52" y2="51.867" gradientUnits="userSpaceOnUse"><stop stop-color="#22BAFB"/><stop offset=".234" stop-color="#64EEB4"/><stop offset=".547" stop-color="#FFF5DD"/><stop offset=".654" stop-color="#C8F3F9"/><stop offset="1" stop-color="#184CD1"/></linearGradient></defs></svg>