<svg width="82" height="116" fill="none" xmlns="http://www.w3.org/2000/svg"><path d="M54.994 1.04h-28.34c-14.099 0-25.506 25.365-25.506 56.68 0 31.316 11.407 56.68 25.506 56.68h28.34"/><path d="M54.994 1.04h-28.34c-14.099 0-25.506 25.365-25.506 56.68 0 31.316 11.407 56.68 25.506 56.68h28.34" stroke="#F5F7FA" stroke-width="2" stroke-linecap="round" stroke-linejoin="round"/><path d="M29.488 57.72c0 31.304 11.42 56.68 25.506 56.68 14.087 0 25.506-25.376 25.506-56.68 0-31.303-11.42-56.68-25.506-56.68S29.488 26.418 29.488 57.72zm2.125-22.67H3.273m28.34 45.343H3.497" stroke="#F5F7FA" stroke-width="2" stroke-linecap="round" stroke-linejoin="round"/><path d="M58.758 88.61l-.591-6.721c-2.23 1.477-4.376 2.51-6.438 3.098-2.032.525-3.886.475-5.561-.15l1.022-3.996c1.738.539 3.505.607 5.302.205 1.793-.443 3.9-1.513 6.322-3.21 2.986-2.094 5.162-4.39 6.527-6.89 1.362-2.54 1.938-5.001 1.728-7.383-.17-1.937-.853-3.087-2.047-3.45-1.161-.386-3.016-.05-5.565 1.009l-4.984 2.208c-3.054 1.326-5.389 1.613-7.005.86-1.587-.816-2.513-2.738-2.78-5.765-.198-2.26.072-4.592.811-6.996.74-2.404 1.86-4.69 3.36-6.855a26.187 26.187 0 015.509-5.854L53.776 32l2.688-1.884.596 6.78c1.674-1 3.394-1.67 5.16-2.01 1.8-.361 3.387-.145 4.76.65l-.928 3.864c-1.513-.782-3.116-.987-4.81-.614-1.696.332-3.54 1.196-5.53 2.592-2.655 1.86-4.724 4.168-6.208 6.922-1.45 2.731-2.06 5.408-1.83 8.032.182 2.058.842 3.353 1.98 3.883 1.136.49 2.84.238 5.112-.755l4.94-2.113c3.322-1.472 5.838-1.907 7.547-1.304 1.705.561 2.683 2.275 2.936 5.141.291 3.31-.437 6.648-2.183 10.015-1.747 3.368-4.133 6.282-7.157 8.745l.597 6.781-2.688 1.884z" fill="#F5F7FA"/></svg>