<svg width="157" height="197" fill="none" xmlns="http://www.w3.org/2000/svg"><path d="M118.425 17.713L75.722 8.39C54.478 3.752 28.946 38.22 18.645 85.405c-10.301 47.186-1.457 89.158 19.787 93.795l42.703 9.323" fill="#E2E6EE"/><path d="M118.425 17.713L75.722 8.39C54.478 3.752 28.946 38.22 18.645 85.405c-10.301 47.186-1.457 89.158 19.787 93.795l42.703 9.323" stroke="#1F2023" stroke-width="2" stroke-linecap="round" stroke-linejoin="round"/><path d="M61.348 94.728c-10.297 47.168-1.438 89.162 19.788 93.795 21.225 4.634 46.779-29.847 57.077-77.015 10.297-47.168 1.438-89.161-19.788-93.795C97.2 13.08 71.645 47.56 61.348 94.728z" fill="#E2E6EE" stroke="#1F2023" stroke-width="2" stroke-linecap="round" stroke-linejoin="round"/><path d="M72.009 61.267l-42.703-9.323m27.787 77.647l-42.366-9.249" stroke="#1F2023" stroke-width="2" stroke-linecap="round" stroke-linejoin="round"/><path d="M95.175 151.812l1.32-10.321c-3.847 1.493-7.42 2.343-10.72 2.552-3.235.122-6.012-.564-8.331-2.058l2.855-5.683c2.441 1.383 5.082 2.067 7.921 2.052 2.847-.077 6.375-.996 10.583-2.758 5.188-2.171 9.222-4.916 12.101-8.233 2.887-3.38 4.565-6.898 5.032-10.556.381-2.975-.269-4.932-1.95-5.872-1.622-.963-4.528-1.067-8.717-.311l-8.236 1.688c-5.038.994-8.65.658-10.838-1.008-2.122-1.752-2.886-4.952-2.292-9.601.444-3.472 1.619-6.897 3.524-10.276 1.905-3.379 4.344-6.453 7.317-9.223a40.387 40.387 0 0110.226-7.01l1.319-10.32 4.67-1.955-1.332 10.414c2.851-.958 5.663-1.402 8.436-1.331 2.832.047 5.151.895 6.959 2.543l-2.669 5.518c-2.023-1.676-4.372-2.512-7.046-2.507-2.666-.057-5.728.638-9.187 2.086-4.612 1.93-8.488 4.726-11.63 8.388-3.084 3.638-4.883 7.472-5.399 11.501-.404 3.161.165 5.329 1.706 6.502 1.55 1.112 4.2 1.293 7.951.544l8.138-1.558c5.491-1.125 9.424-.953 11.801.516 2.384 1.408 3.295 4.312 2.733 8.713-.65 5.083-2.845 9.874-6.585 14.373-3.739 4.499-8.293 8.107-13.659 10.823l-1.332 10.414-4.67 1.954z" fill="#1F2023"/></svg>