<svg width="89" height="89" fill="none" xmlns="http://www.w3.org/2000/svg"><path d="M33.153 58.019c13.733 0 24.866-11.133 24.866-24.865 0-13.733-11.133-24.866-24.866-24.866-13.732 0-24.865 11.133-24.865 24.866 0 13.732 11.133 24.865 24.865 24.865z" stroke="#1F2023" stroke-width="3" stroke-linecap="round" stroke-linejoin="round"/><path d="M55.256 80.121c13.733 0 24.865-11.132 24.865-24.865 0-13.733-11.132-24.865-24.865-24.865-13.733 0-24.865 11.132-24.865 24.865 0 13.733 11.132 24.865 24.865 24.865zm-12.95-46.104l12.087 12.087m-20.375-3.798l12.087 12.087" stroke="#1F2023" stroke-width="3" stroke-linecap="round" stroke-linejoin="round"/></svg>