<svg width="320" height="447" fill="none" xmlns="http://www.w3.org/2000/svg"><g clip-path="url(#clip0_1_13205)"><path fill="#35405C" d="M0 .947h320v445.474H0z"/><circle cx="224.001" cy="331.053" r="183.579" fill="url(#paint0_linear_1_13205)"/><circle cx="21.894" cy="23.684" r="10.105" fill="#1A2338"/><g filter="url(#filter0_d_1_13205)"><path d="M216.004 186.211l-27.316 29.115 27.895 76.71-20.921 20.921-41.668-61.019-21.095 19.177v20.921l-20.921 20.921L99.6 276.433l-36.438-12.291 20.921-20.921h20.921l20.921-20.921-62.763-41.843 20.921-20.921 76.711 27.895 29.526-27.895-.61.436a20.958 20.958 0 0114.819-6.138c5.558 0 8.996.9 12.926 4.831 3.93 3.93 4.164 7.691 4.164 13.25a20.96 20.96 0 01-6.138 14.819l.523-.523z" fill="#FFF2F2"/><path d="M134.32 184.105l8.842-8.842m52.211 87.158l8.842-8.842m-96.422-73.684l8.842-8.842M189.479 238l8.842-8.842" stroke="#FFF2F2" stroke-width="10.105" stroke-linecap="round"/></g><path d="M92.022 281.441c-17.747 18.363-43.836 62.811-6.216 93.704 47.025 38.617 64.283-15.703 39.883-21.987-24.4-6.285-30.558 31.648-1.235 44.686 29.324 13.037 136.381 56.297 197.614 16.673" stroke="#FFF2F2" stroke-width="3.368" stroke-linecap="round" stroke-dasharray="16.84 16.84"/></g><defs><linearGradient id="paint0_linear_1_13205" x1="40.422" y1="331.052" x2="407.58" y2="331.052" gradientUnits="userSpaceOnUse"><stop offset=".234" stop-color="#FF6C6C"/></linearGradient><clipPath id="clip0_1_13205"><path fill="#fff" transform="translate(0 .947)" d="M0 0h320v445.474H0z"/></clipPath><filter id="filter0_d_1_13205" x="62.32" y="147.939" width="170.247" height="170.913" filterUnits="userSpaceOnUse" color-interpolation-filters="sRGB"><feFlood flood-opacity="0" result="BackgroundImageFix"/><feColorMatrix in="SourceAlpha" values="0 0 0 0 0 0 0 0 0 0 0 0 0 0 0 0 0 0 127 0" result="hardAlpha"/><feOffset dx="5.053"/><feGaussianBlur stdDeviation="2.947"/><feComposite in2="hardAlpha" operator="out"/><feColorMatrix values="0 0 0 0 0.0875694 0 0 0 0 0.115971 0 0 0 0 0.216667 0 0 0 0.27 0"/><feBlend in2="BackgroundImageFix" result="effect1_dropShadow_1_13205"/><feBlend in="SourceGraphic" in2="effect1_dropShadow_1_13205" result="shape"/></filter></defs></svg>