<svg width="1180" height="281" fill="none" xmlns="http://www.w3.org/2000/svg"><g clip-path="url(#clip0_1_7036)"><path fill="#35405C" d="M0 0h1180v281H0z"/><circle cx="26" cy="25" r="12" fill="#1A2338"/><circle cx="966.498" cy="191.5" r="233.5" fill="url(#paint0_linear_1_7036)"/><g filter="url(#filter0_d_1_7036)"><path d="M932.488 57.626l-36.807 39.232 37.587 103.364-28.191 28.19-56.145-82.221-28.425 25.841v28.19l-28.191 28.19-16.679-49.215-49.098-16.562 28.19-28.19h28.191l28.19-28.19-84.571-56.381 28.19-28.19L858.094 59.27l39.785-37.587-.822.587A28.238 28.238 0 01917.025 14c7.489 0 12.121 1.213 17.417 6.51 5.296 5.295 5.612 10.363 5.612 17.853 0 7.49-2.975 14.672-8.271 19.968l.705-.705z" fill="#FFF2F2"/><path d="M822.424 54.79l11.914-11.915m70.348 117.442l11.914-11.915M786.682 49.116l11.914-11.914m98.144 90.208l11.915-11.914" stroke="#FFF2F2" stroke-width="13.616" stroke-linecap="round"/></g><path d="M765.433 185.946c-23.914 24.743 40.075 199.648 272.067 13.233 28-22.5-5-72.679-34.5-45.679-29.497 27-9.5 51.5 56.33 54.712 65.84 3.213 210.16 64.179 292.67 10.788" stroke="#FFF2F2" stroke-width="4.539" stroke-linecap="round" stroke-dasharray="22.69 22.69"/></g><defs><linearGradient id="paint0_linear_1_7036" x1="732.998" y1="191.5" x2="1200" y2="191.5" gradientUnits="userSpaceOnUse"><stop offset=".234" stop-color="#FF6C6C"/></linearGradient><clipPath id="clip0_1_7036"><path fill="#fff" d="M0 0h1180v281H0z"/></clipPath><filter id="filter0_d_1_7036" x="725.404" y="6.057" width="229.401" height="230.298" filterUnits="userSpaceOnUse" color-interpolation-filters="sRGB"><feFlood flood-opacity="0" result="BackgroundImageFix"/><feColorMatrix in="SourceAlpha" values="0 0 0 0 0 0 0 0 0 0 0 0 0 0 0 0 0 0 127 0" result="hardAlpha"/><feOffset dx="6.808"/><feGaussianBlur stdDeviation="3.971"/><feComposite in2="hardAlpha" operator="out"/><feColorMatrix values="0 0 0 0 0.0875694 0 0 0 0 0.115971 0 0 0 0 0.216667 0 0 0 0.27 0"/><feBlend in2="BackgroundImageFix" result="effect1_dropShadow_1_7036"/><feBlend in="SourceGraphic" in2="effect1_dropShadow_1_7036" result="shape"/></filter></defs></svg>