<svg width="499" height="337" fill="none" xmlns="http://www.w3.org/2000/svg"><path d="M151.813 5.129l-3.074-4.61-2.954 4.961 5.517.508.511-.86zm327.021 195.934l3.074 4.609 2.955-4.961-5.518-.507-.511.859zM150.872 5.733l328.391 195.586.512-.86L151.384 4.873l-.512.86z" fill="url(#paint0_linear_156_13103)"/><g filter="url(#filter0_d_156_13103)"><path fill-rule="evenodd" clip-rule="evenodd" d="M54.87 62.264l73.393-42.883L475.13 220.122v.787l-2.003 1.126-.187.106v2.046l.097.088 2.458 2.237v.441l-89.04 52.143L39.221 76.213v-.788l2.003-1.126.188-.106v-1.042l-.188-.105-2.003-1.126v-.429l89.45-47.247-.818-.53-72.983 38.55zm-16.627 8.782l-.065-.038 89.651-52.382.43-.251.432.25L476.17 219.72l.181.104v1.389l-.187.105-2.003 1.126v1.533l2.458 2.238.097.088v.916h-.133l.092.053-89.788 52.581-.431.253-.432-.253L38.179 76.613 38 76.51v-1.39l.187-.105 2.003-1.126v-.435l-2.002-1.126-.188-.106v-1.049l.201-.106.042-.022z" fill="#1F2023"/><path transform="matrix(-.86603 -.5 -.86603 .5 474.491 219.268)" fill="#DADFED" stroke="#1F2023" d="M-.866 0H399.79v102.521H-.866z"/></g><path d="M410.058 291.864l-5.522.461 2.912 4.985 3.114-4.582-.504-.864zm80.854-46.063l5.521-.461-2.911-4.986-3.114 4.583.504.864zM410.13 292.98l81.214-47.432-.504-.863-81.214 47.431.504.864z" fill="url(#paint1_linear_156_13103)"/><path d="M492.385 215.559l2.387-5h-5.774l2.387 5h1zm-1 10.563l-2.387 5h5.774l-2.387-5h-1zm0-11.063v11.563h1v-11.563h-1z" fill="url(#paint2_linear_156_13103)"/><defs><linearGradient id="paint0_linear_156_13103" x1="147.006" y1="3.43" x2="483.129" y2="203.622" gradientUnits="userSpaceOnUse"><stop stop-color="#22BAFB"/><stop offset=".234" stop-color="#64EEB4"/><stop offset=".547" stop-color="#FFF5DD"/><stop offset=".654" stop-color="#C8F3F9"/><stop offset="1" stop-color="#184CD1"/></linearGradient><linearGradient id="paint1_linear_156_13103" x1="405.992" y1="268.832" x2="494.978" y2="268.832" gradientUnits="userSpaceOnUse"><stop stop-color="#22BAFB"/><stop offset=".234" stop-color="#64EEB4"/><stop offset=".547" stop-color="#FFF5DD"/><stop offset=".654" stop-color="#C8F3F9"/><stop offset="1" stop-color="#184CD1"/></linearGradient><linearGradient id="paint2_linear_156_13103" x1="492.311" y1="231.122" x2="492.409" y2="210.558" gradientUnits="userSpaceOnUse"><stop stop-color="#22BAFB"/><stop offset=".234" stop-color="#64EEB4"/><stop offset=".547" stop-color="#FFF5DD"/><stop offset=".654" stop-color="#C8F3F9"/><stop offset="1" stop-color="#184CD1"/></linearGradient><filter id="filter0_d_156_13103" x="0" y="14.375" width="498.717" height="321.731" filterUnits="userSpaceOnUse" color-interpolation-filters="sRGB"><feFlood flood-opacity="0" result="BackgroundImageFix"/><feColorMatrix in="SourceAlpha" values="0 0 0 0 0 0 0 0 0 0 0 0 0 0 0 0 0 0 127 0" result="hardAlpha"/><feMorphology radius="5" operator="dilate" in="SourceAlpha" result="effect1_dropShadow_156_13103"/><feOffset dx="-8" dy="26"/><feGaussianBlur stdDeviation="12.5"/><feComposite in2="hardAlpha" operator="out"/><feColorMatrix values="0 0 0 0 0.0802951 0 0 0 0 0.109844 0 0 0 0 0.154167 0 0 0 0.39 0"/><feBlend in2="BackgroundImageFix" result="effect1_dropShadow_156_13103"/><feBlend in="SourceGraphic" in2="effect1_dropShadow_156_13103" result="shape"/></filter></defs></svg>