<svg viewBox="0 0 444 95" xmlns="http://www.w3.org/2000/svg" xmlns:xlink="http://www.w3.org/1999/xlink"><style>:root&gt;svg{display:none}:root&gt;svg:target{display:block}</style><svg fill="none" viewBox="0 0 37 37" id="add-info" xmlns="http://www.w3.org/2000/svg"><path d="M18.5 2.313C9.56 2.313 2.312 9.56 2.312 18.5c0 8.94 7.249 16.188 16.188 16.188 8.94 0 16.188-7.249 16.188-16.188 0-8.94-7.249-16.188-16.188-16.188zm0 29.628c-7.422 0-13.441-6.02-13.441-13.441 0-7.422 6.02-13.441 13.441-13.441 7.422 0 13.441 6.02 13.441 13.441 0 7.422-6.02 13.441-13.441 13.441z" fill="#195557"/><path d="M16.766 12.14a1.735 1.735 0 103.469 0 1.735 1.735 0 00-3.47 0zm2.601 4.047h-1.734a.29.29 0 00-.29.29v9.828c0 .159.13.289.29.289h1.734a.29.29 0 00.29-.29v-9.827a.29.29 0 00-.29-.29z" fill="#195557"/></svg><svg fill="none" viewBox="0 0 37 34" id="basket" xmlns="http://www.w3.org/2000/svg"><path d="M12.643 33.772c1.479 0 2.677-1.126 2.677-2.515 0-1.388-1.198-2.514-2.677-2.514-1.478 0-2.676 1.126-2.676 2.514 0 1.39 1.198 2.515 2.676 2.515zm16.261 0c1.478 0 2.676-1.126 2.676-2.515 0-1.388-1.198-2.514-2.676-2.514-1.478 0-2.677 1.126-2.677 2.514 0 1.39 1.199 2.515 2.677 2.515zm7.232-29.761a1.18 1.18 0 00-.409-.303 1.254 1.254 0 00-.507-.11H10.455l.773 2.235h22.434l-3.176 13.41H12.643L7.207 3.073a1.11 1.11 0 00-.297-.454 1.207 1.207 0 00-.488-.273L1.546.938a1.268 1.268 0 00-.91.08c-.28.14-.49.378-.583.663-.093.284-.062.592.086.855s.402.46.705.547l4.27 1.23 5.46 16.204-1.951 1.498-.155.145a2.873 2.873 0 00-.773 1.878 2.857 2.857 0 00.678 1.91c.324.371.736.665 1.203.86.467.194.976.282 1.485.259h19.853c.316 0 .618-.118.841-.328.223-.21.349-.494.349-.79 0-.297-.126-.58-.349-.79a1.23 1.23 0 00-.84-.328H10.87a.835.835 0 01-.387-.109.772.772 0 01-.281-.273.713.713 0 01.002-.735l2.867-2.235h18.365a1.24 1.24 0 00.761-.236c.217-.16.368-.384.429-.636l3.77-15.646a1.052 1.052 0 00-.013-.503 1.096 1.096 0 00-.248-.447z" fill="#195557"/></svg><svg fill="none" viewBox="0 0 21 20" id="close-btn" xmlns="http://www.w3.org/2000/svg"><path fill="#195557" d="M.954 17.678L18.632 0l1.414 1.415L2.368 19.092z"/><path fill="#195557" d="M2.368.454l17.678 17.678-1.414 1.414L.954 1.868z"/></svg><svg fill="none" viewBox="0 0 7 10" id="dropdown-arrow" xmlns="http://www.w3.org/2000/svg"><path d="M.307 9.12a.418.418 0 00.43-.027l5.417-3.75a.417.417 0 000-.685L.737.908a.417.417 0 00-.654.342v7.5a.417.417 0 00.224.37z" fill="#195557"/></svg><svg fill="none" viewBox="0 0 117 55" id="favicon" xmlns="http://www.w3.org/2000/svg"><mask id="ea" fill="#fff"><path d="M67.103 21.81c0 .425.34.769.76.769h1.394c.42 0 .76-.344.76-.768a.764.764 0 00-.76-.768h-1.394c-.42 0-.76.344-.76.768z"/><path d="M77.055 25.974c-.156 0-.309.014-.458.04l-5.01-8.399c.02-.024.04-.05.057-.078l3.364-5.4a.775.775 0 00.042-.742.76.76 0 00-.601-.43l-5.519-.62.627-5.574a.772.772 0 00-.281-.687.753.753 0 00-.725-.125L63.31 5.813 61.48.515a.755.755 0 00-1.256-.29L56.304 4.2 52.381.226a.755.755 0 00-1.255.289l-1.83 5.298-5.241-1.854a.754.754 0 00-.725.125.772.772 0 00-.282.687l.627 5.575-5.519.62a.76.76 0 00-.6.43.775.775 0 00.041.742l2.959 4.748-4.702 2.984a.77.77 0 000 1.3l4.702 2.984-2.959 4.749a.775.775 0 00-.022.78.76.76 0 00.665.397l36.474.042a2.716 2.716 0 002.34 1.35c1.5 0 2.721-1.233 2.721-2.749s-1.22-2.75-2.72-2.75zm-2.717 2.611l-13.55-.015c-1.794-6.142 2.649-10.919 7.833-12.953l6.605 11.073a2.756 2.756 0 00-.888 1.895zm-32.09-4.263a.775.775 0 00-.239-1.06l-4.32-2.742 4.32-2.742a.775.775 0 00.239-1.06l-2.717-4.361 5.07-.57a.758.758 0 00.51-.284.773.773 0 00.161-.566l-.575-5.124 4.815 1.704a.754.754 0 00.969-.472l1.681-4.867 3.603 3.652a.756.756 0 001.077 0l3.602-3.652 1.681 4.867a.756.756 0 00.969.472l4.816-1.704-.576 5.125a.774.774 0 00.161.565c.126.16.31.262.51.284l5.07.57-2.362 3.791-1.114-1.867a.757.757 0 00-.9-.33c-3.485 1.22-6.348 3.35-8.06 5.998-1.706 2.637-2.192 5.598-1.428 8.619l-19.594-.023 2.631-4.223zm34.807 5.614c-.661 0-1.2-.544-1.2-1.213s.539-1.213 1.2-1.213c.662 0 1.201.544 1.201 1.213 0 .67-.539 1.213-1.2 1.213zM15.033 54.482c.042 0 .064.043.064.13 0 .086-.022.13-.064.13-.499 0-.897-.008-1.196-.023l-1.644-.021-1.922.021c-.256.015-.605.022-1.046.022-.043 0-.065-.043-.065-.13 0-.086.022-.129.065-.129.526 0 .91-.036 1.153-.108.242-.072.405-.208.49-.41.086-.201.129-.525.129-.97V48.03H4.1v4.963c0 .432.042.755.128.971.085.202.249.338.491.41.242.072.626.108 1.153.108.029 0 .043.043.043.13 0 .086-.014.13-.043.13-.498 0-.897-.008-1.196-.023l-1.857-.021-1.602.021a23.76 23.76 0 01-1.174.022c-.029 0-.043-.043-.043-.13 0-.086.014-.129.043-.129.498 0 .86-.036 1.089-.108a.713.713 0 00.47-.41c.085-.216.128-.54.128-.97v-9.992c0-.431-.043-.748-.129-.95a.713.713 0 00-.47-.41c-.213-.086-.562-.129-1.046-.129-.042 0-.064-.043-.064-.13 0-.086.022-.129.064-.129l1.153.022a37.81 37.81 0 001.58.043c.542 0 1.168-.015 1.88-.043l1.174-.022c.029 0 .043.043.043.13 0 .086-.014.13-.043.13-.512 0-.89.042-1.132.129a.85.85 0 00-.512.453c-.086.201-.128.518-.128.95v4.38h6.897v-4.38c0-.432-.043-.749-.128-.95a.776.776 0 00-.491-.453c-.242-.087-.627-.13-1.153-.13-.043 0-.065-.043-.065-.13 0-.086.022-.129.065-.129l1.046.022c.712.028 1.352.043 1.922.043.384 0 .932-.015 1.644-.043l1.196-.022c.042 0 .064.043.064.13 0 .086-.022.13-.064.13-.484 0-.848.042-1.09.129a.713.713 0 00-.47.41c-.07.201-.106.518-.106.95v9.99c0 .432.036.755.107.971a.713.713 0 00.47.41c.227.072.59.108 1.088.108zM26.3 51.31c0-.029.028-.043.085-.043.043 0 .079.014.107.043.043.014.064.029.064.043a24.521 24.521 0 00-.213 3.064.433.433 0 01-.064.26c-.043.042-.128.064-.257.064h-9.438c-.042 0-.064-.043-.064-.13 0-.086.022-.129.064-.129.456 0 .783-.036.983-.108a.644.644 0 00.427-.41c.07-.216.106-.54.106-.97v-9.992c0-.431-.035-.748-.106-.95a.644.644 0 00-.427-.41c-.214-.086-.541-.129-.983-.129-.042 0-.064-.043-.064-.13 0-.086.022-.129.064-.129h9.054c.142 0 .213.065.213.194l.043 2.87c0 .03-.042.05-.128.065-.071.014-.114 0-.128-.043-.228-.834-.612-1.453-1.153-1.856s-1.253-.604-2.135-.604h-.641c-.427 0-.74.093-.94.28-.199.188-.298.475-.298.864v4.402h1.772c.826 0 1.459-.144 1.9-.432.442-.288.662-.69.662-1.208 0-.043.036-.065.107-.065.085 0 .128.022.128.065l-.021 1.942.021 1.036c.029.489.043.877.043 1.165 0 .029-.043.043-.128.043-.086 0-.128-.014-.128-.043 0-.59-.228-1.05-.684-1.381-.441-.345-1.082-.518-1.922-.518h-1.75v4.877c0 .417.078.726.234.928.157.201.406.302.748.302h.704c1.11 0 2-.23 2.67-.69.669-.461 1.16-1.173 1.473-2.137zm8.152 3.517c-.456 0-.997-.021-1.623-.064a42.084 42.084 0 00-.854-.044 25.519 25.519 0 00-1.11-.021l-1.58.021c-.285.015-.67.022-1.154.022-.028 0-.043-.043-.043-.13 0-.086.015-.129.043-.129.456 0 .79-.036 1.004-.108a.644.644 0 00.427-.41c.085-.216.128-.54.128-.97v-9.992c0-.431-.043-.748-.128-.95a.644.644 0 00-.427-.41c-.2-.086-.52-.129-.961-.129-.043 0-.064-.043-.064-.13 0-.086.021-.129.064-.129l1.132.022c.654.028 1.174.043 1.558.043.584 0 1.182-.022 1.794-.065a46.55 46.55 0 011.495-.043c1.438 0 2.712.288 3.822.863 1.124.576 1.993 1.36 2.605 2.352.612.993.918 2.108.918 3.345 0 1.395-.32 2.633-.96 3.712a6.57 6.57 0 01-2.563 2.481c-1.068.576-2.242.863-3.523.863zm-.214-.496c.911 0 1.715-.23 2.413-.69.697-.475 1.238-1.173 1.623-2.094.398-.92.598-2.02.598-3.301 0-1.223-.185-2.33-.556-3.323-.37-1.007-.896-1.799-1.58-2.374a3.57 3.57 0 00-2.37-.863c-.882 0-1.487.086-1.815.259-.327.172-.49.54-.49 1.1v9.71c0 .576.149.986.447 1.23.3.231.876.346 1.73.346zM51.28 55c-1.566 0-2.933-.302-4.1-.906-1.168-.605-2.057-1.425-2.67-2.46-.611-1.05-.918-2.216-.918-3.496 0-1.381.35-2.611 1.047-3.69.711-1.093 1.68-1.935 2.904-2.525 1.238-.604 2.619-.906 4.142-.906.67 0 1.346.057 2.029.172.683.101 1.231.238 1.644.41.128.044.206.101.235.173.042.058.071.166.085.324l.278 3c0 .042-.036.071-.107.086-.071.014-.12-.008-.15-.065-.498-1.108-1.188-1.971-2.07-2.59-.869-.618-1.865-.928-2.99-.928-1.452 0-2.563.511-3.331 1.533-.755 1.021-1.132 2.416-1.132 4.186 0 1.424.242 2.697.726 3.82.484 1.107 1.153 1.97 2.007 2.589a4.968 4.968 0 002.904.906c.584 0 1.032-.065 1.346-.194.313-.13.54-.381.683-.755.142-.374.213-.928.213-1.662 0-.748-.042-1.266-.128-1.554a.846.846 0 00-.555-.604c-.27-.1-.747-.15-1.43-.15-.086 0-.129-.058-.129-.173 0-.044.007-.08.022-.108.028-.044.057-.065.085-.065a51.62 51.62 0 002.925.108c.727 0 1.48-.022 2.264-.065.028 0 .05.022.064.065.028.029.043.057.043.086 0 .1-.036.151-.107.151-.256-.014-.434.036-.534.151-.1.1-.164.317-.192.648-.029.316-.043.892-.043 1.726 0 .647.021 1.108.064 1.38.057.274.086.447.086.519 0 .086-.022.144-.064.172a.488.488 0 01-.193.087c-1.836.403-3.487.604-4.953.604zm17.205-3.69c0-.029.028-.043.085-.043.043 0 .078.014.107.043.043.014.064.029.064.043a24.522 24.522 0 00-.214 3.064.433.433 0 01-.064.26c-.042.042-.128.064-.256.064H58.77c-.043 0-.064-.043-.064-.13 0-.086.021-.129.064-.129.456 0 .783-.036.982-.108a.644.644 0 00.427-.41c.072-.216.107-.54.107-.97v-9.992c0-.431-.035-.748-.107-.95a.644.644 0 00-.427-.41c-.213-.086-.54-.129-.982-.129-.043 0-.064-.043-.064-.13 0-.086.021-.129.064-.129h9.054c.142 0 .213.065.213.194l.043 2.87c0 .03-.043.05-.128.065-.071.014-.114 0-.128-.043-.228-.834-.612-1.453-1.153-1.856s-1.253-.604-2.136-.604h-.64c-.427 0-.74.093-.94.28-.199.188-.299.475-.299.864v4.402h1.773c.825 0 1.459-.144 1.9-.432.441-.288.662-.69.662-1.208 0-.043.036-.065.107-.065.085 0 .128.022.128.065l-.021 1.942.02 1.036c.03.489.044.877.044 1.165 0 .029-.043.043-.129.043-.085 0-.128-.014-.128-.043 0-.59-.227-1.05-.683-1.381-.441-.345-1.082-.518-1.922-.518h-1.75v4.877c0 .417.078.726.234.928.157.201.406.302.748.302h.704c1.11 0 2-.23 2.67-.69.668-.461 1.16-1.173 1.473-2.137zm16.821 3.172c.042 0 .064.043.064.13 0 .086-.022.13-.064.13-.498 0-.897-.008-1.196-.023l-1.644-.021-1.922.021c-.256.015-.605.022-1.046.022-.043 0-.064-.043-.064-.13 0-.086.021-.129.064-.129.526 0 .91-.036 1.153-.108.242-.072.406-.208.49-.41.086-.201.129-.525.129-.97V48.03h-6.897v4.963c0 .432.043.755.128.971.085.202.25.338.491.41.242.072.627.108 1.153.108.029 0 .043.043.043.13 0 .086-.014.13-.043.13-.498 0-.896-.008-1.195-.023l-1.858-.021-1.602.021c-.284.015-.676.022-1.174.022-.029 0-.043-.043-.043-.13 0-.086.014-.129.043-.129.498 0 .861-.036 1.089-.108a.713.713 0 00.47-.41c.085-.216.128-.54.128-.97v-9.992c0-.431-.043-.748-.128-.95a.713.713 0 00-.47-.41c-.214-.086-.562-.129-1.046-.129-.043 0-.064-.043-.064-.13 0-.086.02-.129.064-.129l1.153.022c.654.028 1.181.043 1.58.043.54 0 1.167-.015 1.879-.043l1.174-.022c.029 0 .043.043.043.13 0 .086-.014.13-.043.13-.512 0-.89.042-1.131.129a.851.851 0 00-.513.453c-.085.201-.128.518-.128.95v4.38h6.897v-4.38c0-.432-.043-.749-.128-.95a.776.776 0 00-.491-.453c-.242-.087-.627-.13-1.153-.13-.043 0-.064-.043-.064-.13 0-.086.021-.129.064-.129l1.046.022c.712.028 1.352.043 1.922.043.384 0 .932-.015 1.644-.043l1.196-.022c.042 0 .064.043.064.13 0 .086-.022.13-.064.13-.484 0-.847.042-1.09.129a.713.713 0 00-.469.41c-.071.201-.107.518-.107.95v9.99c0 .432.036.755.107.971a.713.713 0 00.47.41c.228.072.59.108 1.089.108zm8.491.518c-1.324 0-2.505-.31-3.544-.928a6.6 6.6 0 01-2.392-2.546 7.574 7.574 0 01-.833-3.518c0-1.481.37-2.747 1.11-3.797a6.962 6.962 0 012.84-2.396c1.168-.532 2.357-.798 3.567-.798 1.352 0 2.54.323 3.566.97a6.323 6.323 0 012.348 2.526 7.045 7.045 0 01.833 3.344 6.66 6.66 0 01-1.025 3.604 7.37 7.37 0 01-2.754 2.59 7.522 7.522 0 01-3.716.949zm.705-.54c.797 0 1.509-.23 2.135-.69.64-.475 1.139-1.158 1.495-2.05.356-.906.534-1.985.534-3.237 0-1.323-.2-2.503-.598-3.539-.399-1.05-.975-1.87-1.73-2.46-.754-.59-1.637-.885-2.647-.885-1.296 0-2.292.497-2.99 1.49-.697.978-1.046 2.352-1.046 4.121 0 1.395.206 2.647.619 3.755.427 1.093 1.004 1.949 1.73 2.568.74.618 1.573.928 2.498.928zm16.562.54c-1.566 0-2.933-.302-4.1-.906-1.167-.605-2.057-1.425-2.669-2.46-.612-1.05-.918-2.216-.918-3.496 0-1.381.349-2.611 1.046-3.69.712-1.093 1.68-1.935 2.904-2.525 1.239-.604 2.619-.906 4.143-.906.669 0 1.345.057 2.028.172.683.101 1.231.238 1.644.41.128.044.207.101.235.173.043.058.071.166.086.324l.277 3c0 .042-.035.071-.107.086-.071.014-.121-.008-.149-.065-.498-1.108-1.189-1.971-2.071-2.59-.869-.618-1.865-.928-2.99-.928-1.452 0-2.562.511-3.331 1.533-.754 1.021-1.132 2.416-1.132 4.186 0 1.424.242 2.697.726 3.82.484 1.107 1.154 1.97 2.008 2.589a4.966 4.966 0 002.904.906c.583 0 1.032-.065 1.345-.194.313-.13.541-.381.683-.755.143-.374.214-.928.214-1.662 0-.748-.043-1.266-.128-1.554a.848.848 0 00-.556-.604c-.27-.1-.747-.15-1.43-.15-.086 0-.128-.058-.128-.173 0-.044.007-.08.021-.108.029-.044.057-.065.085-.065a51.57 51.57 0 002.926.108c.726 0 1.48-.022 2.263-.065.029 0 .05.022.064.065.029.029.043.057.043.086 0 .1-.036.151-.107.151-.256-.014-.434.036-.534.151-.099.1-.163.317-.192.648-.028.316-.042.892-.042 1.726 0 .647.021 1.108.064 1.38.057.274.085.447.085.519 0 .086-.021.144-.064.172a.496.496 0 01-.192.087c-1.837.403-3.488.604-4.954.604zM83.571 17.654h30.361v1.278h-30.36v-1.278zm-82.228 0H30.44v1.278H1.343v-1.278z"/></mask><path d="M67.103 21.81c0 .425.34.769.76.769h1.394c.42 0 .76-.344.76-.768a.764.764 0 00-.76-.768h-1.394c-.42 0-.76.344-.76.768z" fill="#195557"/><path d="M77.055 25.974c-.156 0-.309.014-.458.04l-5.01-8.399c.02-.024.04-.05.057-.078l3.364-5.4a.775.775 0 00.042-.742.76.76 0 00-.601-.43l-5.519-.62.627-5.574a.772.772 0 00-.281-.687.753.753 0 00-.725-.125L63.31 5.813 61.48.515a.755.755 0 00-1.256-.29L56.304 4.2 52.381.226a.755.755 0 00-1.255.289l-1.83 5.298-5.241-1.854a.754.754 0 00-.725.125.772.772 0 00-.282.687l.627 5.575-5.519.62a.76.76 0 00-.6.43.775.775 0 00.041.742l2.959 4.748-4.702 2.984a.77.77 0 000 1.3l4.702 2.984-2.959 4.749a.775.775 0 00-.022.78.76.76 0 00.665.397l36.474.042a2.716 2.716 0 002.34 1.35c1.5 0 2.721-1.233 2.721-2.749s-1.22-2.75-2.72-2.75zm-2.717 2.611l-13.55-.015c-1.794-6.142 2.649-10.919 7.833-12.953l6.605 11.073a2.756 2.756 0 00-.888 1.895zm-32.09-4.263a.775.775 0 00-.239-1.06l-4.32-2.742 4.32-2.742a.775.775 0 00.239-1.06l-2.717-4.361 5.07-.57a.758.758 0 00.51-.284.773.773 0 00.161-.566l-.575-5.124 4.815 1.704a.754.754 0 00.969-.472l1.681-4.867 3.603 3.652a.756.756 0 001.077 0l3.602-3.652 1.681 4.867a.756.756 0 00.969.472l4.816-1.704-.576 5.125a.774.774 0 00.161.565c.126.16.31.262.51.284l5.07.57-2.362 3.791-1.114-1.867a.757.757 0 00-.9-.33c-3.485 1.22-6.348 3.35-8.06 5.998-1.706 2.637-2.192 5.598-1.428 8.619l-19.594-.023 2.631-4.223zm34.807 5.614c-.661 0-1.2-.544-1.2-1.213s.539-1.213 1.2-1.213c.662 0 1.201.544 1.201 1.213 0 .67-.539 1.213-1.2 1.213zM15.033 54.482c.042 0 .064.043.064.13 0 .086-.022.13-.064.13-.499 0-.897-.008-1.196-.023l-1.644-.021-1.922.021c-.256.015-.605.022-1.046.022-.043 0-.065-.043-.065-.13 0-.086.022-.129.065-.129.526 0 .91-.036 1.153-.108.242-.072.405-.208.49-.41.086-.201.129-.525.129-.97V48.03H4.1v4.963c0 .432.042.755.128.971.085.202.249.338.491.41.242.072.626.108 1.153.108.029 0 .043.043.043.13 0 .086-.014.13-.043.13-.498 0-.897-.008-1.196-.023l-1.857-.021-1.602.021a23.76 23.76 0 01-1.174.022c-.029 0-.043-.043-.043-.13 0-.086.014-.129.043-.129.498 0 .86-.036 1.089-.108a.713.713 0 00.47-.41c.085-.216.128-.54.128-.97v-9.992c0-.431-.043-.748-.129-.95a.713.713 0 00-.47-.41c-.213-.086-.562-.129-1.046-.129-.042 0-.064-.043-.064-.13 0-.086.022-.129.064-.129l1.153.022a37.81 37.81 0 001.58.043c.542 0 1.168-.015 1.88-.043l1.174-.022c.029 0 .043.043.043.13 0 .086-.014.13-.043.13-.512 0-.89.042-1.132.129a.85.85 0 00-.512.453c-.086.201-.128.518-.128.95v4.38h6.897v-4.38c0-.432-.043-.749-.128-.95a.776.776 0 00-.491-.453c-.242-.087-.627-.13-1.153-.13-.043 0-.065-.043-.065-.13 0-.086.022-.129.065-.129l1.046.022c.712.028 1.352.043 1.922.043.384 0 .932-.015 1.644-.043l1.196-.022c.042 0 .064.043.064.13 0 .086-.022.13-.064.13-.484 0-.848.042-1.09.129a.713.713 0 00-.47.41c-.07.201-.106.518-.106.95v9.99c0 .432.036.755.107.971a.713.713 0 00.47.41c.227.072.59.108 1.088.108zM26.3 51.31c0-.029.028-.043.085-.043.043 0 .079.014.107.043.043.014.064.029.064.043a24.521 24.521 0 00-.213 3.064.433.433 0 01-.064.26c-.043.042-.128.064-.257.064h-9.438c-.042 0-.064-.043-.064-.13 0-.086.022-.129.064-.129.456 0 .783-.036.983-.108a.644.644 0 00.427-.41c.07-.216.106-.54.106-.97v-9.992c0-.431-.035-.748-.106-.95a.644.644 0 00-.427-.41c-.214-.086-.541-.129-.983-.129-.042 0-.064-.043-.064-.13 0-.086.022-.129.064-.129h9.054c.142 0 .213.065.213.194l.043 2.87c0 .03-.042.05-.128.065-.071.014-.114 0-.128-.043-.228-.834-.612-1.453-1.153-1.856s-1.253-.604-2.135-.604h-.641c-.427 0-.74.093-.94.28-.199.188-.298.475-.298.864v4.402h1.772c.826 0 1.459-.144 1.9-.432.442-.288.662-.69.662-1.208 0-.043.036-.065.107-.065.085 0 .128.022.128.065l-.021 1.942.021 1.036c.029.489.043.877.043 1.165 0 .029-.043.043-.128.043-.086 0-.128-.014-.128-.043 0-.59-.228-1.05-.684-1.381-.441-.345-1.082-.518-1.922-.518h-1.75v4.877c0 .417.078.726.234.928.157.201.406.302.748.302h.704c1.11 0 2-.23 2.67-.69.669-.461 1.16-1.173 1.473-2.137zm8.152 3.517c-.456 0-.997-.021-1.623-.064a42.084 42.084 0 00-.854-.044 25.519 25.519 0 00-1.11-.021l-1.58.021c-.285.015-.67.022-1.154.022-.028 0-.043-.043-.043-.13 0-.086.015-.129.043-.129.456 0 .79-.036 1.004-.108a.644.644 0 00.427-.41c.085-.216.128-.54.128-.97v-9.992c0-.431-.043-.748-.128-.95a.644.644 0 00-.427-.41c-.2-.086-.52-.129-.961-.129-.043 0-.064-.043-.064-.13 0-.086.021-.129.064-.129l1.132.022c.654.028 1.174.043 1.558.043.584 0 1.182-.022 1.794-.065a46.55 46.55 0 011.495-.043c1.438 0 2.712.288 3.822.863 1.124.576 1.993 1.36 2.605 2.352.612.993.918 2.108.918 3.345 0 1.395-.32 2.633-.96 3.712a6.57 6.57 0 01-2.563 2.481c-1.068.576-2.242.863-3.523.863zm-.214-.496c.911 0 1.715-.23 2.413-.69.697-.475 1.238-1.173 1.623-2.094.398-.92.598-2.02.598-3.301 0-1.223-.185-2.33-.556-3.323-.37-1.007-.896-1.799-1.58-2.374a3.57 3.57 0 00-2.37-.863c-.882 0-1.487.086-1.815.259-.327.172-.49.54-.49 1.1v9.71c0 .576.149.986.447 1.23.3.231.876.346 1.73.346zM51.28 55c-1.566 0-2.933-.302-4.1-.906-1.168-.605-2.057-1.425-2.67-2.46-.611-1.05-.918-2.216-.918-3.496 0-1.381.35-2.611 1.047-3.69.711-1.093 1.68-1.935 2.904-2.525 1.238-.604 2.619-.906 4.142-.906.67 0 1.346.057 2.029.172.683.101 1.231.238 1.644.41.128.044.206.101.235.173.042.058.071.166.085.324l.278 3c0 .042-.036.071-.107.086-.071.014-.12-.008-.15-.065-.498-1.108-1.188-1.971-2.07-2.59-.869-.618-1.865-.928-2.99-.928-1.452 0-2.563.511-3.331 1.533-.755 1.021-1.132 2.416-1.132 4.186 0 1.424.242 2.697.726 3.82.484 1.107 1.153 1.97 2.007 2.589a4.968 4.968 0 002.904.906c.584 0 1.032-.065 1.346-.194.313-.13.54-.381.683-.755.142-.374.213-.928.213-1.662 0-.748-.042-1.266-.128-1.554a.846.846 0 00-.555-.604c-.27-.1-.747-.15-1.43-.15-.086 0-.129-.058-.129-.173 0-.044.007-.08.022-.108.028-.044.057-.065.085-.065a51.62 51.62 0 002.925.108c.727 0 1.48-.022 2.264-.065.028 0 .05.022.064.065.028.029.043.057.043.086 0 .1-.036.151-.107.151-.256-.014-.434.036-.534.151-.1.1-.164.317-.192.648-.029.316-.043.892-.043 1.726 0 .647.021 1.108.064 1.38.057.274.086.447.086.519 0 .086-.022.144-.064.172a.488.488 0 01-.193.087c-1.836.403-3.487.604-4.953.604zm17.205-3.69c0-.029.028-.043.085-.043.043 0 .078.014.107.043.043.014.064.029.064.043a24.522 24.522 0 00-.214 3.064.433.433 0 01-.064.26c-.042.042-.128.064-.256.064H58.77c-.043 0-.064-.043-.064-.13 0-.086.021-.129.064-.129.456 0 .783-.036.982-.108a.644.644 0 00.427-.41c.072-.216.107-.54.107-.97v-9.992c0-.431-.035-.748-.107-.95a.644.644 0 00-.427-.41c-.213-.086-.54-.129-.982-.129-.043 0-.064-.043-.064-.13 0-.086.021-.129.064-.129h9.054c.142 0 .213.065.213.194l.043 2.87c0 .03-.043.05-.128.065-.071.014-.114 0-.128-.043-.228-.834-.612-1.453-1.153-1.856s-1.253-.604-2.136-.604h-.64c-.427 0-.74.093-.94.28-.199.188-.299.475-.299.864v4.402h1.773c.825 0 1.459-.144 1.9-.432.441-.288.662-.69.662-1.208 0-.043.036-.065.107-.065.085 0 .128.022.128.065l-.021 1.942.02 1.036c.03.489.044.877.044 1.165 0 .029-.043.043-.129.043-.085 0-.128-.014-.128-.043 0-.59-.227-1.05-.683-1.381-.441-.345-1.082-.518-1.922-.518h-1.75v4.877c0 .417.078.726.234.928.157.201.406.302.748.302h.704c1.11 0 2-.23 2.67-.69.668-.461 1.16-1.173 1.473-2.137zm16.821 3.172c.042 0 .064.043.064.13 0 .086-.022.13-.064.13-.498 0-.897-.008-1.196-.023l-1.644-.021-1.922.021c-.256.015-.605.022-1.046.022-.043 0-.064-.043-.064-.13 0-.086.021-.129.064-.129.526 0 .91-.036 1.153-.108.242-.072.406-.208.49-.41.086-.201.129-.525.129-.97V48.03h-6.897v4.963c0 .432.043.755.128.971.085.202.25.338.491.41.242.072.627.108 1.153.108.029 0 .043.043.043.13 0 .086-.014.13-.043.13-.498 0-.896-.008-1.195-.023l-1.858-.021-1.602.021c-.284.015-.676.022-1.174.022-.029 0-.043-.043-.043-.13 0-.086.014-.129.043-.129.498 0 .861-.036 1.089-.108a.713.713 0 00.47-.41c.085-.216.128-.54.128-.97v-9.992c0-.431-.043-.748-.128-.95a.713.713 0 00-.47-.41c-.214-.086-.562-.129-1.046-.129-.043 0-.064-.043-.064-.13 0-.086.02-.129.064-.129l1.153.022c.654.028 1.181.043 1.58.043.54 0 1.167-.015 1.879-.043l1.174-.022c.029 0 .043.043.043.13 0 .086-.014.13-.043.13-.512 0-.89.042-1.131.129a.851.851 0 00-.513.453c-.085.201-.128.518-.128.95v4.38h6.897v-4.38c0-.432-.043-.749-.128-.95a.776.776 0 00-.491-.453c-.242-.087-.627-.13-1.153-.13-.043 0-.064-.043-.064-.13 0-.086.021-.129.064-.129l1.046.022c.712.028 1.352.043 1.922.043.384 0 .932-.015 1.644-.043l1.196-.022c.042 0 .064.043.064.13 0 .086-.022.13-.064.13-.484 0-.847.042-1.09.129a.713.713 0 00-.469.41c-.071.201-.107.518-.107.95v9.99c0 .432.036.755.107.971a.713.713 0 00.47.41c.228.072.59.108 1.089.108zm8.491.518c-1.324 0-2.505-.31-3.544-.928a6.6 6.6 0 01-2.392-2.546 7.574 7.574 0 01-.833-3.518c0-1.481.37-2.747 1.11-3.797a6.962 6.962 0 012.84-2.396c1.168-.532 2.357-.798 3.567-.798 1.352 0 2.54.323 3.566.97a6.323 6.323 0 012.348 2.526 7.045 7.045 0 01.833 3.344 6.66 6.66 0 01-1.025 3.604 7.37 7.37 0 01-2.754 2.59 7.522 7.522 0 01-3.716.949zm.705-.54c.797 0 1.509-.23 2.135-.69.64-.475 1.139-1.158 1.495-2.05.356-.906.534-1.985.534-3.237 0-1.323-.2-2.503-.598-3.539-.399-1.05-.975-1.87-1.73-2.46-.754-.59-1.637-.885-2.647-.885-1.296 0-2.292.497-2.99 1.49-.697.978-1.046 2.352-1.046 4.121 0 1.395.206 2.647.619 3.755.427 1.093 1.004 1.949 1.73 2.568.74.618 1.573.928 2.498.928zm16.562.54c-1.566 0-2.933-.302-4.1-.906-1.167-.605-2.057-1.425-2.669-2.46-.612-1.05-.918-2.216-.918-3.496 0-1.381.349-2.611 1.046-3.69.712-1.093 1.68-1.935 2.904-2.525 1.239-.604 2.619-.906 4.143-.906.669 0 1.345.057 2.028.172.683.101 1.231.238 1.644.41.128.044.207.101.235.173.043.058.071.166.086.324l.277 3c0 .042-.035.071-.107.086-.071.014-.121-.008-.149-.065-.498-1.108-1.189-1.971-2.071-2.59-.869-.618-1.865-.928-2.99-.928-1.452 0-2.562.511-3.331 1.533-.754 1.021-1.132 2.416-1.132 4.186 0 1.424.242 2.697.726 3.82.484 1.107 1.154 1.97 2.008 2.589a4.966 4.966 0 002.904.906c.583 0 1.032-.065 1.345-.194.313-.13.541-.381.683-.755.143-.374.214-.928.214-1.662 0-.748-.043-1.266-.128-1.554a.848.848 0 00-.556-.604c-.27-.1-.747-.15-1.43-.15-.086 0-.128-.058-.128-.173 0-.044.007-.08.021-.108.029-.044.057-.065.085-.065a51.57 51.57 0 002.926.108c.726 0 1.48-.022 2.263-.065.029 0 .05.022.064.065.029.029.043.057.043.086 0 .1-.036.151-.107.151-.256-.014-.434.036-.534.151-.099.1-.163.317-.192.648-.028.316-.042.892-.042 1.726 0 .647.021 1.108.064 1.38.057.274.085.447.085.519 0 .086-.021.144-.064.172a.496.496 0 01-.192.087c-1.837.403-3.488.604-4.954.604zM83.571 17.654h30.361v1.278h-30.36v-1.278zm-82.228 0H30.44v1.278H1.343v-1.278z" fill="#195557"/><path d="M67.103 21.81c0 .425.34.769.76.769h1.394c.42 0 .76-.344.76-.768a.764.764 0 00-.76-.768h-1.394c-.42 0-.76.344-.76.768z" stroke="#000" stroke-width="2" mask="url(#ea)"/><path d="M77.055 25.974c-.156 0-.309.014-.458.04l-5.01-8.399c.02-.024.04-.05.057-.078l3.364-5.4a.775.775 0 00.042-.742.76.76 0 00-.601-.43l-5.519-.62.627-5.574a.772.772 0 00-.281-.687.753.753 0 00-.725-.125L63.31 5.813 61.48.515a.755.755 0 00-1.256-.29L56.304 4.2 52.381.226a.755.755 0 00-1.255.289l-1.83 5.298-5.241-1.854a.754.754 0 00-.725.125.772.772 0 00-.282.687l.627 5.575-5.519.62a.76.76 0 00-.6.43.775.775 0 00.041.742l2.959 4.748-4.702 2.984a.77.77 0 000 1.3l4.702 2.984-2.959 4.749a.775.775 0 00-.022.78.76.76 0 00.665.397l36.474.042a2.716 2.716 0 002.34 1.35c1.5 0 2.721-1.233 2.721-2.749s-1.22-2.75-2.72-2.75zm-2.717 2.611l-13.55-.015c-1.794-6.142 2.649-10.919 7.833-12.953l6.605 11.073a2.756 2.756 0 00-.888 1.895zm-32.09-4.263a.775.775 0 00-.239-1.06l-4.32-2.742 4.32-2.742a.775.775 0 00.239-1.06l-2.717-4.361 5.07-.57a.758.758 0 00.51-.284.773.773 0 00.161-.566l-.575-5.124 4.815 1.704a.754.754 0 00.969-.472l1.681-4.867 3.603 3.652a.756.756 0 001.077 0l3.602-3.652 1.681 4.867a.756.756 0 00.969.472l4.816-1.704-.576 5.125a.774.774 0 00.161.565c.126.16.31.262.51.284l5.07.57-2.362 3.791-1.114-1.867a.757.757 0 00-.9-.33c-3.485 1.22-6.348 3.35-8.06 5.998-1.706 2.637-2.192 5.598-1.428 8.619l-19.594-.023 2.631-4.223zm34.807 5.614c-.661 0-1.2-.544-1.2-1.213s.539-1.213 1.2-1.213c.662 0 1.201.544 1.201 1.213 0 .67-.539 1.213-1.2 1.213zM15.033 54.482c.042 0 .064.043.064.13 0 .086-.022.13-.064.13-.499 0-.897-.008-1.196-.023l-1.644-.021-1.922.021c-.256.015-.605.022-1.046.022-.043 0-.065-.043-.065-.13 0-.086.022-.129.065-.129.526 0 .91-.036 1.153-.108.242-.072.405-.208.49-.41.086-.201.129-.525.129-.97V48.03H4.1v4.963c0 .432.042.755.128.971.085.202.249.338.491.41.242.072.626.108 1.153.108.029 0 .043.043.043.13 0 .086-.014.13-.043.13-.498 0-.897-.008-1.196-.023l-1.857-.021-1.602.021a23.76 23.76 0 01-1.174.022c-.029 0-.043-.043-.043-.13 0-.086.014-.129.043-.129.498 0 .86-.036 1.089-.108a.713.713 0 00.47-.41c.085-.216.128-.54.128-.97v-9.992c0-.431-.043-.748-.129-.95a.713.713 0 00-.47-.41c-.213-.086-.562-.129-1.046-.129-.042 0-.064-.043-.064-.13 0-.086.022-.129.064-.129l1.153.022a37.81 37.81 0 001.58.043c.542 0 1.168-.015 1.88-.043l1.174-.022c.029 0 .043.043.043.13 0 .086-.014.13-.043.13-.512 0-.89.042-1.132.129a.85.85 0 00-.512.453c-.086.201-.128.518-.128.95v4.38h6.897v-4.38c0-.432-.043-.749-.128-.95a.776.776 0 00-.491-.453c-.242-.087-.627-.13-1.153-.13-.043 0-.065-.043-.065-.13 0-.086.022-.129.065-.129l1.046.022c.712.028 1.352.043 1.922.043.384 0 .932-.015 1.644-.043l1.196-.022c.042 0 .064.043.064.13 0 .086-.022.13-.064.13-.484 0-.848.042-1.09.129a.713.713 0 00-.47.41c-.07.201-.106.518-.106.95v9.99c0 .432.036.755.107.971a.713.713 0 00.47.41c.227.072.59.108 1.088.108zM26.3 51.31c0-.029.028-.043.085-.043.043 0 .079.014.107.043.043.014.064.029.064.043a24.521 24.521 0 00-.213 3.064.433.433 0 01-.064.26c-.043.042-.128.064-.257.064h-9.438c-.042 0-.064-.043-.064-.13 0-.086.022-.129.064-.129.456 0 .783-.036.983-.108a.644.644 0 00.427-.41c.07-.216.106-.54.106-.97v-9.992c0-.431-.035-.748-.106-.95a.644.644 0 00-.427-.41c-.214-.086-.541-.129-.983-.129-.042 0-.064-.043-.064-.13 0-.086.022-.129.064-.129h9.054c.142 0 .213.065.213.194l.043 2.87c0 .03-.042.05-.128.065-.071.014-.114 0-.128-.043-.228-.834-.612-1.453-1.153-1.856s-1.253-.604-2.135-.604h-.641c-.427 0-.74.093-.94.28-.199.188-.298.475-.298.864v4.402h1.772c.826 0 1.459-.144 1.9-.432.442-.288.662-.69.662-1.208 0-.043.036-.065.107-.065.085 0 .128.022.128.065l-.021 1.942.021 1.036c.029.489.043.877.043 1.165 0 .029-.043.043-.128.043-.086 0-.128-.014-.128-.043 0-.59-.228-1.05-.684-1.381-.441-.345-1.082-.518-1.922-.518h-1.75v4.877c0 .417.078.726.234.928.157.201.406.302.748.302h.704c1.11 0 2-.23 2.67-.69.669-.461 1.16-1.173 1.473-2.137zm8.152 3.517c-.456 0-.997-.021-1.623-.064a42.084 42.084 0 00-.854-.044 25.519 25.519 0 00-1.11-.021l-1.58.021c-.285.015-.67.022-1.154.022-.028 0-.043-.043-.043-.13 0-.086.015-.129.043-.129.456 0 .79-.036 1.004-.108a.644.644 0 00.427-.41c.085-.216.128-.54.128-.97v-9.992c0-.431-.043-.748-.128-.95a.644.644 0 00-.427-.41c-.2-.086-.52-.129-.961-.129-.043 0-.064-.043-.064-.13 0-.086.021-.129.064-.129l1.132.022c.654.028 1.174.043 1.558.043.584 0 1.182-.022 1.794-.065a46.55 46.55 0 011.495-.043c1.438 0 2.712.288 3.822.863 1.124.576 1.993 1.36 2.605 2.352.612.993.918 2.108.918 3.345 0 1.395-.32 2.633-.96 3.712a6.57 6.57 0 01-2.563 2.481c-1.068.576-2.242.863-3.523.863zm-.214-.496c.911 0 1.715-.23 2.413-.69.697-.475 1.238-1.173 1.623-2.094.398-.92.598-2.02.598-3.301 0-1.223-.185-2.33-.556-3.323-.37-1.007-.896-1.799-1.58-2.374a3.57 3.57 0 00-2.37-.863c-.882 0-1.487.086-1.815.259-.327.172-.49.54-.49 1.1v9.71c0 .576.149.986.447 1.23.3.231.876.346 1.73.346zM51.28 55c-1.566 0-2.933-.302-4.1-.906-1.168-.605-2.057-1.425-2.67-2.46-.611-1.05-.918-2.216-.918-3.496 0-1.381.35-2.611 1.047-3.69.711-1.093 1.68-1.935 2.904-2.525 1.238-.604 2.619-.906 4.142-.906.67 0 1.346.057 2.029.172.683.101 1.231.238 1.644.41.128.044.206.101.235.173.042.058.071.166.085.324l.278 3c0 .042-.036.071-.107.086-.071.014-.12-.008-.15-.065-.498-1.108-1.188-1.971-2.07-2.59-.869-.618-1.865-.928-2.99-.928-1.452 0-2.563.511-3.331 1.533-.755 1.021-1.132 2.416-1.132 4.186 0 1.424.242 2.697.726 3.82.484 1.107 1.153 1.97 2.007 2.589a4.968 4.968 0 002.904.906c.584 0 1.032-.065 1.346-.194.313-.13.54-.381.683-.755.142-.374.213-.928.213-1.662 0-.748-.042-1.266-.128-1.554a.846.846 0 00-.555-.604c-.27-.1-.747-.15-1.43-.15-.086 0-.129-.058-.129-.173 0-.044.007-.08.022-.108.028-.044.057-.065.085-.065a51.62 51.62 0 002.925.108c.727 0 1.48-.022 2.264-.065.028 0 .05.022.064.065.028.029.043.057.043.086 0 .1-.036.151-.107.151-.256-.014-.434.036-.534.151-.1.1-.164.317-.192.648-.029.316-.043.892-.043 1.726 0 .647.021 1.108.064 1.38.057.274.086.447.086.519 0 .086-.022.144-.064.172a.488.488 0 01-.193.087c-1.836.403-3.487.604-4.953.604zm17.205-3.69c0-.029.028-.043.085-.043.043 0 .078.014.107.043.043.014.064.029.064.043a24.522 24.522 0 00-.214 3.064.433.433 0 01-.064.26c-.042.042-.128.064-.256.064H58.77c-.043 0-.064-.043-.064-.13 0-.086.021-.129.064-.129.456 0 .783-.036.982-.108a.644.644 0 00.427-.41c.072-.216.107-.54.107-.97v-9.992c0-.431-.035-.748-.107-.95a.644.644 0 00-.427-.41c-.213-.086-.54-.129-.982-.129-.043 0-.064-.043-.064-.13 0-.086.021-.129.064-.129h9.054c.142 0 .213.065.213.194l.043 2.87c0 .03-.043.05-.128.065-.071.014-.114 0-.128-.043-.228-.834-.612-1.453-1.153-1.856s-1.253-.604-2.136-.604h-.64c-.427 0-.74.093-.94.28-.199.188-.299.475-.299.864v4.402h1.773c.825 0 1.459-.144 1.9-.432.441-.288.662-.69.662-1.208 0-.043.036-.065.107-.065.085 0 .128.022.128.065l-.021 1.942.02 1.036c.03.489.044.877.044 1.165 0 .029-.043.043-.129.043-.085 0-.128-.014-.128-.043 0-.59-.227-1.05-.683-1.381-.441-.345-1.082-.518-1.922-.518h-1.75v4.877c0 .417.078.726.234.928.157.201.406.302.748.302h.704c1.11 0 2-.23 2.67-.69.668-.461 1.16-1.173 1.473-2.137zm16.821 3.172c.042 0 .064.043.064.13 0 .086-.022.13-.064.13-.498 0-.897-.008-1.196-.023l-1.644-.021-1.922.021c-.256.015-.605.022-1.046.022-.043 0-.064-.043-.064-.13 0-.086.021-.129.064-.129.526 0 .91-.036 1.153-.108.242-.072.406-.208.49-.41.086-.201.129-.525.129-.97V48.03h-6.897v4.963c0 .432.043.755.128.971.085.202.25.338.491.41.242.072.627.108 1.153.108.029 0 .043.043.043.13 0 .086-.014.13-.043.13-.498 0-.896-.008-1.195-.023l-1.858-.021-1.602.021c-.284.015-.676.022-1.174.022-.029 0-.043-.043-.043-.13 0-.086.014-.129.043-.129.498 0 .861-.036 1.089-.108a.713.713 0 00.47-.41c.085-.216.128-.54.128-.97v-9.992c0-.431-.043-.748-.128-.95a.713.713 0 00-.47-.41c-.214-.086-.562-.129-1.046-.129-.043 0-.064-.043-.064-.13 0-.086.02-.129.064-.129l1.153.022c.654.028 1.181.043 1.58.043.54 0 1.167-.015 1.879-.043l1.174-.022c.029 0 .043.043.043.13 0 .086-.014.13-.043.13-.512 0-.89.042-1.131.129a.851.851 0 00-.513.453c-.085.201-.128.518-.128.95v4.38h6.897v-4.38c0-.432-.043-.749-.128-.95a.776.776 0 00-.491-.453c-.242-.087-.627-.13-1.153-.13-.043 0-.064-.043-.064-.13 0-.086.021-.129.064-.129l1.046.022c.712.028 1.352.043 1.922.043.384 0 .932-.015 1.644-.043l1.196-.022c.042 0 .064.043.064.13 0 .086-.022.13-.064.13-.484 0-.847.042-1.09.129a.713.713 0 00-.469.41c-.071.201-.107.518-.107.95v9.99c0 .432.036.755.107.971a.713.713 0 00.47.41c.228.072.59.108 1.089.108zm8.491.518c-1.324 0-2.505-.31-3.544-.928a6.6 6.6 0 01-2.392-2.546 7.574 7.574 0 01-.833-3.518c0-1.481.37-2.747 1.11-3.797a6.962 6.962 0 012.84-2.396c1.168-.532 2.357-.798 3.567-.798 1.352 0 2.54.323 3.566.97a6.323 6.323 0 012.348 2.526 7.045 7.045 0 01.833 3.344 6.66 6.66 0 01-1.025 3.604 7.37 7.37 0 01-2.754 2.59 7.522 7.522 0 01-3.716.949zm.705-.54c.797 0 1.509-.23 2.135-.69.64-.475 1.139-1.158 1.495-2.05.356-.906.534-1.985.534-3.237 0-1.323-.2-2.503-.598-3.539-.399-1.05-.975-1.87-1.73-2.46-.754-.59-1.637-.885-2.647-.885-1.296 0-2.292.497-2.99 1.49-.697.978-1.046 2.352-1.046 4.121 0 1.395.206 2.647.619 3.755.427 1.093 1.004 1.949 1.73 2.568.74.618 1.573.928 2.498.928zm16.562.54c-1.566 0-2.933-.302-4.1-.906-1.167-.605-2.057-1.425-2.669-2.46-.612-1.05-.918-2.216-.918-3.496 0-1.381.349-2.611 1.046-3.69.712-1.093 1.68-1.935 2.904-2.525 1.239-.604 2.619-.906 4.143-.906.669 0 1.345.057 2.028.172.683.101 1.231.238 1.644.41.128.044.207.101.235.173.043.058.071.166.086.324l.277 3c0 .042-.035.071-.107.086-.071.014-.121-.008-.149-.065-.498-1.108-1.189-1.971-2.071-2.59-.869-.618-1.865-.928-2.99-.928-1.452 0-2.562.511-3.331 1.533-.754 1.021-1.132 2.416-1.132 4.186 0 1.424.242 2.697.726 3.82.484 1.107 1.154 1.97 2.008 2.589a4.966 4.966 0 002.904.906c.583 0 1.032-.065 1.345-.194.313-.13.541-.381.683-.755.143-.374.214-.928.214-1.662 0-.748-.043-1.266-.128-1.554a.848.848 0 00-.556-.604c-.27-.1-.747-.15-1.43-.15-.086 0-.128-.058-.128-.173 0-.044.007-.08.021-.108.029-.044.057-.065.085-.065a51.57 51.57 0 002.926.108c.726 0 1.48-.022 2.263-.065.029 0 .05.022.064.065.029.029.043.057.043.086 0 .1-.036.151-.107.151-.256-.014-.434.036-.534.151-.099.1-.163.317-.192.648-.028.316-.042.892-.042 1.726 0 .647.021 1.108.064 1.38.057.274.085.447.085.519 0 .086-.021.144-.064.172a.496.496 0 01-.192.087c-1.837.403-3.488.604-4.954.604zM83.571 17.654h30.361v1.278h-30.36v-1.278zm-82.228 0H30.44v1.278H1.343v-1.278z" stroke="#000" stroke-width="2" mask="url(#ea)"/></svg><svg viewBox="0 0 30 30" id="fb" xmlns="http://www.w3.org/2000/svg"><path d="M25.59 4.373C22.673 1.472 19.11 0 15 0 10.852 0 7.278 1.473 4.378 4.375 1.473 7.277 0 10.853 0 15c0 4.108 1.472 7.672 4.373 10.59C7.275 28.517 10.85 30 15 30c4.112 0 7.675-1.483 10.593-4.405C28.518 22.673 30 19.108 30 15c0-4.147-1.483-7.723-4.41-10.627zm-2.353 18.865c-1.895 1.899-4.06 2.98-6.57 3.309v-8.214H20V15h-3.333v-2.333a1 1 0 011.001-1H20V8.333h-2.328c-1.237 0-2.269.455-3.095 1.37-.827.912-1.244 2.025-1.244 3.347V15H10v3.333h3.333v8.217c-2.536-.325-4.71-1.408-6.595-3.307C4.447 20.937 3.333 18.24 3.333 15c0-3.277 1.112-5.98 3.404-8.267 2.283-2.288 4.986-3.4 8.263-3.4 3.242 0 5.937 1.114 8.242 3.405 2.305 2.287 3.425 4.99 3.425 8.262 0 3.235-1.122 5.932-3.43 8.238z"/></svg><svg viewBox="0 0 132 57" id="footer-logo" xmlns="http://www.w3.org/2000/svg"><path d="M69.752 22.236c0 .433.35.783.783.783h1.436a.783.783 0 100-1.566h-1.436a.783.783 0 00-.783.783z"/><path d="M80.006 26.48c-.161 0-.319.015-.472.041l-5.161-8.562a.81.81 0 00.058-.08l3.466-5.504a.783.783 0 00-.576-1.196l-5.686-.631.645-5.684a.783.783 0 00-1.037-.828l-5.399 1.89-1.885-5.4A.783.783 0 0062.665.23l-4.04 4.052L54.585.23a.783.783 0 00-1.293.295l-1.886 5.401-5.4-1.89a.783.783 0 00-1.036.828l.645 5.684-5.685.631a.783.783 0 00-.577 1.196l3.048 4.84-4.843 3.043a.783.783 0 000 1.326l4.843 3.042-3.048 4.84a.783.783 0 00.662 1.201l37.58.042a2.804 2.804 0 002.411 1.378 2.806 2.806 0 002.803-2.804 2.806 2.806 0 00-2.803-2.802zm-2.8 2.663l-13.96-.016c-1.85-6.262 2.73-11.132 8.07-13.206l6.805 11.29a2.797 2.797 0 00-.914 1.932zm-33.062-4.346a.784.784 0 00-.246-1.08l-4.452-2.796 4.452-2.796a.783.783 0 00.246-1.08l-2.8-4.448 5.224-.58a.783.783 0 00.692-.866l-.593-5.225 4.962 1.737a.784.784 0 00.998-.48l1.732-4.962 3.712 3.723a.783.783 0 001.109 0l3.712-3.723 1.732 4.962a.783.783 0 00.998.48l4.962-1.736-.594 5.224a.783.783 0 00.692.867l5.224.58-2.434 3.866-1.148-1.905a.783.783 0 00-.927-.335c-3.591 1.243-6.54 3.415-8.305 6.114-1.758 2.69-2.258 5.707-1.471 8.787l-20.187-.023 2.71-4.305zm35.862 5.723a1.238 1.238 0 01-1.237-1.236 1.238 1.238 0 012.474-.001c0 .682-.555 1.237-1.237 1.237zM16.104 55.545c.044 0 .066.044.066.132 0 .088-.022.132-.066.132-.513 0-.924-.007-1.232-.022l-1.694-.022-1.98.022c-.264.015-.623.022-1.078.022-.044 0-.066-.044-.066-.132 0-.088.022-.132.066-.132.543 0 .939-.037 1.188-.11.25-.073.418-.213.506-.418.088-.205.132-.535.132-.99v-5.06H4.84v5.06c0 .44.044.77.132.99.088.205.257.345.506.418.25.073.645.11 1.188.11.03 0 .044.044.044.132 0 .088-.015.132-.044.132-.513 0-.924-.007-1.232-.022l-1.914-.022-1.65.022c-.293.015-.697.022-1.21.022-.03 0-.044-.044-.044-.132 0-.088.015-.132.044-.132.513 0 .887-.037 1.122-.11a.733.733 0 00.484-.418c.088-.22.132-.55.132-.99V43.841c0-.44-.044-.763-.132-.968a.732.732 0 00-.484-.418c-.22-.088-.58-.132-1.078-.132-.044 0-.066-.044-.066-.132 0-.088.022-.132.066-.132l1.188.022c.675.03 1.217.044 1.628.044.557 0 1.203-.015 1.936-.044l1.21-.022c.03 0 .044.044.044.132 0 .088-.015.132-.044.132-.528 0-.917.044-1.166.132a.874.874 0 00-.528.462c-.088.205-.132.528-.132.968v4.466h7.106v-4.466c0-.44-.044-.763-.132-.968-.088-.22-.257-.374-.506-.462-.25-.088-.645-.132-1.188-.132-.044 0-.066-.044-.066-.132 0-.088.022-.132.066-.132l1.078.022c.733.03 1.393.044 1.98.044.396 0 .96-.015 1.694-.044l1.232-.022c.044 0 .066.044.066.132 0 .088-.022.132-.066.132-.499 0-.873.044-1.122.132a.732.732 0 00-.484.418c-.073.205-.11.528-.11.968v10.186c0 .44.037.77.11.99.088.205.25.345.484.418.235.073.609.11 1.122.11zm11.609-3.234c0-.03.03-.044.088-.044a.15.15 0 01.11.044c.044.015.066.03.066.044a24.742 24.742 0 00-.22 3.124.438.438 0 01-.066.264c-.044.044-.132.066-.264.066h-9.724c-.044 0-.066-.044-.066-.132 0-.088.022-.132.066-.132.47 0 .806-.037 1.012-.11a.661.661 0 00.44-.418c.073-.22.11-.55.11-.99V43.841c0-.44-.037-.763-.11-.968a.66.66 0 00-.44-.418c-.22-.088-.558-.132-1.012-.132-.044 0-.066-.044-.066-.132 0-.088.022-.132.066-.132h9.328c.146 0 .22.066.22.198l.044 2.926c0 .03-.044.051-.132.066-.074.015-.118 0-.132-.044-.235-.85-.63-1.481-1.188-1.892-.558-.41-1.29-.616-2.2-.616h-.66c-.44 0-.763.095-.968.286-.206.19-.308.484-.308.88v4.488h1.826c.85 0 1.503-.147 1.958-.44.454-.293.682-.704.682-1.232 0-.044.036-.066.11-.066.088 0 .132.022.132.066l-.022 1.98.022 1.056c.03.499.044.895.044 1.188 0 .03-.044.044-.132.044-.088 0-.132-.015-.132-.044 0-.601-.235-1.07-.704-1.408-.455-.352-1.115-.528-1.98-.528h-1.804v4.972c0 .425.08.74.242.946.161.205.418.308.77.308h.726c1.144 0 2.06-.235 2.75-.704.69-.47 1.195-1.195 1.518-2.178zm8.398 3.586c-.469 0-1.026-.022-1.671-.066-.235-.015-.529-.03-.88-.044a26.546 26.546 0 00-1.145-.022l-1.627.022c-.294.015-.69.022-1.189.022-.029 0-.044-.044-.044-.132 0-.088.015-.132.044-.132.47 0 .814-.037 1.035-.11a.661.661 0 00.44-.418c.087-.22.131-.55.131-.99V43.841c0-.44-.043-.763-.131-.968a.66.66 0 00-.44-.418c-.206-.088-.536-.132-.99-.132-.044 0-.066-.044-.066-.132 0-.088.021-.132.066-.132l1.166.022c.674.03 1.21.044 1.606.044.6 0 1.217-.022 1.848-.066.762-.03 1.275-.044 1.54-.044 1.48 0 2.793.293 3.938.88 1.158.587 2.053 1.386 2.684 2.398.63 1.012.945 2.149.945 3.41 0 1.423-.33 2.684-.99 3.784a6.739 6.739 0 01-2.64 2.53c-1.1.587-2.31.88-3.63.88zm-.22-.506c.94 0 1.768-.235 2.486-.704.72-.484 1.276-1.195 1.672-2.134.411-.939.617-2.06.617-3.366 0-1.247-.191-2.376-.572-3.388-.382-1.027-.925-1.833-1.629-2.42a3.702 3.702 0 00-2.442-.88c-.909 0-1.532.088-1.87.264-.337.176-.505.55-.505 1.122v9.9c0 .587.153 1.005.461 1.254.308.235.902.352 1.782.352zm17.558.682c-1.613 0-3.021-.308-4.224-.924-1.203-.616-2.12-1.452-2.75-2.508-.63-1.07-.946-2.259-.946-3.564 0-1.408.36-2.662 1.078-3.762.733-1.115 1.73-1.973 2.992-2.574 1.276-.616 2.699-.924 4.268-.924.69 0 1.386.059 2.09.176.704.103 1.269.242 1.694.418.132.044.213.103.242.176.044.059.074.169.088.33l.286 3.058c0 .044-.037.073-.11.088-.073.015-.124-.007-.154-.066-.513-1.13-1.224-2.01-2.134-2.64-.895-.63-1.921-.946-3.08-.946-1.496 0-2.64.52-3.432 1.562-.777 1.041-1.166 2.464-1.166 4.268 0 1.452.25 2.75.748 3.894.499 1.13 1.188 2.01 2.068 2.64A5.157 5.157 0 0054 55.7c.601 0 1.063-.066 1.386-.198.323-.132.558-.389.704-.77.147-.381.22-.946.22-1.694 0-.763-.044-1.29-.132-1.584a.866.866 0 00-.572-.616c-.278-.103-.77-.154-1.474-.154-.088 0-.132-.059-.132-.176 0-.044.008-.08.022-.11.03-.044.059-.066.088-.066 1.247.073 2.252.11 3.014.11.748 0 1.526-.022 2.332-.066.03 0 .052.022.066.066.03.03.044.059.044.088 0 .103-.036.154-.11.154-.264-.015-.447.037-.55.154-.102.103-.169.323-.198.66-.03.323-.044.91-.044 1.76 0 .66.022 1.13.066 1.408.059.279.088.455.088.528 0 .088-.022.147-.066.176a.506.506 0 01-.198.088c-1.892.41-3.593.616-5.104.616zm17.727-3.762c0-.03.029-.044.088-.044a.15.15 0 01.11.044c.044.015.066.03.066.044a24.742 24.742 0 00-.22 3.124.438.438 0 01-.066.264c-.044.044-.132.066-.264.066h-9.724c-.044 0-.066-.044-.066-.132 0-.088.022-.132.066-.132.469 0 .806-.037 1.012-.11a.661.661 0 00.44-.418c.073-.22.11-.55.11-.99V43.841c0-.44-.037-.763-.11-.968a.66.66 0 00-.44-.418c-.22-.088-.558-.132-1.012-.132-.044 0-.066-.044-.066-.132 0-.088.022-.132.066-.132h9.328c.146 0 .22.066.22.198l.044 2.926c0 .03-.044.051-.132.066-.074.015-.118 0-.132-.044-.235-.85-.631-1.481-1.188-1.892-.558-.41-1.291-.616-2.2-.616h-.66c-.44 0-.763.095-.968.286-.206.19-.308.484-.308.88v4.488h1.826c.85 0 1.503-.147 1.958-.44.454-.293.682-.704.682-1.232 0-.044.036-.066.11-.066.088 0 .132.022.132.066l-.022 1.98.022 1.056c.029.499.044.895.044 1.188 0 .03-.044.044-.132.044-.088 0-.132-.015-.132-.044 0-.601-.235-1.07-.704-1.408-.455-.352-1.115-.528-1.98-.528H65.17v4.972c0 .425.08.74.242.946.161.205.418.308.77.308h.726c1.144 0 2.06-.235 2.75-.704.689-.47 1.195-1.195 1.518-2.178zm17.33 3.234c.044 0 .066.044.066.132 0 .088-.022.132-.066.132-.513 0-.924-.007-1.232-.022l-1.694-.022-1.98.022c-.264.015-.623.022-1.078.022-.044 0-.066-.044-.066-.132 0-.088.022-.132.066-.132.543 0 .939-.037 1.188-.11.25-.073.418-.213.506-.418.088-.205.132-.535.132-.99v-5.06h-7.106v5.06c0 .44.044.77.132.99.088.205.257.345.506.418.25.073.646.11 1.188.11.03 0 .044.044.044.132 0 .088-.014.132-.044.132-.513 0-.924-.007-1.232-.022l-1.914-.022-1.65.022c-.293.015-.696.022-1.21.022-.029 0-.044-.044-.044-.132 0-.088.015-.132.044-.132.514 0 .888-.037 1.122-.11a.733.733 0 00.484-.418c.088-.22.132-.55.132-.99V43.841c0-.44-.044-.763-.132-.968a.732.732 0 00-.484-.418c-.22-.088-.579-.132-1.078-.132-.044 0-.066-.044-.066-.132 0-.088.022-.132.066-.132l1.188.022c.675.03 1.218.044 1.628.044.558 0 1.203-.015 1.936-.044l1.21-.022c.03 0 .044.044.044.132 0 .088-.014.132-.044.132-.528 0-.916.044-1.166.132a.874.874 0 00-.528.462c-.088.205-.132.528-.132.968v4.466h7.106v-4.466c0-.44-.044-.763-.132-.968-.088-.22-.256-.374-.506-.462-.249-.088-.645-.132-1.188-.132-.044 0-.066-.044-.066-.132 0-.088.022-.132.066-.132l1.078.022c.734.03 1.394.044 1.98.044.396 0 .961-.015 1.694-.044l1.232-.022c.044 0 .066.044.066.132 0 .088-.022.132-.066.132-.498 0-.872.044-1.122.132a.732.732 0 00-.484.418c-.073.205-.11.528-.11.968v10.186c0 .44.037.77.11.99.088.205.25.345.484.418.235.073.609.11 1.122.11zm8.75.528c-1.365 0-2.582-.315-3.653-.946a6.76 6.76 0 01-2.464-2.596 7.657 7.657 0 01-.858-3.586c0-1.51.381-2.801 1.144-3.872a7.154 7.154 0 012.926-2.442c1.203-.543 2.427-.814 3.674-.814 1.393 0 2.618.33 3.674.99a6.475 6.475 0 012.42 2.574 7.132 7.132 0 01.858 3.41c0 1.335-.352 2.56-1.056 3.674a7.565 7.565 0 01-2.838 2.64 7.814 7.814 0 01-3.828.968zm.725-.55c.822 0 1.555-.235 2.2-.704.66-.484 1.173-1.18 1.54-2.09.367-.924.55-2.024.55-3.3 0-1.35-.205-2.552-.616-3.608-.411-1.07-1.005-1.907-1.782-2.508-.777-.601-1.687-.902-2.728-.902-1.334 0-2.361.506-3.08 1.518-.718.997-1.078 2.398-1.078 4.202 0 1.423.213 2.699.638 3.828.44 1.115 1.034 1.987 1.782 2.618.763.63 1.62.946 2.574.946zm17.064.55c-1.613 0-3.021-.308-4.224-.924-1.203-.616-2.119-1.452-2.75-2.508-.631-1.07-.946-2.259-.946-3.564 0-1.408.359-2.662 1.078-3.762.733-1.115 1.731-1.973 2.992-2.574 1.276-.616 2.699-.924 4.268-.924.689 0 1.386.059 2.09.176.704.103 1.269.242 1.694.418.132.044.213.103.242.176.044.059.073.169.088.33l.286 3.058c0 .044-.037.073-.11.088-.073.015-.125-.007-.154-.066-.513-1.13-1.225-2.01-2.134-2.64-.895-.63-1.921-.946-3.08-.946-1.496 0-2.64.52-3.432 1.562-.777 1.041-1.166 2.464-1.166 4.268 0 1.452.249 2.75.748 3.894.499 1.13 1.188 2.01 2.068 2.64a5.158 5.158 0 002.992.924c.601 0 1.063-.066 1.386-.198.323-.132.557-.389.704-.77.147-.381.22-.946.22-1.694 0-.763-.044-1.29-.132-1.584a.867.867 0 00-.572-.616c-.279-.103-.77-.154-1.474-.154-.088 0-.132-.059-.132-.176a.24.24 0 01.022-.11c.029-.044.059-.066.088-.066a54.04 54.04 0 003.014.11c.748 0 1.525-.022 2.332-.066.029 0 .051.022.066.066.029.03.044.059.044.088 0 .103-.037.154-.11.154-.264-.015-.447.037-.55.154-.103.103-.169.323-.198.66-.029.323-.044.91-.044 1.76 0 .66.022 1.13.066 1.408.059.279.088.455.088.528 0 .088-.022.147-.066.176a.5.5 0 01-.198.088c-1.892.41-3.593.616-5.104.616zM86.719 17.998H118v1.303H86.719zM2 17.998h29.977v1.303H2z"/></svg><svg fill="none" viewBox="0 0 72 72" id="info-1" xmlns="http://www.w3.org/2000/svg"><path d="M13.588 35.586S9.42 40.752 9.92 43.919l-2.833 2.5v1.5s6.833 2.833 13.333.833v2.5l.167 2.5 3.333 1.333s3.833-.666 4.833-6c0 0 4 1.5 5.667 5.834l4.667-.334s.666-2.5-.167-4.166l20.5-.334 2 1.834v2l1 1.166h2.167l1.666-1.833-1.833-6.5 1.5-4.667s-17.333 10.5-41.333-3.166l-1.833-3.834s-3.834.667-3.667 1.667c0 0-.834-2.666-5.5-1.166h.001z" fill="#9B9B9A"/><path d="M24.463 26.638c-.856 2.25-1.833 3.294-2.614 4.086a1.559 1.559 0 01-2.074.146l-1.184-.926-3.424 5.054a2.43 2.43 0 01-2.012 1.067s-2.672 3.271-3.602 6.806c-.26.991-.882 1.85-1.704 2.462l-.381.285s-2.35 1.962.455 2.815c0 0 9.623 3.039 14.956-1.211m18.5-24.917s-1.824 1.227-3.2 1.489c-.59.113-1.162.23-1.715.35l-3.168-.672c-1.571 1.795-3.754 2.65-5.291 3.324m31.958 2.009c-1.986 0-2.55-.153-3.67-1.057a9.298 9.298 0 01-2.172-2.507l-.408-.69c-2.641 0-5.467-.32-8.048-.744M66.254 38.5c-3.096-1.154-3.534-4.415-4.558-5.735m-40.878 18.98l-.227.473a2.001 2.001 0 001.802 2.867h1.627a2 2 0 001.76-1.048l2.845-5.263s3.501 1.45 4.754 5.036c.273.781 1.049 1.275 1.876 1.275h2.023a1.997 1.997 0 001.99-2.207c-.103-.928-.291-1.89-.633-2.313 0 0 15.156.437 20.007-.612 1.024-.222 2.044.398 2.27 1.421.11.496.175 1.052.142 1.637-.064 1.14.853 2.074 1.994 2.074h.39c1.124 0 2-.8 2.073-1.842.123-1.744-.014-4.392-1.548-6.431 0 0 1.133-.992 1.112-4.087M19.21 37.218s2.124-3.327 4.02-.342c1.279 2.015-.308 5.042-1.475 6.798a2.097 2.097 0 01-2.544.776m8.21-9.853l5-4.125m-.875 9.648l6-2.058m-.625-5.297l6.047-2.793m-3.024 13.5l6.852-.747m2-6.092l6.875 1.232m-8.727-5.375l5.454-2.503m.642 13.782l6.261 1.677" stroke="#195557" stroke-width="2" stroke-miterlimit="10" stroke-linecap="round" stroke-linejoin="round"/></svg><svg viewBox="0 0 46 46" id="info-2" xmlns="http://www.w3.org/2000/svg"><path d="M33.377 5.435L31.31 7.504l.539.539-3.28 3.279 2.022 2.067 3.282-3.326 2.066 2.067-3.325 3.277 2.067 2.023 3.279-3.28.539.54 2.068-2.069-7.189-7.186zm-7.906 5.031l-2.069 2.069.945.943-14.285 14.329-.494.493.09.676.494 4.581.046.493.133.09-4.67 4.672h4.088l2.921-2.92 4.356.45.675.09.493-.495 14.33-14.285.944.944 2.067-2.067-10.064-10.063zm.943 5.078l4.044 4.042-13.792 13.836-3.414-.404-.27-.27-.404-3.414 13.836-13.79z"/></svg><svg viewBox="0 0 43 43" id="info-3" xmlns="http://www.w3.org/2000/svg"><path d="M38.759 11.909a10.92 10.92 0 00-2.39-3.477 11.102 11.102 0 00-3.527-2.33 11.143 11.143 0 00-4.3-.853A11.215 11.215 0 0021.5 7.731a11.215 11.215 0 00-7.042-2.482c-1.49 0-2.935.286-4.3.852A11.08 11.08 0 006.63 8.432a10.853 10.853 0 00-3.272 7.756c0 1.398.286 2.856.853 4.338.474 1.239 1.155 2.523 2.024 3.821 1.377 2.053 3.271 4.195 5.623 6.366 3.896 3.599 7.756 6.085 7.92 6.185l.994.639a1.349 1.349 0 001.45 0l.995-.639c.163-.105 4.018-2.586 7.92-6.185 2.35-2.17 4.245-4.313 5.622-6.366.87-1.298 1.554-2.582 2.024-3.821.567-1.482.852-2.94.852-4.338a10.691 10.691 0 00-.877-4.279zM21.5 34.215S6.55 24.637 6.55 16.188c0-4.279 3.54-7.748 7.908-7.748 3.07 0 5.732 1.714 7.042 4.216 1.31-2.502 3.973-4.216 7.042-4.216 4.367 0 7.907 3.469 7.907 7.748 0 8.449-14.949 18.027-14.949 18.027z"/><path d="M28.542 8.44c-3.07 0-5.732 1.714-7.042 4.216-1.31-2.502-3.973-4.216-7.042-4.216-4.367 0-7.907 3.469-7.907 7.748 0 8.449 14.949 18.027 14.949 18.027s14.95-9.578 14.95-18.027c0-4.279-3.54-7.748-7.908-7.748z" fill-opacity=".1"/></svg><svg viewBox="0 0 30 30" id="inst" xmlns="http://www.w3.org/2000/svg"><path d="M15 0C6.667 0 0 6.667 0 15s6.667 15 15 15 15-6.667 15-15S23.333 0 15 0zm0 11.667c1.833 0 3.333 1.5 3.333 3.333 0 1.833-1.5 3.333-3.333 3.333A3.343 3.343 0 0111.667 15c0-1.833 1.5-3.333 3.333-3.333zm4.667-3.334c0-1.166 1-2 2-2s2 1 2 2-.834 2-2 2c-1.167 0-2-.833-2-2zM15 26.667C8.5 26.667 3.333 21.5 3.333 15h5c0 3.667 3 6.667 6.667 6.667s6.667-3 6.667-6.667h5c0 6.5-5.167 11.667-11.667 11.667z"/></svg><svg viewBox="0 0 122 57" id="logo" xmlns="http://www.w3.org/2000/svg"><path d="M69.752 22.236c0 .433.35.783.783.783h1.436a.783.783 0 000-1.566h-1.436a.783.783 0 00-.783.783z"/><path d="M80.006 26.48a2.84 2.84 0 00-.473.041l-5.16-8.562a.78.78 0 00.058-.08l3.466-5.504a.783.783 0 00-.577-1.196l-5.685-.631.645-5.684a.783.783 0 00-1.037-.828l-5.4 1.89-1.884-5.4A.783.783 0 0062.666.23l-4.04 4.052L54.585.23a.783.783 0 00-1.293.295l-1.886 5.401-5.4-1.89a.783.783 0 00-1.036.828l.645 5.684-5.686.631a.783.783 0 00-.576 1.196l3.048 4.84-4.844 3.043a.783.783 0 000 1.326l4.844 3.042-3.048 4.84a.783.783 0 00.662 1.201l37.58.042a2.804 2.804 0 002.411 1.378 2.806 2.806 0 002.803-2.804 2.806 2.806 0 00-2.803-2.802zm-2.8 2.663l-13.96-.016c-1.85-6.262 2.729-11.132 8.07-13.206l6.805 11.29a2.797 2.797 0 00-.914 1.932zm-33.062-4.346a.783.783 0 00-.246-1.08l-4.452-2.796 4.452-2.796a.783.783 0 00.246-1.08l-2.8-4.448 5.224-.58a.783.783 0 00.692-.866l-.593-5.225 4.961 1.737a.784.784 0 00.998-.48L54.36 2.22l3.712 3.723a.783.783 0 001.109 0l3.712-3.723 1.732 4.962a.782.782 0 00.998.48l4.962-1.736-.594 5.224a.783.783 0 00.692.867l5.224.58-2.435 3.866-1.147-1.905a.783.783 0 00-.927-.335c-3.591 1.243-6.54 3.415-8.305 6.114-1.758 2.69-2.258 5.707-1.471 8.787l-20.187-.023 2.71-4.305zm35.862 5.723a1.238 1.238 0 01-1.237-1.236 1.238 1.238 0 012.474-.001c0 .682-.555 1.237-1.237 1.237zM16.104 55.545c.044 0 .066.044.066.132 0 .088-.022.132-.066.132-.513 0-.924-.007-1.232-.022l-1.694-.022-1.98.022c-.264.015-.623.022-1.078.022-.044 0-.066-.044-.066-.132 0-.088.022-.132.066-.132.543 0 .939-.037 1.188-.11.25-.073.418-.213.506-.418.088-.205.132-.535.132-.99v-5.06H4.84v5.06c0 .44.044.77.132.99.088.205.257.345.506.418.25.073.645.11 1.188.11.03 0 .044.044.044.132 0 .088-.015.132-.044.132-.513 0-.924-.007-1.232-.022l-1.914-.022-1.65.022a25.63 25.63 0 01-1.21.022c-.03 0-.044-.044-.044-.132 0-.088.015-.132.044-.132.513 0 .887-.037 1.122-.11a.732.732 0 00.484-.418c.088-.22.132-.55.132-.99V43.841c0-.44-.044-.763-.132-.968a.733.733 0 00-.484-.418c-.22-.088-.58-.132-1.078-.132-.044 0-.066-.044-.066-.132 0-.088.022-.132.066-.132l1.188.022c.675.03 1.217.044 1.628.044a49 49 0 001.936-.044l1.21-.022c.03 0 .044.044.044.132 0 .088-.015.132-.044.132-.528 0-.917.044-1.166.132a.874.874 0 00-.528.462c-.088.205-.132.528-.132.968v4.466h7.106v-4.466c0-.44-.044-.763-.132-.968-.088-.22-.257-.374-.506-.462-.25-.088-.645-.132-1.188-.132-.044 0-.066-.044-.066-.132 0-.088.022-.132.066-.132l1.078.022c.733.03 1.393.044 1.98.044.396 0 .96-.015 1.694-.044l1.232-.022c.044 0 .066.044.066.132 0 .088-.022.132-.066.132-.499 0-.873.044-1.122.132a.733.733 0 00-.484.418c-.073.205-.11.528-.11.968v10.186c0 .44.037.77.11.99.088.205.25.345.484.418.235.073.609.11 1.122.11zm11.609-3.234c0-.03.03-.044.088-.044a.15.15 0 01.11.044c.044.015.066.03.066.044a24.762 24.762 0 00-.22 3.124.439.439 0 01-.066.264c-.044.044-.132.066-.264.066h-9.724c-.044 0-.066-.044-.066-.132 0-.088.022-.132.066-.132.47 0 .806-.037 1.012-.11a.66.66 0 00.44-.418c.073-.22.11-.55.11-.99V43.841c0-.44-.037-.763-.11-.968a.66.66 0 00-.44-.418c-.22-.088-.558-.132-1.012-.132-.044 0-.066-.044-.066-.132 0-.088.022-.132.066-.132h9.328c.146 0 .22.066.22.198l.044 2.926c0 .03-.044.051-.132.066-.074.015-.118 0-.132-.044-.235-.85-.63-1.481-1.188-1.892-.558-.41-1.29-.616-2.2-.616h-.66c-.44 0-.763.095-.968.286-.206.19-.308.484-.308.88v4.488h1.826c.85 0 1.503-.147 1.958-.44.454-.293.682-.704.682-1.232 0-.044.036-.066.11-.066.088 0 .132.022.132.066l-.022 1.98.022 1.056c.03.499.044.895.044 1.188 0 .03-.044.044-.132.044-.088 0-.132-.015-.132-.044 0-.601-.235-1.07-.704-1.408-.455-.352-1.115-.528-1.98-.528h-1.804v4.972c0 .425.08.74.242.946.161.205.418.308.77.308h.726c1.144 0 2.06-.235 2.75-.704.69-.47 1.195-1.195 1.518-2.178zm8.398 3.586a25.08 25.08 0 01-1.672-.066c-.234-.015-.528-.03-.88-.044a26.702 26.702 0 00-1.144-.022l-1.628.022c-.293.015-.689.022-1.188.022-.029 0-.044-.044-.044-.132 0-.088.015-.132.044-.132.47 0 .814-.037 1.034-.11a.66.66 0 00.44-.418c.088-.22.132-.55.132-.99V43.841c0-.44-.044-.763-.132-.968a.66.66 0 00-.44-.418c-.205-.088-.535-.132-.99-.132-.044 0-.066-.044-.066-.132 0-.088.022-.132.066-.132l1.166.022c.675.03 1.21.044 1.606.044.602 0 1.218-.022 1.848-.066.763-.03 1.276-.044 1.54-.044 1.482 0 2.794.293 3.938.88 1.16.587 2.054 1.386 2.684 2.398.631 1.012.946 2.149.946 3.41 0 1.423-.33 2.684-.99 3.784a6.736 6.736 0 01-2.64 2.53c-1.1.587-2.31.88-3.63.88zm-.22-.506c.94 0 1.768-.235 2.486-.704.72-.484 1.276-1.195 1.672-2.134.411-.939.616-2.06.616-3.366 0-1.247-.19-2.376-.572-3.388-.38-1.027-.924-1.833-1.628-2.42a3.703 3.703 0 00-2.442-.88c-.909 0-1.532.088-1.87.264-.337.176-.506.55-.506 1.122v9.9c0 .587.154 1.005.462 1.254.308.235.902.352 1.782.352zm17.559.682c-1.614 0-3.022-.308-4.225-.924-1.203-.616-2.12-1.452-2.75-2.508-.63-1.07-.946-2.259-.946-3.564 0-1.408.36-2.662 1.078-3.762.733-1.115 1.73-1.973 2.992-2.574 1.276-.616 2.699-.924 4.268-.924.69 0 1.386.059 2.09.176.704.103 1.269.242 1.694.418.132.044.213.103.242.176.044.059.074.169.088.33l.286 3.058c0 .044-.037.073-.11.088-.073.015-.124-.007-.154-.066-.513-1.13-1.224-2.01-2.134-2.64-.895-.63-1.921-.946-3.08-.946-1.496 0-2.64.52-3.432 1.562-.777 1.041-1.166 2.464-1.166 4.268 0 1.452.25 2.75.748 3.894.499 1.13 1.188 2.01 2.068 2.64a5.157 5.157 0 002.992.924c.601 0 1.063-.066 1.386-.198.323-.132.558-.389.704-.77.147-.381.22-.946.22-1.694 0-.763-.044-1.29-.132-1.584a.866.866 0 00-.572-.616c-.278-.103-.77-.154-1.474-.154-.088 0-.132-.059-.132-.176 0-.044.008-.08.022-.11.03-.044.059-.066.088-.066 1.247.073 2.252.11 3.014.11.748 0 1.526-.022 2.332-.066.03 0 .052.022.066.066.03.03.044.059.044.088 0 .103-.036.154-.11.154-.264-.015-.447.037-.55.154-.102.103-.169.323-.198.66-.03.323-.044.91-.044 1.76 0 .66.022 1.13.066 1.408.059.279.088.455.088.528 0 .088-.022.147-.066.176a.501.501 0 01-.198.088c-1.892.41-3.593.616-5.104.616zm17.726-3.762c0-.03.029-.044.088-.044a.15.15 0 01.11.044c.044.015.066.03.066.044a24.762 24.762 0 00-.22 3.124.439.439 0 01-.066.264c-.044.044-.132.066-.264.066h-9.724c-.044 0-.066-.044-.066-.132 0-.088.022-.132.066-.132.469 0 .806-.037 1.012-.11a.66.66 0 00.44-.418c.073-.22.11-.55.11-.99V43.841c0-.44-.037-.763-.11-.968a.66.66 0 00-.44-.418c-.22-.088-.558-.132-1.012-.132-.044 0-.066-.044-.066-.132 0-.088.022-.132.066-.132h9.328c.146 0 .22.066.22.198l.044 2.926c0 .03-.044.051-.132.066-.074.015-.118 0-.132-.044-.235-.85-.631-1.481-1.188-1.892-.558-.41-1.291-.616-2.2-.616h-.66c-.44 0-.763.095-.968.286-.206.19-.308.484-.308.88v4.488h1.826c.85 0 1.503-.147 1.958-.44.454-.293.682-.704.682-1.232 0-.044.036-.066.11-.066.088 0 .132.022.132.066l-.022 1.98.022 1.056c.029.499.044.895.044 1.188 0 .03-.044.044-.132.044-.088 0-.132-.015-.132-.044 0-.601-.235-1.07-.704-1.408-.455-.352-1.115-.528-1.98-.528H65.17v4.972c0 .425.08.74.242.946.161.205.418.308.77.308h.726c1.144 0 2.06-.235 2.75-.704.689-.47 1.195-1.195 1.518-2.178zm17.33 3.234c.044 0 .066.044.066.132 0 .088-.022.132-.066.132-.513 0-.924-.007-1.232-.022l-1.694-.022-1.98.022c-.264.015-.623.022-1.078.022-.044 0-.066-.044-.066-.132 0-.088.022-.132.066-.132.543 0 .939-.037 1.188-.11.25-.073.418-.213.506-.418.088-.205.132-.535.132-.99v-5.06h-7.106v5.06c0 .44.044.77.132.99.088.205.257.345.506.418.25.073.646.11 1.188.11.03 0 .044.044.044.132 0 .088-.014.132-.044.132-.513 0-.924-.007-1.232-.022l-1.914-.022-1.65.022a25.63 25.63 0 01-1.21.022c-.029 0-.044-.044-.044-.132 0-.088.015-.132.044-.132.514 0 .888-.037 1.122-.11a.732.732 0 00.484-.418c.088-.22.132-.55.132-.99V43.841c0-.44-.044-.763-.132-.968a.733.733 0 00-.484-.418c-.22-.088-.579-.132-1.078-.132-.044 0-.066-.044-.066-.132 0-.088.022-.132.066-.132l1.188.022c.675.03 1.218.044 1.628.044a49 49 0 001.936-.044l1.21-.022c.03 0 .044.044.044.132 0 .088-.014.132-.044.132-.528 0-.916.044-1.166.132a.874.874 0 00-.528.462c-.088.205-.132.528-.132.968v4.466h7.106v-4.466c0-.44-.044-.763-.132-.968-.088-.22-.256-.374-.506-.462-.249-.088-.645-.132-1.188-.132-.044 0-.066-.044-.066-.132 0-.088.022-.132.066-.132l1.078.022c.734.03 1.394.044 1.98.044.396 0 .961-.015 1.694-.044l1.232-.022c.044 0 .066.044.066.132 0 .088-.022.132-.066.132-.498 0-.872.044-1.122.132a.733.733 0 00-.484.418c-.073.205-.11.528-.11.968v10.186c0 .44.037.77.11.99.088.205.25.345.484.418.235.073.609.11 1.122.11zm8.749.528c-1.364 0-2.581-.315-3.652-.946a6.758 6.758 0 01-2.464-2.596 7.656 7.656 0 01-.858-3.586c0-1.51.381-2.801 1.144-3.872a7.155 7.155 0 012.926-2.442c1.203-.543 2.427-.814 3.674-.814 1.393 0 2.618.33 3.674.99a6.476 6.476 0 012.42 2.574 7.132 7.132 0 01.858 3.41c0 1.335-.352 2.56-1.056 3.674a7.563 7.563 0 01-2.838 2.64 7.813 7.813 0 01-3.828.968zm.726-.55c.821 0 1.555-.235 2.2-.704.66-.484 1.173-1.18 1.54-2.09.367-.924.55-2.024.55-3.3 0-1.35-.205-2.552-.616-3.608-.411-1.07-1.005-1.907-1.782-2.508-.777-.601-1.687-.902-2.728-.902-1.335 0-2.361.506-3.08 1.518-.719.997-1.078 2.398-1.078 4.202 0 1.423.213 2.699.638 3.828.44 1.115 1.034 1.987 1.782 2.618.763.63 1.62.946 2.574.946zm17.064.55c-1.613 0-3.021-.308-4.224-.924-1.203-.616-2.119-1.452-2.75-2.508-.631-1.07-.946-2.259-.946-3.564 0-1.408.359-2.662 1.078-3.762.733-1.115 1.731-1.973 2.992-2.574 1.276-.616 2.699-.924 4.268-.924.689 0 1.386.059 2.09.176.704.103 1.269.242 1.694.418.132.044.213.103.242.176.044.059.073.169.088.33l.286 3.058c0 .044-.037.073-.11.088-.073.015-.125-.007-.154-.066-.513-1.13-1.225-2.01-2.134-2.64-.895-.63-1.921-.946-3.08-.946-1.496 0-2.64.52-3.432 1.562-.777 1.041-1.166 2.464-1.166 4.268 0 1.452.249 2.75.748 3.894.499 1.13 1.188 2.01 2.068 2.64a5.158 5.158 0 002.992.924c.601 0 1.063-.066 1.386-.198.323-.132.557-.389.704-.77.147-.381.22-.946.22-1.694 0-.763-.044-1.29-.132-1.584a.867.867 0 00-.572-.616c-.279-.103-.77-.154-1.474-.154-.088 0-.132-.059-.132-.176a.24.24 0 01.022-.11c.029-.044.059-.066.088-.066a54.04 54.04 0 003.014.11c.748 0 1.525-.022 2.332-.066.029 0 .051.022.066.066.029.03.044.059.044.088 0 .103-.037.154-.11.154-.264-.015-.447.037-.55.154-.103.103-.169.323-.198.66-.029.323-.044.91-.044 1.76 0 .66.022 1.13.066 1.408.059.279.088.455.088.528 0 .088-.022.147-.066.176a.497.497 0 01-.198.088c-1.892.41-3.593.616-5.104.616zM86.72 17.998H118v1.304H86.72v-1.304zm-84.72 0h29.977v1.304H2v-1.304z"/></svg><svg fill="none" viewBox="0 0 27 27" id="phone" xmlns="http://www.w3.org/2000/svg"><path d="M18.33 18.48l2.24-2.24a2.19 2.19 0 012.34-.48l2.73 1.09a2.18 2.18 0 011.36 2v5A2.17 2.17 0 0124.72 26C5.59 24.81 1.73 8.61 1 2.41A2.17 2.17 0 013.17 0H8a2.16 2.16 0 012 1.36l1.09 2.73a2.16 2.16 0 01-.47 2.34L8.38 8.67s1.29 8.73 9.95 9.81z" fill="#195557"/></svg><svg fill="none" viewBox="0 0 28 28" id="plus" xmlns="http://www.w3.org/2000/svg"><path d="M25.667 12.333h-10v-10a1.667 1.667 0 10-3.334 0v10h-10a1.667 1.667 0 100 3.334h10v10a1.667 1.667 0 103.334 0v-10h10a1.667 1.667 0 000-3.334z" fill="#195557"/></svg><svg fill="none" viewBox="0 0 41 41" id="reminder-icon" xmlns="http://www.w3.org/2000/svg"><path d="M7.738 20.264s-2.374 2.942-2.09 4.745l-1.612 1.424v.854s3.89 1.614 7.592.475v1.423l.095 1.424 1.898.759s2.183-.38 2.752-3.417c0 0 2.278.854 3.227 3.322l2.658-.19s.38-1.423-.095-2.372l11.673-.19 1.14 1.044v1.139l.569.664h1.234l.948-1.044-1.043-3.701.854-2.658s-9.87 5.98-23.537-1.803l-1.044-2.183s-2.183.38-2.088.95c0 0-.475-1.519-3.132-.665z" fill="#9B9B9A"/><path d="M10.585 17.37L8.592 20.5s2.325.095 2.278.901c-.048.807 1.423 1.377-.238 3.75l1.234.57.806-.618.902-1.993.428-.949s10.866 8.21 23.536 1.803l.901-1.708-2.847-2.848-.332-1.233-.38-1.614-2.23-.427-1.993-2.278-4.508-.759-2.42-.901-2.183 1.566-2.183-.522-2.372 1.66-1.092.048-1.946-.19-1.281 2.753-1.329.047-.759-.19z" fill="#195557"/><path d="M13.93 15.169c-.487 1.281-1.043 1.876-1.488 2.327a.888.888 0 01-1.181.083l-.675-.528-1.95 2.878a1.384 1.384 0 01-1.145.608S5.969 22.4 5.44 24.413a2.583 2.583 0 01-.97 1.402l-.217.162s-1.339 1.117.259 1.603c0 0 5.48 1.73 8.516-.69m10.535-14.189s-1.039.7-1.822.848a41.18 41.18 0 00-.977.2l-1.804-.383c-.894 1.022-2.137 1.509-3.013 1.893m18.199 1.144c-1.131 0-1.453-.087-2.09-.602a5.291 5.291 0 01-1.237-1.428l-.232-.393c-1.504 0-3.114-.182-4.583-.423m11.724 8.367c-1.763-.657-2.012-2.514-2.596-3.266M11.855 29.466l-.13.27a1.139 1.139 0 001.027 1.632h.926a1.14 1.14 0 001.002-.597l1.62-2.997s1.994.826 2.707 2.868c.156.445.598.726 1.069.726h1.152a1.137 1.137 0 001.133-1.257c-.059-.528-.166-1.076-.36-1.317 0 0 8.63.249 11.392-.349a1.079 1.079 0 011.293.81c.063.282.1.599.08.932a1.124 1.124 0 001.136 1.18h.222c.64 0 1.14-.455 1.18-1.048.07-.993-.007-2.501-.88-3.662 0 0 .645-.565.633-2.328" stroke="#000" stroke-width="2" stroke-miterlimit="10" stroke-linecap="round" stroke-linejoin="round"/><path d="M10.939 21.194s1.21-1.895 2.29-.195c.728 1.147-.176 2.871-.84 3.87a1.194 1.194 0 01-1.45.443v0m4.676-5.611l2.847-2.349m-.498 5.494l3.416-1.172m-.356-3.016l3.444-1.59m-1.722 7.687l3.902-.425m1.139-3.47l3.915.702m-4.97-3.061l3.106-1.425m.365 7.848l3.566.955" stroke="#000" stroke-width="2" stroke-miterlimit="10" stroke-linecap="round" stroke-linejoin="round"/></svg><svg fill="none" viewBox="0 0 6 9" id="ropdown-cursor" xmlns="http://www.w3.org/2000/svg"><path d="M3.395 8.955a.437.437 0 01-.59-.21l-.97-2.126-1.115.906a.442.442 0 01-.59-.033.45.45 0 01-.13-.317V.448A.45.45 0 01.13.131a.442.442 0 01.6-.028L.733.1 5.84 4.422a.449.449 0 01-.196.784l-1.404.278.978 2.121a.435.435 0 01-.214.592l-1.609.758z" fill="#000"/></svg><svg fill="none" viewBox="0 0 24 24" id="slider-arrow" xmlns="http://www.w3.org/2000/svg"><path d="M13.117.066L.367 11.192a1.071 1.071 0 00-.27 1.255c.063.14.155.264.27.365l12.75 11.122a.265.265 0 00.44-.2v-2.716a.544.544 0 00-.183-.406l-8.41-7.338h18.77c.146 0 .266-.12.266-.268v-2.011a.268.268 0 00-.267-.269H4.964l8.41-7.338a.533.533 0 00.183-.405V.267a.265.265 0 00-.44-.2z" fill="#70908B"/></svg><svg fill="none" viewBox="0 0 444 95" id="title" xmlns="http://www.w3.org/2000/svg"><path d="M55.52 73.92c0-.16.16-.24.48-.24.24 0 .44.08.6.24.24.08.36.16.36.24-.8 6.24-1.2 11.92-1.2 17.04 0 .64-.12 1.12-.36 1.44-.24.24-.72.36-1.44.36H.92c-.24 0-.36-.24-.36-.72s.12-.72.36-.72c2.56 0 4.4-.2 5.52-.6 1.2-.4 2-1.16 2.4-2.28.4-1.2.6-3 .6-5.4V27.72c0-2.4-.2-4.16-.6-5.28-.4-1.12-1.2-1.88-2.4-2.28-1.2-.48-3.04-.72-5.52-.72-.24 0-.36-.24-.36-.72S.68 18 .92 18H51.8c.8 0 1.2.36 1.2 1.08l.24 15.96c0 .16-.24.28-.72.36-.4.08-.64 0-.72-.24-1.28-4.64-3.44-8.08-6.48-10.32-3.04-2.24-7.04-3.36-12-3.36h-3.6c-2.4 0-4.16.52-5.28 1.56s-1.68 2.64-1.68 4.8v24.48h9.96c4.64 0 8.2-.8 10.68-2.4 2.48-1.6 3.72-3.84 3.72-6.72 0-.24.2-.36.6-.36.48 0 .72.12.72.36L48.32 54l.12 5.76c.16 2.72.24 4.88.24 6.48 0 .16-.24.24-.72.24s-.72-.08-.72-.24c0-3.28-1.28-5.84-3.84-7.68-2.48-1.92-6.08-2.88-10.8-2.88h-9.84V82.8c0 2.32.44 4.04 1.32 5.16.88 1.12 2.28 1.68 4.2 1.68h3.96c6.24 0 11.24-1.28 15-3.84 3.76-2.56 6.52-6.52 8.28-11.88zm129.451 17.64c.24 0 .36.24.36.72s-.12.72-.36.72h-18.48c-.96 0-1.84-.32-2.64-.96-.72-.64-2.08-2.32-4.08-5.04-1.92-2.8-5-7.52-9.24-14.16-3.44-5.44-6.12-9.32-8.04-11.64-1.92-2.32-3.8-3.88-5.64-4.68-1.84-.88-4.28-1.32-7.32-1.32v28.08c0 2.4.2 4.2.6 5.4.48 1.12 1.36 1.88 2.64 2.28 1.28.4 3.32.6 6.12.6.16 0 .24.24.24.72s-.08.72-.24.72c-2.96 0-5.28-.04-6.96-.12l-9.6-.12-8.76.12c-1.52.08-3.68.12-6.48.12-.16 0-.24-.24-.24-.72s.08-.72.24-.72c2.8 0 4.84-.2 6.12-.6 1.28-.4 2.16-1.16 2.64-2.28.48-1.2.72-3 .72-5.4V55.2c-3.04 0-5.48.44-7.32 1.32-1.84.8-3.72 2.36-5.64 4.68-1.92 2.32-4.6 6.2-8.04 11.64-4.24 6.64-7.36 11.36-9.36 14.16-1.92 2.72-3.28 4.4-4.08 5.04-.72.64-1.56.96-2.52.96H61.13c-.24 0-.36-.24-.36-.72s.12-.72.36-.72c2.16-.08 4.16-.8 6-2.16 1.84-1.36 3.64-3.16 5.4-5.4 1.76-2.32 4.32-5.92 7.68-10.8l1.8-2.76c2.96-4.4 5.44-7.76 7.44-10.08 2.08-2.32 4.12-4 6.12-5.04s4.4-1.72 7.2-2.04l-16.56-20.4c-3.6-4.4-7.36-7.72-11.28-9.96-3.84-2.32-7.76-3.48-11.76-3.48-.16 0-.24-.24-.24-.72s.08-.72.24-.72l5.16.12c3.36.16 6.6.24 9.72.24 2.4 0 5.68-.08 9.84-.24l7.92-.12c.16 0 .24.24.24.72s-.08.72-.24.72c-2.32 0-4.08.52-5.28 1.56-1.12.96-1.68 2.32-1.68 4.08 0 3.12 1.8 7.24 5.4 12.36l11.28 15.6h2.88c3.28 0 6 .04 8.16.12V27.72c0-2.4-.24-4.16-.72-5.28s-1.36-1.88-2.64-2.28c-1.28-.48-3.28-.72-6-.72-.16 0-.24-.24-.24-.72s.08-.72.24-.72l6.6.12c3.52.16 6.36.24 8.52.24 2.48 0 5.72-.08 9.72-.24l6.84-.12c.16 0 .24.24.24.72s-.08.72-.24.72c-2.72 0-4.72.24-6 .72-1.28.48-2.16 1.32-2.64 2.52-.48 1.12-.72 2.88-.72 5.28v25.2c2.08-.08 4.8-.12 8.16-.12h2.88l10.92-15c3.76-5.2 5.64-9.52 5.64-12.96 0-1.76-.56-3.12-1.68-4.08-1.12-1.04-2.8-1.56-5.04-1.56-.24 0-.36-.24-.36-.72s.12-.72.36-.72l7.8.12c4.16.16 7.44.24 9.84.24 3.12 0 6.36-.08 9.72-.24l5.16-.12c.16 0 .24.24.24.72s-.08.72-.24.72c-4 0-7.96 1.16-11.88 3.48-3.84 2.24-7.56 5.56-11.16 9.96l-16.56 20.4c2.88.32 5.28 1 7.2 2.04 2 1.04 4 2.72 6 5.04 2 2.24 4.52 5.6 7.56 10.08l1.8 2.76c3.36 4.88 5.92 8.48 7.68 10.8 1.76 2.24 3.56 4.04 5.4 5.4 1.84 1.36 3.84 2.08 6 2.16zm86.841 0c.24 0 .36.24.36.72s-.12.72-.36.72c-2.8 0-5.04-.04-6.72-.12l-9.24-.12-10.8.12c-1.44.08-3.4.12-5.88.12-.24 0-.36-.24-.36-.72s.12-.72.36-.72c2.96 0 5.12-.2 6.48-.6 1.36-.4 2.28-1.16 2.76-2.28.48-1.12.72-2.92.72-5.4V34.2l-48 60.12c-.24.24-.84.36-1.8.36-1.52 0-2.28-.28-2.28-.84V27.72c0-2.4-.24-4.16-.72-5.28s-1.36-1.88-2.64-2.28c-1.28-.48-3.28-.72-6-.72-.24 0-.36-.24-.36-.72s.12-.72.36-.72l6.72.12c4 .16 7.08.24 9.24.24 3.2 0 6.8-.08 10.8-.24l5.88-.12c.24 0 .36.24.36.72s-.12.72-.36.72c-2.96 0-5.12.24-6.48.72-1.36.4-2.28 1.16-2.76 2.28-.48 1.12-.72 2.88-.72 5.28v49.56l48-60.12c.24-.24.84-.36 1.8-.36.56 0 1.08.08 1.56.24.48.16.72.36.72.6v65.64c0 2.4.24 4.2.72 5.4.48 1.12 1.36 1.88 2.64 2.28 1.28.4 3.28.6 6 .6zm84.917 0c.24 0 .36.24.36.72s-.12.72-.36.72h-18.48c-1.04 0-2-.32-2.88-.96-.8-.64-2.24-2.28-4.32-4.92-2.08-2.72-5.48-7.48-10.2-14.28l-3.24-4.56c-2.8-4.08-4.88-6.92-6.24-8.52-1.36-1.68-2.8-2.84-4.32-3.48-1.44-.72-3.36-1.08-5.76-1.08v28.08c0 2.4.2 4.2.6 5.4.48 1.12 1.36 1.88 2.64 2.28 1.28.4 3.28.6 6 .6.24 0 .36.24.36.72s-.12.72-.36.72c-2.8 0-5.04-.04-6.72-.12l-9.96-.12-8.76.12c-1.6.08-3.76.12-6.48.12-.24 0-.36-.24-.36-.72s.12-.72.36-.72c2.72 0 4.72-.2 6-.6 1.28-.4 2.16-1.16 2.64-2.28.48-1.2.72-3 .72-5.4V27.72c0-2.4-.24-4.16-.72-5.28s-1.36-1.88-2.64-2.28c-1.2-.48-3.16-.72-5.88-.72-.24 0-.36-.24-.36-.72s.12-.72.36-.72l6.36.12c3.68.16 6.6.24 8.76.24 2.72 0 6.08-.08 10.08-.24l6.6-.12c.24 0 .36.24.36.72s-.12.72-.36.72c-2.64 0-4.6.24-5.88.72-1.28.48-2.16 1.32-2.64 2.52-.48 1.12-.72 2.88-.72 5.28v25.2c2.16-.08 4.88-.12 8.16-.12l12.6-17.28c3.28-4.56 4.92-8.36 4.92-11.4 0-1.52-.44-2.72-1.32-3.6-.88-.88-2.08-1.32-3.6-1.32-.16 0-.24-.24-.24-.72s.08-.72.24-.72l5.52.12c3.52.16 6.64.24 9.36.24 3.12 0 6.36-.08 9.72-.24l5.16-.12c.24 0 .36.24.36.72s-.12.72-.36.72c-3.52 0-7.48 1.28-11.88 3.84-4.4 2.56-8.12 5.76-11.16 9.6l-16.32 20.28c3.12.16 5.68.76 7.68 1.8 2 .96 3.96 2.52 5.88 4.68 2 2.16 4.8 5.76 8.4 10.8l2.16 3c3.36 4.64 5.96 8.12 7.8 10.44 1.92 2.32 3.88 4.16 5.88 5.52 2 1.36 4.16 2.08 6.48 2.16zm86.879 0c.24 0 .36.24.36.72s-.12.72-.36.72c-2.8 0-5.04-.04-6.72-.12l-9.24-.12-10.8.12c-1.44.08-3.4.12-5.88.12-.24 0-.36-.24-.36-.72s.12-.72.36-.72c2.96 0 5.12-.2 6.48-.6 1.36-.4 2.28-1.16 2.76-2.28.48-1.12.72-2.92.72-5.4V34.2l-48 60.12c-.24.24-.84.36-1.8.36-1.52 0-2.28-.28-2.28-.84V27.72c0-2.4-.24-4.16-.72-5.28s-1.36-1.88-2.64-2.28c-1.28-.48-3.28-.72-6-.72-.24 0-.36-.24-.36-.72s.12-.72.36-.72l6.72.12c4 .16 7.08.24 9.24.24 3.2 0 6.8-.08 10.8-.24l5.88-.12c.24 0 .36.24.36.72s-.12.72-.36.72c-2.96 0-5.12.24-6.48.72-1.36.4-2.28 1.16-2.76 2.28-.48 1.12-.72 2.88-.72 5.28v49.56l48-60.12c.24-.24.84-.36 1.8-.36.56 0 1.08.08 1.56.24.48.16.72.36.72.6v65.64c0 2.4.24 4.2.72 5.4.48 1.12 1.36 1.88 2.64 2.28 1.28.4 3.28.6 6 .6zM17.268 1c.77-1.333 2.694-1.333 3.464 0l3.464 6c.77 1.333-.192 3-1.732 3h-6.928c-1.54 0-2.502-1.667-1.732-3l3.464-6zm24 0c.77-1.333 2.694-1.333 3.464 0l3.464 6c.77 1.333-.192 3-1.732 3h-6.928c-1.54 0-2.502-1.667-1.732-3l3.464-6z" fill="#195557"/></svg><svg viewBox="0 0 30 30" id="tw" xmlns="http://www.w3.org/2000/svg"><path d="M20.465 12.138c.597-.368.995-.868 1.188-1.506a6.425 6.425 0 01-1.741.638 2.585 2.585 0 00-1.97-.845 2.69 2.69 0 00-1.959.798 2.644 2.644 0 00-.796 1.93c0 .229.028.434.086.607-2.28-.08-4.165-1.023-5.651-2.843a2.74 2.74 0 00-.379 1.366c0 .964.407 1.727 1.217 2.289a3.016 3.016 0 01-1.217-.349c0 .689.202 1.264.609 1.77.405.5.928.82 1.565.955-.237.06-.48.09-.725.089a1.379 1.379 0 01-.494-.062 2.64 2.64 0 00.957 1.363c.462.35.995.534 1.595.55a5.327 5.327 0 01-3.392 1.157c-.313 0-.533-.003-.666-.028a7.557 7.557 0 004.201 1.221c1.585 0 2.987-.401 4.204-1.205 1.216-.798 2.118-1.783 2.695-2.945a7.988 7.988 0 00.868-3.623v-.348a5.78 5.78 0 001.363-1.424 5.751 5.751 0 01-1.558.445zM15 30c-4.15 0-7.725-1.483-10.627-4.41C1.472 22.672 0 19.108 0 15c0-4.147 1.473-7.723 4.378-10.625C7.278 1.473 10.852 0 15 0c4.11 0 7.673 1.472 10.59 4.373C28.517 7.277 30 10.853 30 15c0 4.108-1.482 7.673-4.407 10.595C22.675 28.517 19.112 30 15 30zm0-26.667c-3.277 0-5.98 1.112-8.263 3.4C4.445 9.02 3.333 11.723 3.333 15c0 3.24 1.114 5.937 3.405 8.242 2.287 2.305 4.989 3.425 8.262 3.425 3.238 0 5.933-1.122 8.237-3.429 2.308-2.306 3.43-5.003 3.43-8.238 0-3.272-1.12-5.975-3.425-8.262-2.305-2.291-5-3.405-8.242-3.405z"/></svg></svg>