<?xml version="1.0" encoding="utf-8"?><svg viewBox="0 0 32.88 30" xmlns="http://www.w3.org/2000/svg" xmlns:xlink="http://www.w3.org/1999/xlink"><style>:root>svg{display:none}:root>svg:target{display:block}</style><svg data-name="Слой 1" viewBox="0 0 32.88 13.01" id="arrow" xmlns="http://www.w3.org/2000/svg"><path fill="#fff" d="M1.44 11.46l15-9.96 15 9.96"/><path d="M2.2 12.76l15-10h-1.51l15 10c1.61 1.07 3.11-1.53 1.51-2.59l-15-10a1.46 1.46 0 00-1.51 0l-15 10c-1.61 1.06-.11 3.66 1.51 2.59z"/></svg><svg data-name="Слой 1" viewBox="0 0 30 30" id="github" xmlns="http://www.w3.org/2000/svg"><path d="M28 0H2a2 2 0 00-2 2v26a2 2 0 002 2h26a2 2 0 002-2V2a2 2 0 00-2-2zm-9.28 26.06s-.8.14-.81-.42v-3.77c0-.58-.42-1.42-.85-1.56A5.14 5.14 0 0022.33 15a4.32 4.32 0 00-1.14-3.33 3.59 3.59 0 00-.11-3 5 5 0 00-3.09 1.14 12.23 12.23 0 00-6 0A5 5 0 008.9 8.67a3.57 3.57 0 00-.1 3A4.33 4.33 0 007.61 15a5.14 5.14 0 005.27 5.31c-.43.14-.81 1-.84 1.56-2.12.78-3-.47-3.22-.85a2.56 2.56 0 00-1.34-1.24c-.8-.2-1.49.08-.87.43a3.9 3.9 0 011.58 1.83 1.89 1.89 0 001.28 1.31 5.9 5.9 0 002.61.08v2.21c0 .56-.81.42-.81.42a11.36 11.36 0 013.69-22.18h.07a11.36 11.36 0 013.69 22.14z"/></svg><svg data-name="Слой 1" viewBox="0 0 30 30" id="icon-vk" xmlns="http://www.w3.org/2000/svg"><path d="M28 0H2a2 2 0 00-2 2v26a2 2 0 002 2h26a2 2 0 002-2V2a2 2 0 00-2-2zm-4 17.44c1.78 1.67 2.19 2.56 2.19 2.67.66 1.33-1 1.45-1 1.45h-3a2.21 2.21 0 01-1.55-.45c-1.11-.78-2.23-2.78-3-2.56s-.78 2.12-.78 2.12 0 .44-.22.55a1.13 1.13 0 01-.67.22h-1.31a7.67 7.67 0 01-5.67-2.56c-2.89-3-5.44-9-5.44-9s-.12-.44 0-.55a1.05 1.05 0 01.64-.23h3.23a.84.84 0 01.55.23.81.81 0 01.34.33s.55 1.33 1.22 2.56c1.33 2.33 2 2.89 2.45 2.67.66-.34.44-3.34.44-3.34a3.53 3.53 0 00-.33-1.56c-.23-.33-.78-.44-1-.55s.11-.45.55-.67a6.9 6.9 0 012.89-.33 15.53 15.53 0 011.56.11c1.11.22.78 1.33.78 3.89 0 .78-.11 1.89.44 2.33.22.12.89 0 2.45-2.55a12.57 12.57 0 001.22-2.67.82.82 0 01.33-.33 1.08 1.08 0 01.45-.12h3.43s1-.11 1.22.34-.29 1.67-1.74 3.44c-2.33 3.12-2.56 2.78-.67 4.56z"/></svg><svg data-name="Слой 1" viewBox="0 0 30 30" id="mail" xmlns="http://www.w3.org/2000/svg"><path class="dcls-1" d="M28 0H2a2 2 0 00-2 2v26a2 2 0 002 2h26a2 2 0 002-2V2a2 2 0 00-2-2zm-1.5 20.31A1.69 1.69 0 0124.82 22H5.19a1.69 1.69 0 01-1.69-1.69V9.69A1.69 1.69 0 015.19 8h19.63a1.68 1.68 0 011.68 1.69z"/><path class="dcls-2" d="M26.5 7.96l-11 9.28a1.23 1.23 0 01-1.66 0L3.61 8.06z"/></svg><svg data-name="Слой 1" viewBox="0 0 30 30" id="phone" xmlns="http://www.w3.org/2000/svg"><path class="ecls-1" d="M12.17 10.11a.5.5 0 01.08.27v.46a.61.61 0 00.61.61h4.22a.61.61 0 00.61-.61v-.46a.62.62 0 01.09-.29 23.56 23.56 0 00-5.61.02zM28 0H2a2 2 0 00-2 2v26a2 2 0 002 2h26a2 2 0 002-2V2a2 2 0 00-2-2zm-1.56 12.19v1.85a2 2 0 01-1.55 1 5.93 5.93 0 01-2.55 0 1.93 1.93 0 01-1.33-.7v-2.41l-.21-.14s0-1.14-.53-1.26l-.26-.06v3.64c3.85 5.08 3.72 8.6 3.72 8.6H6.25s-.13-3.52 3.73-8.6v-3.63l-.21.05a1.64 1.64 0 00-.62 1.25.23.23 0 01-.06.25v2a2 2 0 01-1.55 1 5.93 5.93 0 01-2.55 0 1.93 1.93 0 01-1.33-.7v-2.14h-.07c-.27-.19.45-2 1-2.76a5 5 0 012.58-1.34 45.88 45.88 0 017.74-.76 46.17 46.17 0 018 .76 5.09 5.09 0 012.57 1.3c.51.73 1.24 2.57.96 2.8z"/></svg><svg data-name="Слой 1" viewBox="0 0 30 30" id="telegram" xmlns="http://www.w3.org/2000/svg"><path class="fcls-1" d="M28 0H2a2 2 0 00-2 2v26a2 2 0 002 2h26a2 2 0 002-2V2a2 2 0 00-2-2zm-1.56 7.23L22.97 23.4c-.26 1.14-1 1.43-1.92.89l-5.29-3.85-2.55 2.42a1.33 1.33 0 01-1.06.52l.38-5.32 9.8-8.75c.43-.38-.09-.59-.66-.21L9.55 16.64l-5.21-1.62c-1.14-.35-1.16-1.12.23-1.66l20.4-7.76c.95-.37 1.78.19 1.47 1.63z"/></svg></svg>