<?xml version="1.0" encoding="utf-8"?>
<svg viewBox="0 0 32.88 30" xmlns="http://www.w3.org/2000/svg" xmlns:xlink="http://www.w3.org/1999/xlink">
	<style>
		:root>svg{display:none}:root>svg:target{display:block}
	</style>
	<svg data-name="Слой 1" viewBox="0 0 32.88 13.01" id="arrow" xmlns="http://www.w3.org/2000/svg">
		<path fill="#fff" d="M1.44 11.46l15-9.96 15 9.96" />
		<path d="M2.2 12.76l15-10h-1.51l15 10c1.61 1.07 3.11-1.53 1.51-2.59l-15-10a1.46 1.46 0 00-1.51 0l-15 10c-1.61 1.06-.11 3.66 1.51 2.59z" />
	</svg>
	<svg data-name="Слой 1" viewBox="0 0 30 30" id="github" xmlns="http://www.w3.org/2000/svg">
		<path d="M28 0H2a2 2 0 00-2 2v26a2 2 0 002 2h26a2 2 0 002-2V2a2 2 0 00-2-2zm-9.28 26.06s-.8.14-.81-.42v-3.77c0-.58-.42-1.42-.85-1.56A5.14 5.14 0 0022.33 15a4.32 4.32 0 00-1.14-3.33 3.59 3.59 0 00-.11-3 5 5 0 00-3.09 1.14 12.23 12.23 0 00-6 0A5 5 0 008.9 8.67a3.57 3.57 0 00-.1 3A4.33 4.33 0 007.61 15a5.14 5.14 0 005.27 5.31c-.43.14-.81 1-.84 1.56-2.12.78-3-.47-3.22-.85a2.56 2.56 0 00-1.34-1.24c-.8-.2-1.49.08-.87.43a3.9 3.9 0 011.58 1.83 1.89 1.89 0 001.28 1.31 5.9 5.9 0 002.61.08v2.21c0 .56-.81.42-.81.42a11.36 11.36 0 013.69-22.18h.07a11.36 11.36 0 013.69 22.14z" />
	</svg>
	<svg data-name="Слой 1" viewBox="0 0 30 30" id="icon-vk" xmlns="http://www.w3.org/2000/svg">
		<path class="ccls-1" d="M28 0H2a2 2 0 00-2 2v26a2 2 0 002 2h26a2 2 0 002-2V2a2 2 0 00-2-2zm-4 17.44c1.78 1.67 2.22 2.56 2.22 2.67.67 1.33-1 1.44-1 1.44h-3a2.23 2.23 0 01-1.55-.44c-1.12-.78-2.23-2.78-3-2.56s-.78 2.11-.78 2.11 0 .45-.22.56a1.09 1.09 0 01-.66.22h-1.34A7.72 7.72 0 019 18.89c-2.89-3-5.45-9-5.45-9s-.11-.45 0-.56a1.13 1.13 0 01.67-.22h3.22a.88.88 0 01.56.22.82.82 0 01.33.34s.56 1.33 1.23 2.55c1.33 2.34 2 2.9 2.44 2.67.67-.33.45-3.33.45-3.33a3.44 3.44 0 00-.34-1.56c-.22-.33-.77-.44-1-.56s.11-.44.56-.66a6.72 6.72 0 012.89-.34 14.53 14.53 0 011.56.12c1.11.22.77 1.33.77 3.89 0 .78-.11 1.89.45 2.33.22.11.89 0 2.45-2.56a13 13 0 001.22-2.66.82.82 0 01.33-.34 1.13 1.13 0 01.45-.11h3.44s1-.11 1.23.33-.34 1.67-1.78 3.45c-2.34 3.1-2.56 2.77-.67 4.55z" />
	</svg>
	<svg data-name="Слой 1" viewBox="0 0 30 30" id="mail" xmlns="http://www.w3.org/2000/svg">
		<path class="dcls-1" d="M28 0H2a2 2 0 00-2 2v26a2 2 0 002 2h26a2 2 0 002-2V2a2 2 0 00-2-2zm-3.71 8.06l-9.3 9-9.3-9zm2.2 13.61a.4.4 0 01-.39.39H3.88a.39.39 0 01-.39-.39V8.45a.38.38 0 01.17-.32l10.78 10.72a.71.71 0 001 0L26.38 8.17a.4.4 0 01.12.28z" />
	</svg>
	<svg data-name="Слой 1" viewBox="0 0 30 30" id="phone" xmlns="http://www.w3.org/2000/svg">
		<path class="ecls-1" d="M12.17 10.11a.5.5 0 01.08.27v.46a.61.61 0 00.61.61h4.22a.61.61 0 00.61-.61v-.46a.62.62 0 01.09-.29 23.56 23.56 0 00-5.61.02zM28 0H2a2 2 0 00-2 2v26a2 2 0 002 2h26a2 2 0 002-2V2a2 2 0 00-2-2zm-1.56 12.19v1.85a2 2 0 01-1.55 1 5.93 5.93 0 01-2.55 0 1.93 1.93 0 01-1.33-.7v-2.41l-.21-.14s0-1.14-.53-1.26l-.26-.06v3.64c3.85 5.08 3.72 8.6 3.72 8.6H6.25s-.13-3.52 3.73-8.6v-3.63l-.21.05a1.64 1.64 0 00-.62 1.25.23.23 0 01-.06.25v2a2 2 0 01-1.55 1 5.93 5.93 0 01-2.55 0 1.93 1.93 0 01-1.33-.7v-2.14h-.07c-.27-.19.45-2 1-2.76a5 5 0 012.58-1.34 45.88 45.88 0 017.74-.76 46.17 46.17 0 018 .76 5.09 5.09 0 012.57 1.3c.51.73 1.24 2.57.96 2.8z" />
	</svg>
	<svg data-name="Слой 1" viewBox="0 0 30 30" id="telegram" xmlns="http://www.w3.org/2000/svg">
		<path class="fcls-1" d="M28 0H2a2 2 0 00-2 2v26a2 2 0 002 2h26a2 2 0 002-2V2a2 2 0 00-2-2zm-1.56 7.23L22.97 23.4c-.26 1.14-1 1.43-1.92.89l-5.29-3.85-2.55 2.42a1.33 1.33 0 01-1.06.52l.38-5.32 9.8-8.75c.43-.38-.09-.59-.66-.21L9.55 16.64l-5.21-1.62c-1.14-.35-1.16-1.12.23-1.66l20.4-7.76c.95-.37 1.78.19 1.47 1.63z" />
	</svg>
	<svg data-name="Слой 1" viewBox="0 0 30 30" id="whatsapp-icon" xmlns="http://www.w3.org/2000/svg">
		<path class="gcls-1" d="M28 0H2a2 2 0 00-2 2v26a2 2 0 002 2h26a2 2 0 002-2V2a2 2 0 00-2-2zM15.08 26.32a11.37 11.37 0 01-5.51-1.41L3.5 26.48l1.67-5.9a11.27 11.27 0 01-1.52-5.68 11.43 11.43 0 1111.43 11.42zm5.59-8.83c-.61-.33-2.21-1.08-2.53-1.2a.38.38 0 00-.44.13s-.75.94-.9 1.11a.49.49 0 01-.64.17 7.88 7.88 0 01-3.89-3.38 1.12 1.12 0 01-.1-.29c0-.17.2-.29.67-.9s.19-.91.19-.91l-.61-1.54a5.81 5.81 0 00-.42-.87.86.86 0 00-.35-.18 1.68 1.68 0 00-1.4.3c-.47.51-2 2.06-.09 5.05 2.59 4.07 5.48 4.81 6.49 5.11a4.4 4.4 0 002.34.16 4 4 0 001.28-.78 1.68 1.68 0 00.4-.67 3.57 3.57 0 00.15-.92s.02-.29-.17-.37z" />
	</svg>
</svg>
