<svg width="365" height="397" fill="none" xmlns="http://www.w3.org/2000/svg"><path fill="#35405C" d="M0 0h365v396.326H0z"/><path d="M126.252 198.337v-62.794a5.709 5.709 0 015.709-5.709h68.502l39.96 39.96v28.543" stroke="#1C2337" stroke-width="11" stroke-linecap="round" stroke-linejoin="round"/><path d="M200.463 129.834v39.96h39.96m-114.171 79.92h11.417a11.417 11.417 0 000-22.834h-11.417v34.251M246.13 226.88h-19.98v34.251m17.126-14.271H226.15m-42.812 14.271a17.122 17.122 0 0017.125-17.126 17.122 17.122 0 00-17.125-17.125h-9.99v34.251h9.99z" stroke="#1C2337" stroke-width="11" stroke-linecap="round" stroke-linejoin="round"/><path d="M25.75 21.413l5.25 5.25 5.25-5.25M31 12.663v14" stroke="#1C2337" stroke-width="2" stroke-linecap="round" stroke-linejoin="round"/><path d="M42 26.663v7a1 1 0 01-1 1H21a1 1 0 01-1-1v-7" stroke="#1C2337" stroke-width="2" stroke-linecap="round" stroke-linejoin="round"/></svg>