<svg width="502" height="213" fill="none" xmlns="http://www.w3.org/2000/svg"><path d="M499.429 61.052c2.495 12.867-1.887 26.467-12.184 40.099-10.297 13.632-26.447 27.205-47.272 39.945-41.642 25.476-101.792 47.505-170.577 60.007-68.784 12.502-133.09 13.092-181.439 3.973-24.178-4.561-44.312-11.539-59.014-20.628-14.7-9.088-23.878-20.224-26.372-33.091-2.495-12.867 1.887-26.468 12.184-40.099 10.297-13.633 26.447-27.206 47.272-39.946 41.642-25.475 101.792-47.505 170.577-60.007 68.784-12.501 133.09-13.092 181.439-3.972 24.178 4.56 44.312 11.539 59.014 20.627 14.701 9.089 23.878 20.224 26.372 33.092z" stroke="url(#paint0_linear_9_2)" stroke-width="2"/><defs><linearGradient id="paint0_linear_9_2" x1="1.587" y1="151.535" x2="499.286" y2="55.055" gradientUnits="userSpaceOnUse"><stop stop-color="#22BAFB"/><stop offset=".234" stop-color="#64EEB4"/><stop offset=".547" stop-color="#FFF5DD"/><stop offset=".654" stop-color="#C8F3F9"/><stop offset="1" stop-color="#184CD1"/></linearGradient></defs></svg>