<svg width="32" height="32" fill="none" xmlns="http://www.w3.org/2000/svg"><path d="M4.585 21.625L7.611 4.488a.988.988 0 011.15-.813l6.9 1.213a1.012 1.012 0 01.812 1.162l-3.037 17.238a4.512 4.512 0 01-5.138 3.662c-2.487-.4-4.15-2.837-3.713-5.325z" stroke="#FBFBFB" stroke-linecap="round" stroke-linejoin="round"/><path d="M14.79 15.6l9.112-3.313a1 1 0 011.287.6l2.4 6.575a1 1 0 01-.6 1.276l-16.45 5.987" stroke="#FBFBFB" stroke-linecap="round" stroke-linejoin="round"/><path d="M27.5 20.313V26a1 1 0 01-1 1H9" stroke="#FBFBFB" stroke-linecap="round" stroke-linejoin="round"/><path d="M9 24a1.5 1.5 0 100-3 1.5 1.5 0 000 3z" fill="#FBFBFB"/></svg>