<svg width="1277" height="1202" fill="none" xmlns="http://www.w3.org/2000/svg"><path d="M208.657 925.892c-57.195-75.572-61.062-180.403-20.857-288.928 40.201-108.513 124.433-220.596 243.198-310.481 118.765-89.885 249.513-140.505 364.866-149.72 115.365-9.216 215.206 22.98 272.396 98.552 57.2 75.572 61.07 180.404 20.86 288.929-40.2 108.513-124.431 220.596-243.196 310.481-118.765 89.885-249.513 140.505-364.866 149.715-115.366 9.22-215.206-22.98-272.401-98.548z" stroke="url(#paint0_linear_93_13126)" stroke-width="1.705"/><path d="M101.546 785.277c-9.074-94.34 42.603-185.632 133.744-256.957 91.132-71.319 221.626-122.589 369.887-136.849 148.26-14.261 286.134 11.196 389.189 63.837 103.064 52.646 171.194 132.413 180.274 226.754 9.07 94.34-42.61 185.631-133.75 256.957-91.13 71.321-221.625 122.591-369.885 136.851-148.26 14.26-286.134-11.2-389.189-63.84-103.065-52.645-171.196-132.413-180.27-226.753z" stroke="url(#paint1_linear_93_13126)" stroke-width="1.705"/><defs><linearGradient id="paint0_linear_93_13126" x1="1068.94" y1="274.801" x2="207.978" y2="926.407" gradientUnits="userSpaceOnUse"><stop stop-color="#22BAFB"/><stop offset=".234" stop-color="#64EEB4"/><stop offset=".547" stop-color="#FFF5DD"/><stop offset=".654" stop-color="#C8F3F9"/><stop offset="1" stop-color="#184CD1"/></linearGradient><linearGradient id="paint1_linear_93_13126" x1="1175.48" y1="681.981" x2="100.697" y2="785.359" gradientUnits="userSpaceOnUse"><stop stop-color="#22BAFB"/><stop offset=".234" stop-color="#64EEB4"/><stop offset=".547" stop-color="#FFF5DD"/><stop offset=".654" stop-color="#C8F3F9"/><stop offset="1" stop-color="#184CD1"/></linearGradient></defs></svg>