<svg width="1427" height="610" fill="none" xmlns="http://www.w3.org/2000/svg"><path d="M.954 304.682c0 41.744 19.796 81.593 55.762 117.925 35.97 36.336 88.066 69.102 152.518 96.64 128.9 55.075 307.04 89.163 503.857 89.163 196.818 0 374.959-34.088 503.859-89.163 64.45-27.538 116.55-60.304 152.52-96.64 35.96-36.332 55.76-76.181 55.76-117.925s-19.8-81.593-55.76-117.925c-35.97-36.336-88.07-69.102-152.52-96.64C1088.05 35.042 909.909.954 713.091.954c-196.817 0-374.957 34.088-503.857 89.163-64.452 27.538-116.548 60.304-152.518 96.64C20.75 223.089.954 262.938.954 304.682z" stroke="url(#paint0_linear_1_1829)" stroke-width="1.908"/><defs><linearGradient id="paint0_linear_1_1829" x1="1426.18" y1="304.681" x2="-.001" y2="304.681" gradientUnits="userSpaceOnUse"><stop stop-color="#22BAFB"/><stop offset=".234" stop-color="#64EEB4"/><stop offset=".547" stop-color="#FFF5DD"/><stop offset=".654" stop-color="#C8F3F9"/><stop offset="1" stop-color="#184CD1"/></linearGradient></defs></svg>