<svg width="38" height="38" fill="none" xmlns="http://www.w3.org/2000/svg"><path d="M3.015 14.603V3.266c0-.41.156-.802.436-1.092a1.46 1.46 0 011.052-.453h29.762c.395 0 .774.163 1.053.453.279.29.436.683.436 1.092v11.337c0 16.222-13.263 21.591-15.905 22.499-.3.115-.63.115-.93 0-2.641-.908-15.904-6.277-15.904-22.5z" stroke="#FBFBFB" stroke-width="1.364" stroke-linecap="round" stroke-linejoin="round"/><path d="M19.385 23.391a5.755 5.755 0 100-11.51 5.755 5.755 0 000 11.51zm0-14.579V6.894m-6.245 4.498l-1.352-1.352m-1.228 7.596H8.642m4.498 6.244l-1.352 1.353m7.597 1.227v1.919m6.244-4.499l1.352 1.353m1.228-7.597h1.918m-4.498-6.244l1.352-1.352" stroke="#FBFBFB" stroke-width="1.535" stroke-linecap="round" stroke-linejoin="round"/></svg>