<svg width="38" height="38" fill="none" xmlns="http://www.w3.org/2000/svg"><path d="M3.015 14.603V3.266c0-.41.156-.803.436-1.092a1.46 1.46 0 011.052-.453h29.762c.395 0 .774.163 1.053.453.279.29.436.682.436 1.092v11.337c0 16.222-13.263 21.591-15.905 22.499-.3.115-.63.115-.93 0-2.641-.908-15.904-6.277-15.904-22.5z" stroke="#1F2023" stroke-width="1.364" stroke-linecap="round" stroke-linejoin="round"/><path d="M23.99 19.666a5.526 5.526 0 01-4.594 4.594m-6.774-13.337c-1.63 2.456-2.964 5.271-2.964 7.897a8.892 8.892 0 1017.783 0c0-5.505-3.81-9.739-6.901-12.82l-3.684 7.739-4.234-2.816z" stroke="#1F2023" stroke-width="1.36" stroke-linecap="round" stroke-linejoin="round"/></svg>