<svg width="331" height="146" fill="none" xmlns="http://www.w3.org/2000/svg"><path d="M329.535 42.297c1.627 8.664-1.224 17.849-7.986 27.094-6.763 9.247-17.385 18.472-31.108 27.142-27.44 17.337-67.097 32.341-112.464 40.856-45.368 8.516-87.766 8.915-119.625 2.709-15.933-3.104-29.177-7.849-38.833-14.014-9.655-6.164-15.642-13.69-17.268-22.354-1.626-8.664 1.224-17.849 7.986-27.094C17 67.389 27.622 58.164 41.345 49.494c27.44-17.337 67.097-32.34 112.464-40.856C199.177.122 241.575-.277 273.434 5.929c15.933 3.104 29.177 7.85 38.834 14.014 9.654 6.164 15.641 13.69 17.267 22.354z" stroke="url(#paint0_linear_2_36)" stroke-width="2"/><defs><linearGradient id="paint0_linear_2_36" x1="1.268" y1="103.914" x2="330.518" y2="42.113" gradientUnits="userSpaceOnUse"><stop stop-color="#22BAFB"/><stop offset=".234" stop-color="#64EEB4"/><stop offset=".547" stop-color="#FFF5DD"/><stop offset=".654" stop-color="#C8F3F9"/><stop offset="1" stop-color="#184CD1"/></linearGradient></defs></svg>