<svg width="30" height="30" xmlns="http://www.w3.org/2000/svg"><path d="M25.59 4.373C22.673 1.472 19.11 0 15 0 10.852 0 7.278 1.473 4.378 4.375 1.473 7.277 0 10.853 0 15c0 4.108 1.472 7.672 4.373 10.59C7.275 28.517 10.85 30 15 30c4.112 0 7.675-1.483 10.593-4.405C28.518 22.673 30 19.108 30 15c0-4.147-1.483-7.723-4.41-10.627zm-2.353 18.865c-1.895 1.899-4.06 2.98-6.57 3.309v-8.214H20V15h-3.333v-2.333a1 1 0 011.001-1H20V8.333h-2.328c-1.237 0-2.269.455-3.095 1.37-.827.912-1.244 2.025-1.244 3.347V15H10v3.333h3.333v8.217c-2.536-.325-4.71-1.408-6.595-3.307C4.447 20.937 3.333 18.24 3.333 15c0-3.277 1.112-5.98 3.404-8.267 2.283-2.288 4.986-3.4 8.263-3.4 3.242 0 5.937 1.114 8.242 3.405 2.305 2.287 3.425 4.99 3.425 8.262 0 3.235-1.122 5.932-3.43 8.238z"/></svg>