<svg width="41" height="41" fill="none" xmlns="http://www.w3.org/2000/svg"><path d="M7.738 20.264s-2.374 2.942-2.09 4.745l-1.612 1.424v.854s3.89 1.614 7.592.475v1.423l.095 1.424 1.898.759s2.183-.38 2.752-3.417c0 0 2.278.854 3.227 3.322l2.658-.19s.38-1.423-.095-2.372l11.673-.19 1.14 1.044v1.139l.569.664h1.234l.948-1.044-1.043-3.701.854-2.658s-9.87 5.98-23.537-1.803l-1.044-2.183s-2.183.38-2.088.95c0 0-.475-1.519-3.132-.665z" fill="#9B9B9A"/><path d="M10.585 17.37L8.592 20.5s2.325.095 2.278.901c-.048.807 1.423 1.377-.238 3.75l1.234.57.806-.618.902-1.993.428-.949s10.866 8.21 23.536 1.803l.901-1.708-2.847-2.848-.332-1.233-.38-1.614-2.23-.427-1.993-2.278-4.508-.759-2.42-.901-2.183 1.566-2.183-.522-2.372 1.66-1.092.048-1.946-.19-1.281 2.753-1.329.047-.759-.19z" fill="#195557"/><path d="M13.93 15.169c-.487 1.281-1.043 1.876-1.488 2.327a.888.888 0 01-1.181.083l-.675-.528-1.95 2.878a1.384 1.384 0 01-1.145.608S5.969 22.4 5.44 24.413a2.583 2.583 0 01-.97 1.402l-.217.162s-1.339 1.117.259 1.603c0 0 5.48 1.73 8.516-.69m10.535-14.189s-1.039.7-1.822.848a41.18 41.18 0 00-.977.2l-1.804-.383c-.894 1.022-2.137 1.509-3.013 1.893m18.199 1.144c-1.131 0-1.453-.087-2.09-.602a5.291 5.291 0 01-1.237-1.428l-.232-.393c-1.504 0-3.114-.182-4.583-.423m11.724 8.367c-1.763-.657-2.012-2.514-2.596-3.266M11.855 29.466l-.13.27a1.139 1.139 0 001.027 1.632h.926a1.14 1.14 0 001.002-.597l1.62-2.997s1.994.826 2.707 2.868c.156.445.598.726 1.069.726h1.152a1.137 1.137 0 001.133-1.257c-.059-.528-.166-1.076-.36-1.317 0 0 8.63.249 11.392-.349a1.079 1.079 0 011.293.81c.063.282.1.599.08.932a1.124 1.124 0 001.136 1.18h.222c.64 0 1.14-.455 1.18-1.048.07-.993-.007-2.501-.88-3.662 0 0 .645-.565.633-2.328" stroke="#000" stroke-width="2" stroke-miterlimit="10" stroke-linecap="round" stroke-linejoin="round"/><path d="M10.939 21.194s1.21-1.895 2.29-.195c.728 1.147-.176 2.871-.84 3.87a1.194 1.194 0 01-1.45.443v0m4.676-5.611l2.847-2.349m-.498 5.494l3.416-1.172m-.356-3.016l3.444-1.59m-1.722 7.687l3.902-.425m1.139-3.47l3.915.702m-4.97-3.061l3.106-1.425m.365 7.848l3.566.955" stroke="#000" stroke-width="2" stroke-miterlimit="10" stroke-linecap="round" stroke-linejoin="round"/></svg>