<svg width="24" height="24" fill="none" xmlns="http://www.w3.org/2000/svg"><path d="M24 12c0 6.628-5.372 12-12 12-6.627 0-12-5.372-12-12S5.373 0 12 0c6.628 0 12 5.372 12 12z" fill="#3CBA64"/><path d="M9.455 16.386c.097.047.237.141.237.141.867.517 1.854.79 2.853.79a5.596 5.596 0 005.59-5.589 5.596 5.596 0 00-5.59-5.59 5.597 5.597 0 00-5.59 5.59c0 1.018.283 2.02.818 2.898 0 0 .097.14.145.238.27.541-.962 1.663-.558 2.084.354.37 1.56-.823 2.095-.562zm-3.938 2.405c-.342-.524 1-3.734 1-3.734a6.872 6.872 0 01-.864-3.329 6.9 6.9 0 016.892-6.893 6.9 6.9 0 016.893 6.893 6.9 6.9 0 01-6.893 6.893 6.882 6.882 0 01-3.276-.836s-3.41 1.53-3.752 1.006z" fill="#fff"/><path fill-rule="evenodd" clip-rule="evenodd" d="M15.11 12.687c-.284-.17-.653-.36-.987-.223-.257.105-.42.506-.587.712-.086.104-.187.12-.318.069a4.474 4.474 0 01-2.231-1.912c-.09-.138-.074-.246.034-.373.16-.19.362-.405.406-.658.043-.255-.076-.553-.182-.78-.134-.29-.284-.702-.574-.867-.267-.15-.618-.065-.856.128-.41.334-.608.857-.602 1.376.001.147.02.295.054.437a3.6 3.6 0 00.419.966c.134.229.28.45.437.665a6.76 6.76 0 001.897 1.76c.37.227.77.427 1.183.563.464.153.877.313 1.377.217.524-.099 1.04-.423 1.249-.928a.809.809 0 00.058-.474c-.071-.326-.514-.52-.778-.678" fill="#fff"/></svg>