<svg viewBox="0 0 32.88 31" xmlns="http://www.w3.org/2000/svg" xmlns:xlink="http://www.w3.org/1999/xlink"><style>:root&gt;svg{display:none}:root&gt;svg:target{display:block}</style><svg data-name="Слой 1" viewBox="0 0 32.88 13.01" id="arrow" xmlns="http://www.w3.org/2000/svg"><path fill="#fff" d="M1.44 11.46l15-9.96 15 9.96"/><path d="M2.2 12.76l15-10h-1.51l15 10c1.61 1.07 3.11-1.53 1.51-2.59l-15-10a1.46 1.46 0 00-1.51 0l-15 10c-1.61 1.06-.11 3.66 1.51 2.59z"/></svg><svg id="github" data-name="Слой 1" viewBox="0 0 29.99 30" xmlns="http://www.w3.org/2000/svg"><defs><style>.bcls-1{fill:red}</style></defs><path d="M1594.73 915.41h-26a2 2 0 00-2 2v26a2 2 0 002 2h26a2 2 0 002-2v-26a2 2 0 00-2-2zm-9.32 25.9s-.79.13-.8-.42v-3.72c0-.57-.41-1.39-.83-1.53a5.08 5.08 0 005.2-5.24 4.26 4.26 0 00-1.17-3.27 3.54 3.54 0 00-.11-3 5 5 0 00-3 1.11 12.23 12.23 0 00-5.89 0 5 5 0 00-3-1.11 3.52 3.52 0 00-.1 3 4.22 4.22 0 00-1.17 3.27 5.07 5.07 0 005.19 5.24c-.42.14-.8 1-.83 1.53-2.08.77-3-.46-3.17-.83a2.54 2.54 0 00-1.32-1.23c-.79-.2-1.47.08-.86.42a3.9 3.9 0 011.54 1.81 1.87 1.87 0 001.26 1.29 5.72 5.72 0 002.57.08v2.18c0 .55-.79.42-.79.42a11.19 11.19 0 013.65-21.81h.06a11.19 11.19 0 013.64 21.81z" transform="translate(-1566.74 -915.41)"/><circle class="bcls-1" cx="12.05" cy="15" r="1.5"/><circle class="bcls-1" cx="17.52" cy="15" r="1.5"/></svg><svg viewBox="0 0 30 30" id="icon-vk" xmlns="http://www.w3.org/2000/svg"><path d="M77.7 3.3h-26c-1.1 0-2 .9-2 2v26c0 1.1.9 2 2 2h26c1.1 0 2-.9 2-2v-26c0-1.1-.9-2-2-2zm-3.7 21h-2.7s-.8.1-1.4-.4c-1-.7-2-2.5-2.7-2.3-.8.2-.7 1.9-.7 1.9s0 .4-.2.5c-.2.2-.6.2-.6.2h-1.2s-2.7.2-5.1-2.3c-2.6-2.7-4.9-8.1-4.9-8.1s-.1-.4 0-.5c.2-.2.6-.2.6-.2H58s.3 0 .5.2c.2.1.3.3.3.3s.5 1.2 1.1 2.3c1.2 2.1 1.8 2.6 2.2 2.4.6-.3.4-3 .4-3s0-1-.3-1.4c-.2-.3-.7-.4-.9-.5-.2 0 .1-.4.5-.6.5-.3 1.5-.3 2.6-.3.9 0 1.1.1 1.4.1 1 .2.7 1.2.7 3.5 0 .7-.1 1.7.4 2.1.2.1.8 0 2.2-2.3.7-1.1 1.1-2.4 1.1-2.4s.1-.2.3-.3c.2-.1.4-.1.4-.1H74s.9-.1 1.1.3c.2.4-.3 1.5-1.6 3.1-2.1 2.8-2.3 2.5-.6 4.1 1.6 1.5 2 2.3 2 2.4.6 1.2-.9 1.3-.9 1.3z"/></svg><svg viewBox="0 0 30 20.69" id="mail" xmlns="http://www.w3.org/2000/svg"><rect class="dcls-1" x=".5" y=".5" width="29" height="19.69" rx=".78"/><path d="M28.72 1a.28.28 0 01.28.28v18.14a.28.28 0 01-.28.27H1.27a.27.27 0 01-.27-.27V1.28A.27.27 0 011.27 1h27.45m0-1H1.27A1.27 1.27 0 000 1.28v18.14a1.27 1.27 0 001.27 1.27h27.45A1.28 1.28 0 0030 19.42V1.28A1.28 1.28 0 0028.72 0z"/><path class="dcls-2" d="M.99.98l13.57 13.81a.77.77 0 00.87 0L28.99.98"/></svg><svg viewBox="0 0 31 31" id="old-phone" xmlns="http://www.w3.org/2000/svg"><defs><style>.ecls-2{fill:#fff}</style></defs><rect x=".5" y=".5" width="30" height="30" rx="2" stroke-miterlimit="10" fill="#373841" stroke="#fff" id="eСлой_3" data-name="Слой 3"/><g id="eСлой_2" data-name="Слой 2"><path class="ecls-2" d="M1042.77 153.16h-20.46s-.17-4.12 4.36-10.08V138h2a.71.71 0 01.71.72v.53a.72.72 0 00.72.72h5a.71.71 0 00.71-.72v-.53a.72.72 0 01.72-.72h2v5.1c4.53 6 4.37 10.08 4.37 10.08h-20.6" transform="translate(-1017.07 -127.91)"/><path class="ecls-2" d="M1025.59 142.94a2.35 2.35 0 01-1.82 1.13 7.17 7.17 0 01-3 0 2.26 2.26 0 01-1.56-.83v-2.73a8.19 8.19 0 006.37 0zm20.41 0a2.37 2.37 0 01-1.82 1.13 7.22 7.22 0 01-3 0 2.22 2.22 0 01-1.55-.83v-2.73a8.19 8.19 0 006.37 0z" transform="translate(-1017.07 -127.91)"/><path class="ecls-2" d="M1032.4 135.06a53.34 53.34 0 019.44.9 5.85 5.85 0 013 1.58c.61.84 1.45 3 1.13 3.23s-1 1-3.62.87-3.05-1.29-3.05-1.29a1.7 1.7 0 00-.61-1.48v-1.17h-3.17v.38a24.84 24.84 0 00-6 0v-.38h-3.16v1.17a1.7 1.7 0 00-.61 1.48s-.47 1.19-3.06 1.29-3.29-.65-3.62-.87.53-2.39 1.14-3.23a5.81 5.81 0 013-1.58 54 54 0 019.19-.9z" transform="translate(-1017.07 -127.91)"/></g></svg></svg>