<svg width="180" height="209" fill="none" xmlns="http://www.w3.org/2000/svg"><path d="M73.55 111.366c18.195 44.718 49.259 74.332 69.383 66.144 20.123-8.188 21.686-51.077 3.49-95.796C128.227 36.995 97.163 7.381 77.04 15.57c-20.124 8.188-21.686 51.077-3.49 95.796z" stroke="#F5F7FA" stroke-width="3" stroke-linecap="round" stroke-linejoin="round"/><path d="M77.04 15.57L36.553 32.042c-20.142 8.195-21.693 51.06-3.49 95.796 18.202 44.736 49.241 74.34 69.383 66.144l40.485-16.473M63.408 77.743L22.923 94.216m66.843 48.304l-40.167 16.343" stroke="#F5F7FA" stroke-width="3" stroke-linecap="round" stroke-linejoin="round"/><path d="M133.739 139.297l-4.752-9.257c-2.327 3.407-4.792 6.13-7.396 8.169-2.598 1.93-5.275 2.936-8.032 3.017l-.862-6.302c2.796-.241 5.36-1.171 7.693-2.789 2.304-1.675 4.692-4.428 7.166-8.262 3.049-4.726 4.822-9.271 5.319-13.636.469-4.42-.139-8.27-1.822-11.55-1.37-2.669-3.013-3.915-4.931-3.739-1.883.124-4.337 1.682-7.363 4.676l-5.837 6.051c-3.591 3.67-6.76 5.437-9.506 5.301-2.741-.244-5.182-2.451-7.322-6.62-1.598-3.114-2.568-6.602-2.909-10.467-.34-3.864-.069-7.779.815-11.745a40.39 40.39 0 014.467-11.565l-4.752-9.256 2.745-4.254 4.794 9.34c1.808-2.403 3.876-4.36 6.203-5.87 2.361-1.564 4.753-2.177 7.177-1.84l.92 6.06c-2.616-.238-5.025.402-7.227 1.918-2.231 1.462-4.363 3.768-6.396 6.918-2.71 4.201-4.325 8.7-4.843 13.497-.485 4.745.2 8.924 2.055 12.538 1.455 2.835 3.15 4.301 5.085 4.396 1.907.04 4.195-1.31 6.864-4.05l5.828-5.889c3.891-4.034 7.232-6.118 10.023-6.25 2.763-.19 5.157 1.69 7.183 5.637 2.34 4.56 3.241 9.751 2.703 15.577-.538 5.825-2.252 11.376-5.14 16.652l4.794 9.34-2.744 4.254z" fill="#F5F7FA"/></svg>